<?xml version="1.0" encoding="utf-8"?>
<!-- Generator: Adobe Illustrator 18.0.0, SVG Export Plug-In . SVG Version: 6.00 Build 0)  -->
<!DOCTYPE svg PUBLIC "-//W3C//DTD SVG 1.1//EN" "http://www.w3.org/Graphics/SVG/1.1/DTD/svg11.dtd">
<svg version="1.1" id="Layer_1" xmlns="http://www.w3.org/2000/svg" xmlns:xlink="http://www.w3.org/1999/xlink" x="0px" y="0px"
	 viewBox="0 0 216 252" enable-background="new 0 0 216 252" xml:space="preserve">
<path fill="#FFFFFF" d="M65.9,157.6c-11.4,0-18.5,7-18.5,16.7v15c0,9.6,7.1,16.7,18.5,16.7c11.4,0,18.4-7.1,18.4-16.7v-15
	C84.4,164.6,77.4,157.6,65.9,157.6z M73.2,189.8c0,4.1-2.5,7.3-7.3,7.3c-4.9,0-7.3-3.2-7.3-7.3v-16c0-4.2,2.4-7.4,7.3-7.4
	c4.8,0,7.3,3.2,7.3,7.4V189.8z M109.4,157.6c-11.4,0-18.4,7.3-18.4,16.8v14.8c0,9.5,6.7,16.8,18.4,16.8c10.3,0,16.9-5.9,16.9-14.2
	v-3.6h-10.2v3c0,3.8-2.3,6.1-6.5,6.1c-4.7,0-7.6-2.8-7.6-7.1v-16.2c0-4.5,2.6-7.4,7.5-7.4c4.2,0,6.7,2.1,6.7,6.3v2.7h10.2V172
	C126.4,163.7,120.2,157.6,109.4,157.6z M142.5,158.9l-13.8,45.8H139l2.7-9.2h12.8l2.6,9.2h11.3l-13.8-45.8H142.5z M143.7,187.9
	l4.5-16.6l4.3,16.6H143.7z M32.4,158.9H21.6v45.8h21.1v-9.2H32.4V158.9z M184.2,195.6v-36.7h-10.8v45.8h21.1v-9.2H184.2z"/>
<path fill="#FFFFFF" d="M165.3,228c0-1.1-0.6-2.1-2-2.3c1.4-0.3,2-1.2,2-2.4v-0.9c0-1.9-1.2-3.2-3.9-3.2h-5.5v12.7h3.1v-5.1h2
	c1,0,1.4,0.5,1.4,1.3v1.9c0,1.2,0.4,2,1.4,2h2.1v-0.6c-0.4-0.4-0.6-0.8-0.6-1.5V228z M162.3,223.6c0,0.8-0.4,1.2-1.4,1.2h-2v-3.4h2
	c1,0,1.3,0.5,1.3,1.1V223.6z M144.5,231.8h8.6v-2.6h-5.5v-3h3.9v-2h-3.9v-2.7h5.5v-2.5h-8.6V231.8z M57.2,227.9
	c0,1.1-0.6,1.8-1.9,1.8c-1.3,0-2-0.7-2-1.8v-8.8h-3.1v8.9c0,2.4,1.9,4.2,5,4.2c3.1,0,4.9-1.8,4.9-4.2v-8.9h-2.9V227.9z M43.8,219.1
	h-5.6v12.7h3.1v-4.6h2.5c2.5,0,3.8-1.4,3.8-3.4v-1.3C47.7,220.5,46.3,219.1,43.8,219.1z M44.7,223.9c0,0.7-0.4,1.2-1.3,1.2h-2.1
	v-3.7h2.1c0.9,0,1.3,0.4,1.3,1.2V223.9z M70.6,225.4c1.4-0.2,2-1.3,2-2.5v-0.7c0-1.9-1.3-3.1-3.7-3.1h-5.7v12.7H69
	c2.4,0,3.7-1.2,3.7-3.1v-1C72.7,226.7,72.1,225.7,70.6,225.4z M66.3,221.5h2.1c0.9,0,1.2,0.4,1.2,1.1v0.8c0,0.8-0.4,1.2-1.3,1.2h-2
	V221.5z M69.7,228.5c0,0.6-0.3,1.1-1.2,1.1h-2.2v-3.1h2.1c0.9,0,1.3,0.4,1.3,1.2V228.5z M174.6,219.1l-2.3,5.1l-2.5-5.1h-3.3
	l4.1,7.6v5.1h3.1v-5.1l4.1-7.6H174.6z M110.6,231.8h8.6v-2.6h-5.5v-3h3.9v-2h-3.9v-2.7h5.5v-2.5h-8.6V231.8z M125.2,219.1l-3.8,12.7
	h2.8l0.7-2.6h3.5l0.7,2.6h3.1l-3.8-12.7H125.2z M125.5,227.2l1.2-4.6l1.2,4.6H125.5z M132.2,221.6h3.4v10.2h3.1v-10.2h3.4v-2.5h-9.8
	V221.6z M85.2,231.8h3.1v-12.7h-3.1V231.8z M96.1,218.8c-3.2,0-5.1,2-5.1,4.7v4.1c0,2.6,1.9,4.7,5.1,4.7c2.8,0,4.7-1.6,4.7-3.9v-1
	H98v0.8c0,1.1-0.6,1.7-1.8,1.7c-1.3,0-2.1-0.8-2.1-2v-4.5c0-1.3,0.7-2,2.1-2c1.2,0,1.9,0.6,1.9,1.7v0.7h2.8v-0.9
	C100.8,220.5,99.1,218.8,96.1,218.8z M78.7,219.1h-3.1v12.7h7.1v-2.5h-4.1V219.1z"/>
<path fill="#FFFFFF" d="M169.5,64.7h-46.1L108,19.8l0,0l0,0L92.6,64.7H46.5l37,27.7l-15.3,44.7l28.3-16.9c0,0,0.5-0.3,0.5-0.8v-9.3
	c0-5.1-1-8.1-1.7-11c-0.7-2.9-1.5-5.9-2-10.6c-0.3-2.8-0.4-5.2-0.4-7.2c0-4.9,0.8-8.6,0.8-8.6s4.5-3.5,14.1-3.5
	c9.6,0,14.1,3.5,14.1,3.5s0.8,3.7,0.8,8.6c0,2-0.1,4.4-0.4,7.2c-0.5,4.7-1.3,7.7-2,10.6c-0.7,2.9-1.6,5.9-1.7,11v9.3
	c0,0.5,0.5,0.8,0.5,0.8l28.3,16.9l-15.3-44.7L169.5,64.7z"/>
<path fill="#FFFFFF" d="M108,78.9c-5,0-9.6,1-12.6,2.7c0,2.1,0.1,4.3,0.4,6.6c0.4,3.8,1,6.4,1.6,8.9l0.1,0.3
	c0.1,0.4,0.2,0.8,0.3,1.2c0.1,0.4,0.2,0.7,0.3,1.1l0,0.2c0.7,2.6,1.4,5.6,1.4,10.3v2l0,7.4c2.3,0.6,5.3,1,8.4,1c0.1,0,0.1,0,0.2,0
	c0.1,0,0.1,0,0.2,0c3.2,0,6.1-0.4,8.4-1l0-7.4v-2c0-4.7,0.7-7.6,1.4-10.3l0-0.2c0.1-0.4,0.2-0.7,0.3-1.1c0.1-0.4,0.2-0.8,0.3-1.2
	l0.1-0.3c0.6-2.5,1.2-5.1,1.6-8.9c0.2-2.3,0.4-4.5,0.4-6.6C117.6,79.9,113,78.9,108,78.9z"/>
<path fill="#FFFFFF" d="M120.5,78.3c0,0-0.2-1.9-0.3-2.6c-0.1-0.6-0.2-1.1-0.2-1.4c-1.6-0.8-5.5-2.5-11.9-2.5c0,0-0.1,0-0.1,0
	c0,0-0.1,0-0.1,0c-6.5,0-10.4,1.7-11.9,2.5c-0.1,0.4-0.1,0.9-0.2,1.4c-0.1,0.7-0.3,2.6-0.3,2.6l0,0.6c3.2-1.5,7.6-2.4,12.5-2.4
	c0,0,0,0,0,0s0,0,0,0c4.9,0,9.3,0.9,12.5,2.4L120.5,78.3z"/>
<g>
	<path fill="#FFFFFF" d="M201.4,159c1.5,0,2.7,0.5,3.8,1.6c1,1,1.6,2.3,1.6,3.8c0,1.5-0.5,2.7-1.6,3.8c-1,1.1-2.3,1.6-3.8,1.6
		c-1.5,0-2.7-0.5-3.8-1.6c-1-1-1.6-2.3-1.6-3.8c0-1.5,0.5-2.7,1.6-3.8C198.7,159.5,199.9,159,201.4,159z M201.4,168.9
		c1.3,0,2.3-0.4,3.2-1.3c0.9-0.9,1.3-2,1.3-3.2c0-1.3-0.4-2.3-1.3-3.2c-0.9-0.9-2-1.3-3.2-1.3c-1.2,0-2.3,0.4-3.2,1.3
		c-0.9,0.9-1.3,2-1.3,3.2c0,1.2,0.4,2.3,1.3,3.2C199.1,168.4,200.1,168.9,201.4,168.9z M203.5,162.9c0,0.6-0.3,1-0.8,1.2
		c0.3,0.2,0.4,0.6,0.4,1.1v0.5c0,0.3,0.1,0.4,0.2,0.4c0.1,0,0.2-0.2,0.2-0.5v-0.5c0-0.4,0.1-0.6,0.4-0.6c0.3,0,0.5,0.2,0.5,0.5
		c0,0.1,0,0.1,0,0.2v0.7c0,0.7-0.4,1.1-1.1,1.1c-0.7,0-1.1-0.4-1.1-1.1v-0.2v-0.5c0-0.3-0.1-0.5-0.2-0.6c-0.1-0.1-0.3-0.1-0.7-0.1
		h-0.7c-0.1,0-0.1,0-0.1,0.1v1.1c0,0.3,0.1,0.4,0.2,0.4c0.1,0,0.1,0,0.1,0h0.2c0.3,0,0.4,0.1,0.4,0.4c0,0.3-0.2,0.4-0.5,0.4
		c0,0-0.1,0-0.1,0l-0.4-0.1c-0.1,0-0.1,0-0.2,0c-0.1,0-0.2,0-0.2,0c-0.1,0-0.1,0-0.2,0c-0.1,0-0.2,0-0.3,0l-0.4,0c0,0-0.1,0-0.2,0
		c-0.3,0-0.5-0.1-0.5-0.4c0-0.3,0.1-0.4,0.4-0.4c0.1,0,0.2,0,0.2,0h0.1c0.2,0,0.2-0.1,0.2-0.4v-3.1c0-0.1,0-0.2-0.1-0.3
		c0,0,0,0,0-0.1c0,0-0.1-0.1-0.2-0.1c-0.1,0-0.2,0-0.1,0c-0.1,0-0.2,0-0.2,0c-0.3,0-0.4-0.1-0.4-0.4c0-0.3,0.2-0.4,0.5-0.4h0.1
		l0.4,0.1c0,0,0.1,0,0.2,0c0.1,0,0.1,0,0.2,0c0,0,0.2,0,0.5-0.1h0.6c0.1,0,0.3,0,0.5,0C202.9,161.5,203.5,161.9,203.5,162.9z
		 M200.6,162.6v1.1c0,0,0,0,0.1,0h0.7c0.8,0,1.2-0.3,1.2-0.8c0-0.5-0.3-0.7-1-0.7C200.9,162.3,200.6,162.4,200.6,162.6z"/>
</g>
</svg>
