<?xml version="1.0" standalone="no"?>
<!DOCTYPE svg PUBLIC "-//W3C//DTD SVG 1.1//EN" "http://www.w3.org/Graphics/SVG/1.1/DTD/svg11.dtd" >
<svg xmlns="http://www.w3.org/2000/svg">
<metadata></metadata>
<defs>
<font id="poppl-laudatioroman" horiz-adv-x="1236" >
<font-face units-per-em="2048" ascent="1638" descent="-410" />
<missing-glyph horiz-adv-x="598" />
<glyph horiz-adv-x="0" />
<glyph horiz-adv-x="682" />
<glyph unicode=" "  horiz-adv-x="598" />
<glyph unicode="&#x09;" horiz-adv-x="598" />
<glyph unicode="&#xa0;" horiz-adv-x="598" />
<glyph unicode="!" horiz-adv-x="555" d="M168 1444q14 -86 24.5 -207t16.5 -258q6 -104 7 -227t1 -400q41 4 60.5 4h44.5q53 0 84 -4q-4 141 -4.5 186.5t-0.5 114.5q0 31 1 141.5t4.5 226.5t8.5 250t11 216q-41 -27 -81 -35t-144 -10zM197 119q0 -53 34.5 -91t85.5 -38q49 0 85 38t36 91t-34.5 92t-86.5 39 q-51 0 -85.5 -39t-34.5 -92z" />
<glyph unicode="&#x22;" horiz-adv-x="811" d="M106 1427q0 -18 3 -36l79 -502h48l83 526v10l3 9q0 25 -11 45q-27 55 -94 55q-43 0 -77 -27.5t-34 -79.5zM489 1427q0 -18 3 -36l79 -502h47l84 526v10l3 9q0 25 -11 45q-27 55 -92 55q-45 0 -79 -27.5t-34 -79.5z" />
<glyph unicode="#" horiz-adv-x="1366" d="M84 469h287l-72 -469h166l67 469h228l-68 -469h162l68 469h307v158h-285l33 221h303v158h-283l62 438h-160l-65 -438h-226l64 438h-164l-64 -438h-309v-158h289l-33 -221h-307v-158zM553 627l35 221h225l-31 -221h-229z" />
<glyph unicode="$" horiz-adv-x="1067" d="M45 35q88 -27 169 -40t247 -13q0 -47 -2 -83t-10 -87q8 0 24 2q41 4 59 4q43 0 82 -6q-8 55 -11 99t-3 85q59 10 116.5 33.5t117.5 76.5q59 53 96 132t37 184q0 59 -18.5 117.5t-69.5 111.5q-37 39 -83 64.5t-167 79.5q-16 6 -33 14v520q119 0 192.5 -36t137.5 -105 q4 100 8 142t18 95q-143 41 -348 45q0 72 10 132h-6q-53 -4 -76 -5q-25 0 -77 5h-6q10 -53 12 -82t2 -56q-96 -20 -154.5 -45.5t-115.5 -89.5q-49 -53 -77 -122.5t-28 -147.5q0 -72 27.5 -143.5t97.5 -133.5q41 -35 96.5 -64.5t155.5 -74.5v-508q-84 0 -140.5 6t-95.5 22.5 t-69.5 43t-61.5 72.5q-8 -84 -17 -125t-36 -119zM311 1098q0 92 64 155q39 37 92 54v-441l-4 2q-63 43 -107.5 94.5t-44.5 135.5zM600 164v416q76 -41 115 -84t39 -121q0 -45 -16.5 -82t-41 -61.5t-47 -39t-49.5 -28.5z" />
<glyph unicode="%" horiz-adv-x="1878" d="M74 999q0 -70 9 -143.5t42 -149t101.5 -127t179.5 -51.5q31 0 62.5 4.5t68 19.5t73.5 47t66 83q37 66 49 153t12 189q0 84 -12 157.5t-49 137.5q-49 86 -117.5 115.5t-140.5 29.5q-117 0 -189.5 -52t-105.5 -128t-41 -145.5t-8 -139.5zM231 1006q0 145 19.5 212.5 t54.5 100.5q48 43 105 43q51 0 83.5 -26.5t52 -74t27 -107.5t7.5 -138q0 -150 -15.5 -224.5t-52.5 -113.5q-45 -45 -106 -45q-96 0 -135.5 93t-39.5 280zM502 -12q14 2 22 4q43 6 64 6q33 0 78 -10q12 37 23 64.5t20.5 51t24 55t42.5 95.5l471 971q29 55 62.5 118.5 t64.5 116.5q-2 0 -20 -4q-39 -6 -58 -6q-16 0 -53 6q-10 2 -22 4q-20 -49 -32.5 -78.5t-18 -42t-18.5 -41t-34 -69.5l-4 -8l-473 -971q-4 -10 -27 -49l-39 -76zM1143 459q0 -70 9 -143.5t42 -149.5t101.5 -127t181.5 -51q117 0 187.5 53t101 132t37.5 153.5t7 156.5t-12 156 t-49 137q-51 88 -119.5 117t-140.5 29q-117 0 -189.5 -51.5t-105.5 -127t-42 -145.5t-9 -139zM1300 465q0 147 19.5 213.5t56.5 99.5q44 43 105 43q51 0 86 -28.5t52 -78.5t24.5 -109.5t7.5 -129.5q0 -150 -15.5 -224.5t-52.5 -113.5q-49 -45 -108 -45q-96 0 -135.5 93.5 t-39.5 279.5z" />
<glyph unicode="&#x26;" horiz-adv-x="1366" d="M78 377q0 -72 19.5 -127t50 -94t64.5 -63.5t73 -43.5q84 -39 189.5 -54t189.5 -15q150 0 250 20t202 53q8 2 12 4q-12 47 -19 128t-7 247v234q154 0 196 -2q23 -2 34 -5.5t20 -9.5q-4 29 -4 88q0 37 4 107q-39 -16 -81 -20.5t-169 -4.5v125q2 117 8 195t29 151 q-43 -29 -91.5 -43t-150.5 -24q2 74 5 108.5t16 102.5q-68 14 -137.5 24t-147.5 10q-96 0 -184.5 -23.5t-158 -72.5t-110.5 -122.5t-41 -170.5q0 -86 34 -146.5t84 -96t95 -52t103 -30.5l4 -2q-74 -12 -139.5 -33t-122.5 -68t-88 -120.5t-31 -153.5zM303 393q0 90 51.5 159 t149.5 97q70 18 172 19h231v-187q0 -121 -2 -182t-10 -152v-10l-12 -2q-80 -10 -118 -14t-89 -4q-115 0 -202 30.5t-134 106.5q-37 57 -37 139zM352 1075q0 37 12.5 76t42 72.5t85 55t135.5 21.5q76 0 128 -9t80.5 -23.5t41 -26.5t16.5 -22q6 -49 8 -84t4 -107q2 -33 2 -43 v-164h-104h-10q-143 2 -217 12.5t-130 49.5q-45 33 -69.5 83t-24.5 109z" />
<glyph unicode="'" horiz-adv-x="425" d="M106 1427q0 -18 3 -36l79 -502h48l83 526v10l3 9q0 25 -11 45q-27 55 -92 55q-45 0 -79 -27.5t-34 -79.5z" />
<glyph unicode="(" horiz-adv-x="512" d="M94 637q0 -96 13.5 -195.5t33 -183.5t41 -152.5t39.5 -115.5q37 -88 80 -159t107 -163h100v2q-41 98 -69.5 177t-60.5 201t-52.5 275.5t-20.5 327.5q0 172 22.5 325.5t55.5 276.5t64.5 208t62.5 157h-100q-84 -111 -149.5 -230.5t-113.5 -304.5q-27 -106 -40 -222 t-13 -224z" />
<glyph unicode=")" horiz-adv-x="512" d="M0 1618q35 -80 64.5 -161t62.5 -202.5t55.5 -276.5t22.5 -327q0 -174 -20.5 -328.5t-51.5 -274.5t-61.5 -203t-69.5 -175v-2h100q63 92 106.5 163t80.5 159q18 47 39.5 115.5t41 152.5t33 183.5t13.5 195.5q0 182 -34 356t-103 332q-37 86 -74 144.5t-99 140.5l-6 8h-100 z" />
<glyph unicode="*" horiz-adv-x="768" d="M72 1274q51 -16 78.5 -26.5t54 -22t44 -18.5t70.5 -31q-51 -27 -70.5 -37.5t-47 -22.5t-41 -17t-84.5 -36q31 -39 44 -58.5t34 -60.5q23 23 47 46.5t45.5 42t43 34.5t56.5 43q-4 -82 -9 -119t-24 -110q18 2 31 2q35 4 49 4q27 0 72 -4q-14 74 -19.5 114.5t-9.5 112.5 q29 -18 52.5 -35.5t40 -30t35 -28t59.5 -51.5l2 4q23 41 34 60.5t37 53.5q-47 18 -84 34t-88 38l-51 23q37 23 59.5 35t43 21t45 19.5t67.5 24.5q-29 33 -43 54.5t-37 66.5q-27 -27 -46 -47.5t-36.5 -34.5t-39 -31.5t-52.5 -40.5q4 63 9.5 97t15.5 94q4 14 6 30h-4 q-41 -4 -62 -4q-16 0 -51 4l-24 2q10 -76 13 -112.5t7 -110.5q-41 27 -60.5 39t-39 27.5t-38 32t-56.5 55.5q-23 -45 -35.5 -65.5t-42.5 -59.5z" />
<glyph unicode="+" horiz-adv-x="1366" d="M88 514h510v-514h164v514h514v164h-514v510h-164v-510h-510v-164z" />
<glyph unicode="," horiz-adv-x="468" d="M23 -248q25 -12 38 -22.5t35 -30.5q66 76 114 143.5t85 153.5q35 80 48 138.5t19 121.5q-66 -18 -100.5 -24.5t-107.5 -10.5q0 -4 2 -20q8 -51 8 -90q0 -121 -42 -207t-99 -152z" />
<glyph unicode="-" horiz-adv-x="598" d="M55 618q133 10 242 11q106 0 244 -11q-6 53 -6 101q0 41 6 98q-137 -10 -248 -10q-109 0 -238 10q6 -57 6 -100q0 -49 -6 -99z" />
<glyph unicode="." horiz-adv-x="468" d="M113 119q0 -53 34.5 -91t85.5 -38t87 38t36 91q0 55 -36.5 93t-86.5 38q-49 0 -84.5 -39t-35.5 -92z" />
<glyph unicode="/" horiz-adv-x="854" d="M12 -8q23 2 35 2q39 4 59 4t64 -4l31 -2q2 45 12 83t49 128l55 129l347 790q37 84 54 120t33.5 67.5t35 62.5t55.5 86q-61 -8 -92 -8t-84 8h-7v-6q-8 -37 -14 -62.5t-17.5 -59.5t-33 -88t-49.5 -120l-346 -792q-45 -96 -90.5 -182.5t-96.5 -155.5z" />
<glyph unicode="0" d="M90 727q0 -129 20.5 -254t63.5 -217q47 -96 110.5 -154.5t129 -84t115 -31.5t94.5 -6q176 0 285.5 81.5t159.5 205.5t63.5 244t13.5 245q0 145 -21.5 272t-91.5 234q-45 70 -98 111.5t-106.5 63t-100.5 27.5t-96 6q-35 0 -76 -4t-93 -19t-108.5 -48t-103.5 -86 q-45 -51 -76 -122t-49.5 -152t-26.5 -159.5t-8 -152.5zM322 748q0 127 14 230t48 183t92.5 125t146.5 45q92 0 150 -46t89 -130t41 -191.5t10 -248.5q0 -143 -14 -251t-47 -184.5t-91.5 -117.5t-142.5 -41q-70 0 -118.5 27.5t-76.5 68.5t-41 80t-24 82l-2 4q-35 158 -34 365 z" />
<glyph unicode="1" d="M188 1157q98 39 162 59.5t168 47.5q4 -115 6 -244t2 -252q0 -10 -1 -63.5t-3 -192.5t-4 -233.5t-4 -116.5q-4 -78 -14.5 -108.5t-32.5 -63.5q106 16 162 16q68 0 155 -16l-2 4q-12 20 -19 35.5t-13 48.5q-8 47 -11.5 129t-3.5 155v685v20q2 205 4 268q0 41 2 81t7 77 l-11 -6q-78 -43 -134 -67.5t-169 -57.5q-12 -6 -94 -27.5t-152 -34.5q6 -16 7 -53q0 -43 -7 -90z" />
<glyph unicode="2" d="M104 -8q80 8 169 12t266 4q203 0 314.5 -4t231.5 -12q-10 82 -10 149q0 66 10 152q-49 -47 -81.5 -61.5t-118.5 -14.5h-568q16 12 35 23q68 47 105 73q31 23 70.5 54.5t88 71.5t93.5 81t75 72q86 86 138.5 165t76 139t29.5 100t6 79q0 109 -43 183.5t-98 115.5 q-43 33 -93 52.5t-102.5 29.5t-94.5 12t-85 2q-98 0 -197.5 -16t-187.5 -51q0 -4 2 -6q10 -68 10 -103q0 -39 -12 -116q74 57 167 80.5t192 23.5q63 0 125.5 -15.5t115.5 -64.5q39 -37 61.5 -89t22.5 -105q0 -37 -10 -77t-42 -99.5t-99.5 -139.5t-173.5 -180 q-121 -113 -213.5 -180.5t-174.5 -114.5q10 -55 11 -98q0 -33 -6 -99q-2 -10 -5 -28z" />
<glyph unicode="3" d="M127 33q90 -25 180 -39t201 -14q78 0 152.5 10t142.5 37q137 53 208.5 153.5t71.5 225.5q0 37 -9 81.5t-36.5 93t-84 90.5t-144.5 60q-47 10 -93 14.5t-126 6.5q8 2 43 6q35 6 41 6q106 18 176 55t117 105q29 41 40 90t11 96q0 76 -25.5 135.5t-62.5 95.5 q-37 39 -90.5 64t-111.5 38t-113.5 17t-108.5 4q-90 0 -155.5 -9t-133.5 -23l-16 -5q-2 -72 -5 -107.5t-20 -113.5q66 45 127.5 69.5t155.5 24.5q45 0 104.5 -9t106.5 -34q70 -35 93 -85t23 -107q0 -55 -22.5 -101t-79.5 -85q-68 -45 -145.5 -57.5t-157.5 -12.5 q-43 0 -64.5 1t-56.5 3q-2 -55 -5 -83t-17 -85q49 12 90 18.5t106 6.5q63 0 128 -7.5t131.5 -32t111.5 -78.5t45 -142q0 -72 -35 -132.5t-88 -93.5q-47 -29 -115.5 -41t-124.5 -12q-133 0 -206.5 34t-118.5 77q-4 -72 -10.5 -106t-24.5 -103z" />
<glyph unicode="4" d="M76 324h645v-115q-2 -96 -10.5 -137t-28.5 -80q98 12 149 12t154 -12q-14 20 -21.5 35.5t-11.5 46.5t-7 77t-3 80v97h41q109 0 147 -13q-6 55 -6 103q0 25 4 71q2 25 2 37q-23 -16 -50 -20t-101 -4h-39v624q0 78 1 128.5t3 101.5q2 45 12 102l2 12q-127 -25 -190 -24 q-31 0 -80 4q-12 2 -39 6q-12 0 -22 2q-4 -10 -13.5 -25.5t-25.5 -41.5q-37 -59 -82 -134t-105 -178q-49 -84 -72.5 -124t-80.5 -140q-25 -43 -39 -70q-53 -92 -79 -141t-50 -102q-2 -2 -4 -6q2 -16 2 -29q4 -31 4 -53q0 -20 -4 -64q-2 -18 -2 -26zM268 504q59 125 97 192 q45 82 103 187.5t108.5 194.5t90.5 159l56 98v-831h-455z" />
<glyph unicode="5" d="M143 39q76 -25 155 -41t187 -16q121 0 211 20.5t147.5 50t87.5 56t54 55.5q59 72 82 149.5t23 151.5t-23 147.5t-90 137.5q-78 74 -173 97t-202 23q-90 0 -140 -10t-95 -29l-5 -2l13 398q209 -16 393 -17q145 0 208.5 20.5t88.5 67.5q16 29 21.5 72t5.5 109 q-45 -14 -73 -22.5t-71 -13.5t-109.5 -8t-164.5 -3q-113 0 -187.5 2t-121.5 6q-55 4 -123 16q-20 4 -25 4q4 -61 6 -111.5t2 -142.5q0 -117 -7 -260t-30 -309q88 45 159 64.5t171 19.5q78 0 147.5 -17.5t122.5 -78.5q61 -76 62 -189q0 -63 -19.5 -119.5t-54.5 -95.5 q-51 -59 -114.5 -77.5t-131.5 -18.5q-80 0 -156.5 22.5t-183.5 98.5q-8 -72 -16 -107t-31 -100z" />
<glyph unicode="6" d="M115 635q0 -102 12 -191.5t53 -181.5q63 -145 180 -211.5t295 -66.5q49 0 97.5 5t100.5 21.5t102.5 50t91.5 86.5q57 76 76.5 165t19.5 171q0 125 -32 217.5t-103 151.5q-47 43 -123 70.5t-176 27.5q-76 0 -132.5 -18.5t-109.5 -59.5q-45 -33 -66.5 -63.5t-48.5 -83.5 q4 166 24.5 271.5t65.5 174.5q35 53 78 85t85 46.5t76 17.5t69 3q70 0 120 -11.5t81.5 -29.5t50 -36.5t36.5 -43.5q18 68 32.5 100.5t51.5 88.5l-2 2q-63 33 -140 54t-220 21q-43 0 -89 -4t-107.5 -19t-127 -49t-123.5 -89q-109 -106 -153.5 -269.5t-44.5 -402.5zM371 465 q0 102 27.5 171t71.5 105.5t92 51t91 14.5q125 0 192.5 -90t67.5 -250q0 -74 -13 -136.5t-43 -111.5t-82 -76.5t-128 -27.5q-117 0 -179 61.5t-85 161.5q-12 63 -12 127z" />
<glyph unicode="7" d="M127 1468q0 -4 2 -6q6 -53 9 -88t3 -86q0 -31 -2 -54.5t-6 -55.5q-2 -8 -2 -13q27 37 57.5 52.5t114.5 23.5q35 4 85 6t86 4t97.5 3t98.5 1q53 0 155 -2l49 -2l-354 -678q-139 -264 -334 -585q41 12 78 18t82 6q74 0 148 -24l4 12q10 51 20 83t27 75q84 227 225 520 q61 131 109.5 231.5t87.5 176t77.5 147.5t120.5 223q-117 -6 -155.5 -7t-66.5 -2t-116 -3h-389q-115 2 -175 7t-136 17z" />
<glyph unicode="8" d="M111 395q0 -111 38.5 -189.5t108.5 -127.5t163 -71.5t206 -22.5q104 0 192 22.5t158 71.5t108.5 130t38.5 193q0 90 -28.5 158t-75.5 111t-106.5 65.5t-122.5 28.5q139 14 214.5 103t75.5 231q0 127 -51 203.5t-126 112.5t-145 45t-138 9q-94 0 -176.5 -17t-148 -58 t-103 -113t-37.5 -176q0 -143 70.5 -227t222.5 -111q-160 -8 -249 -108.5t-89 -262.5zM344 385q0 147 66.5 225t205.5 78q141 0 206 -80t65 -223q0 -127 -68.5 -207t-193.5 -80q-135 0 -208 76t-73 211zM383 1106q0 129 62 189.5t171 60.5q121 0 177.5 -61.5t56.5 -178.5 q0 -143 -57.5 -210.5t-169.5 -67.5q-84 0 -134.5 29.5t-73 72.5t-27.5 83t-5 83z" />
<glyph unicode="9" d="M90 61l6 -2q96 -37 177 -56t210 -19q53 0 107.5 5t128.5 29.5t147.5 76.5t132.5 141q29 41 50.5 87t39 111.5t27.5 157.5t10 213q0 137 -17 247.5t-72.5 205t-168.5 150.5t-293 56q-127 0 -219 -47t-149 -123.5t-83 -169t-26 -186.5q0 -86 22.5 -165t74 -145.5 t136.5 -105.5t201 -39q98 0 154.5 22.5t95.5 55.5q47 39 72 77t45 87q-4 -131 -18.5 -229.5t-55.5 -180.5t-118.5 -130t-202.5 -48q-63 0 -133 14.5t-117 45.5q-33 25 -70 73q-10 -37 -19 -63.5t-20 -46.5q-16 -35 -55 -99zM330 969q0 47 6 98t33.5 112.5t88 104.5t160.5 43 q92 0 148.5 -37t81 -90t31 -101t6.5 -95q0 -51 -6.5 -104.5t-32 -114t-85 -102.5t-155.5 -42t-154.5 39t-84 95t-31.5 103.5t-6 90.5z" />
<glyph unicode=":" horiz-adv-x="555" d="M195 1001q0 -53 34.5 -91t85.5 -38t87 38t36 91q0 55 -36.5 93.5t-86.5 38.5q-49 0 -84.5 -39t-35.5 -93zM197 119q0 -53 34.5 -91t85.5 -38t87 38t36 91q0 55 -36.5 93t-86.5 38q-49 0 -84.5 -39t-35.5 -92z" />
<glyph unicode=";" horiz-adv-x="555" d="M104 -246q25 -12 38.5 -22.5t35.5 -30.5q66 76 114 143.5t85 153.5q35 80 48 138.5t19 121.5q-66 -18 -100.5 -24.5t-107.5 -10.5q0 -4 2 -20q8 -51 8 -90q0 -121 -42 -207t-100 -152zM195 1001q0 -53 34.5 -91t85.5 -38t87 38t36 91q0 55 -36.5 93.5t-86.5 38.5 q-49 0 -84.5 -39t-35.5 -93z" />
<glyph unicode="&#x3c;" horiz-adv-x="1366" d="M0 635l1366 -641v176l-1161 553l1161 551v178l-1366 -641v-176z" />
<glyph unicode="=" horiz-adv-x="1366" d="M0 332h1366v160h-1366v-160zM0 700h1366v160h-1366v-160z" />
<glyph unicode="&#x3e;" horiz-adv-x="1366" d="M0 -6l1366 641v176l-1366 641v-178l1159 -551l-1159 -553v-176z" />
<glyph unicode="?" horiz-adv-x="980" d="M172 1425q35 -104 39 -219q41 43 94 74t144 31q47 0 94 -15.5t84 -52.5t54 -90t17 -139q0 -59 -12 -116.5t-51 -109.5q-39 -51 -90 -70.5t-137 -19.5q-43 0 -84 8.5t-62 22.5q8 -90 8 -188q0 -68 -2 -109t-8 -88q74 8 109 8q59 0 102 -8v53q-2 100 -2 174q29 -2 63 -2 q176 0 276.5 120t100.5 335q0 94 -21.5 174t-70.5 139q-37 45 -86 73t-97 41t-87 16t-76 3q-78 0 -152.5 -12t-146.5 -33zM246 123q0 -55 36 -94t87 -39t88 40t37 93t-37 93t-88 40t-87 -40t-36 -93z" />
<glyph unicode="@" horiz-adv-x="1835" d="M141 479q0 -190 70 -331.5t186.5 -230.5t255 -130t275.5 -41q152 0 297 46t274 134q82 53 170 137q4 4 10 11l-67 84q-139 -135 -312.5 -217t-373.5 -82q-123 0 -241 34.5t-214 109.5t-154.5 194.5t-58.5 283.5q0 170 63.5 328t176 279.5t262 190.5t313.5 69 q100 0 189.5 -28t160 -87t111.5 -151.5t41 -217.5q0 -115 -31 -223.5t-79 -192t-102 -133t-97 -49.5q-33 0 -48.5 24.5t-15.5 67.5q0 37 7.5 84t21.5 121l4 23l14 61l13 62l65 307h-139l-31 -127v2q-23 51 -52.5 89t-88.5 62q-45 18 -94 19q-84 0 -163 -48t-139.5 -131 t-95.5 -188.5t-35 -216.5q0 -68 15.5 -126t50.5 -105q76 -100 203 -101q109 0 198 74q51 41 95 100v-2q2 -49 17 -88t67 -65q35 -20 86 -21q88 0 174 59.5t153.5 163t106.5 235.5t39 269q0 131 -42 240t-122 187.5t-192.5 120.5t-252.5 42q-201 0 -374.5 -78.5t-301.5 -217 t-198 -316.5t-70 -369zM651 485q0 74 20.5 153t58.5 144.5t91 106.5t115 41q72 0 122 -55.5t50 -155.5q0 -23 -4 -62t-15.5 -84t-34 -95t-55.5 -93q-39 -49 -88 -79t-96 -30q-82 0 -129 68q-14 23 -24.5 56.5t-10.5 84.5z" />
<glyph unicode="A" horiz-adv-x="1366" d="M0 -10q94 12 143 12t144 -12q-2 20 -2 39q0 20 8 53q4 20 17.5 68.5t23.5 89.5l4 14l51 174h6q188 12 279 12q133 0 264 -12l61 -201q20 -70 30.5 -113.5t10.5 -70.5q0 -14 -4 -39l-2 -12q94 14 162 14q72 0 168 -14q-29 31 -50.5 66.5t-53.5 129.5q-14 41 -50 142 q-33 98 -49 139l-184 555q-25 74 -41 126t-29.5 101t-25 94.5t-23.5 108.5q-106 -12 -166 -12q-57 0 -172 12q-4 -33 -9 -57.5t-15.5 -61.5t-26.5 -87t-41 -122l-229 -680q-41 -117 -63.5 -179t-42 -107t-41 -83t-52.5 -87zM440 598l242 735q12 -53 18 -82q20 -88 35 -141 t43 -152l2 -8l109 -352q-147 -8 -223 -8q-78 0 -226 8z" />
<glyph unicode="B" d="M113 -8q82 4 135 6t92 2q68 0 166 -4t166 -4q147 0 245.5 43t150.5 109.5t70.5 135t18.5 130.5q0 49 -13.5 105t-53.5 108q-35 41 -80 67.5t-94.5 39.5t-91.5 19.5t-99 10.5h-2q104 12 174 35.5t131 85.5q49 53 68.5 108t19.5 117q0 63 -19.5 124.5t-74.5 117.5 q-68 66 -151 86t-199 20l-183 -4q-137 -4 -208 -4q-47 0 -82 3t-80 7q18 -47 28.5 -99t15.5 -122t6 -153t1 -244v-287q0 -238 -13.5 -382t-43.5 -177zM381 289v387l102 2q66 2 92 2q61 0 115.5 -7t109 -34t90.5 -85t36 -153q0 -131 -93.5 -206.5t-246.5 -75.5q-25 0 -55.5 2 t-49.5 6q-70 16 -85 48t-15 114zM381 838v215q0 201 6 266q57 4 100 6t88 2q72 0 126.5 -10t97.5 -36t66.5 -73t23.5 -118q0 -63 -22.5 -121t-96.5 -99q-39 -20 -93 -31.5t-91 -11.5q-45 0 -94.5 2t-110.5 9z" />
<glyph unicode="C" d="M84 713q0 -152 47 -290t148 -243q70 -70 151.5 -110.5t162.5 -60t137 -23.5t110 -4q109 0 184.5 10t144.5 24q10 68 19.5 106t30.5 107l-2 -2q-59 -47 -135 -78.5t-205 -31.5q-113 0 -214.5 38t-175.5 115q-76 82 -117.5 207t-41.5 264q0 123 31.5 239t95.5 191 q61 74 161.5 120t217.5 46q61 0 117.5 -12t95.5 -35q33 -18 52 -37.5t46 -54.5l4 -6q12 72 24.5 107.5t45.5 105.5q-106 41 -190.5 51t-194.5 10q-369 0 -559.5 -193t-190.5 -560z" />
<glyph unicode="D" horiz-adv-x="1492" d="M109 -6q14 0 51 2q72 6 129 6q37 0 117 -4q113 -4 184 -4q82 0 157.5 6t155.5 25.5t158 58.5t139 100q104 104 153.5 251t49.5 313q0 90 -14.5 191t-47.5 185q-43 109 -115.5 176.5t-159.5 101.5t-171 44t-178 10q-76 0 -205 -10q-109 -8 -174 -8q-53 0 -125 7t-96 11 q18 -57 26.5 -93t14.5 -97.5t9 -164t3 -288.5v-248q0 -14 -2 -84q-2 -96 -4 -174q-2 -90 -8 -148.5t-14.5 -91t-15.5 -47t-17 -26.5zM379 274v576q0 98 3 232.5t7 213.5q29 4 31 4q57 6 112.5 11.5t108.5 5.5q78 0 147 -14q51 -12 101.5 -34t93.5 -55q55 -45 92 -101 t55.5 -118.5t24.5 -124t6 -127.5t-6 -133t-28.5 -142t-68.5 -143.5t-120 -113.5q-41 -25 -90 -40t-97.5 -23.5t-89 -11.5t-71.5 -3q-74 0 -118 11.5t-63.5 30t-23.5 40t-6 59.5z" />
<glyph unicode="E" horiz-adv-x="1067" d="M115 -10q76 8 154.5 10t254.5 2q117 0 200 -2t177 -8q49 -2 66 -2q6 43 10 71.5t10 51.5q10 43 41 129q-53 -41 -103.5 -63.5t-152.5 -33.5q-63 -8 -137 -8q-96 0 -142.5 5t-70 22.5t-30.5 51.5t-9 103v369q29 0 100 2h74q115 0 207 -8q51 -6 77.5 -15.5t67.5 -35.5 q-6 35 -9 62.5t-3 64.5q0 43 3 72.5t9 70.5l-2 -2q-27 -20 -42 -30.5t-44 -16.5q-35 -8 -85 -11t-99 -3q-76 0 -131 3t-123 7v223q0 111 6 234q63 4 109.5 5t99.5 1q90 0 146.5 -4t90 -14.5t56 -27t51.5 -48.5q-6 55 -6 102q0 29 4 86q2 33 2 53q-133 -6 -256 -9t-223 -3 q-139 0 -212 3t-122 9h-4q16 -51 24.5 -89t13.5 -83t6 -98t3 -166v-16v-517q0 -119 -4 -213t-18 -170q-6 -33 -13.5 -58t-21.5 -58z" />
<glyph unicode="F" horiz-adv-x="980" d="M119 -8q88 10 162 10q68 0 153 -10l-2 4q-12 25 -17 41t-12 43q-6 35 -11 78t-7 106.5t-3 161.5t-1 262q74 4 109.5 4h76.5q45 0 92.5 -1t83.5 -5q74 -6 107 -17.5t70 -33.5q-12 86 -13 137q0 41 11 107l2 20q-4 -4 -17 -12q-25 -18 -57.5 -29.5t-112.5 -15.5 q-55 -4 -106 -4q-12 0 -33 2h-27q-23 2 -61 2q-72 2 -125 4v194q0 82 1 129.5t5 135.5q23 2 70 4q51 4 75 4q10 0 58 2h57q63 0 119.5 -6t91.5 -15q39 -10 60.5 -24.5t46.5 -38.5l6 -6q-12 66 -13 125q0 27 3.5 48t9.5 60h-6q-299 -12 -428 -12q-82 0 -185.5 3t-183.5 7 q-18 2 -43 2q14 -33 21.5 -60.5t13.5 -86t9 -160.5t3 -270v-379v-6q-4 -217 -12 -319.5t-41 -184.5z" />
<glyph unicode="G" horiz-adv-x="1409" d="M82 715q0 -168 51 -305.5t144.5 -232.5t222.5 -145t284 -50q55 0 153.5 8t170.5 22q61 12 87 15.5t75 9.5q2 2 26 4q-16 66 -21 107.5t-5 127.5q0 72 2 121t4 97q4 49 13 74.5t36 62.5q-115 -12 -170 -13q-55 0 -158 13q23 -25 33 -40.5t16.5 -42t8.5 -70.5t2 -134 q0 -53 -2 -145q-2 -39 -2 -56q-106 -30 -193 -30h-6q-109 0 -211 43t-168 114q-68 72 -109.5 191t-41.5 280q0 117 33.5 223.5t100 189.5t169 131t233.5 48q55 0 119.5 -16.5t124.5 -52.5q43 -27 66.5 -52.5t50.5 -64.5q6 76 17 117t50 122q-90 37 -184 58.5t-236 21.5 q-201 0 -351 -58t-246.5 -160.5t-142.5 -238.5t-46 -294z" />
<glyph unicode="H" horiz-adv-x="1449" d="M113 -8q111 12 163 12q59 0 162 -12q-14 31 -23 56.5t-15.5 74.5t-11.5 136t-5 233v192q195 10 350 10q137 0 338 -10v-195q-6 -217 -16.5 -319t-38.5 -178q106 12 162 12q51 0 151 -12h6q-18 35 -28.5 72.5t-16.5 117.5q-6 92 -8 202t-2 300v166q4 158 10 273.5 t17 195.5q4 41 11 67.5t17 61.5q0 2 2 8l-16 -2q-92 -10 -139 -10q-53 0 -160 12q18 -49 28.5 -97t16.5 -157q2 -47 4 -153q2 -53 2 -76v-121q-31 0 -57 -2q-197 -6 -285 -6q-119 0 -342 8h-6v102q0 94 3 196.5t13 172.5q6 45 15.5 71.5t23.5 57.5l2 4q-102 -12 -159 -12 q-53 0 -160 12q14 -31 23.5 -69.5t17.5 -124.5q8 -111 12 -412v-166q0 -150 -2 -255t-10 -224q-6 -88 -15.5 -127t-33.5 -86z" />
<glyph unicode="I" horiz-adv-x="555" d="M117 -8q94 14 159 14q68 0 160 -14q-27 57 -36 101t-13 153q-4 137 -6 256t-2 254v153q2 166 5 245t8 132t15.5 90t30.5 82q-106 -12 -159 -12t-160 12q14 -33 22.5 -60.5t14.5 -84.5q4 -25 6 -47.5t4 -68.5t3 -106.5t5 -183.5v-153q0 -156 -2 -270.5t-8 -237.5 q-6 -113 -16.5 -161t-30.5 -93z" />
<glyph unicode="J" horiz-adv-x="768" d="M0 0v-2l23 -2q43 -6 72.5 -9t74.5 -3q84 0 170 18t156 74q72 57 91 118.5t21 147.5l2 133v537q2 137 4 204.5t9 114.5q6 43 12 67.5t20 57.5q-98 -12 -155 -12q-20 0 -56 3t-65 5q-25 4 -39 4q29 -47 37 -82q6 -25 9 -60.5t7 -101.5q4 -90 5 -143t3 -135v-352v-11 q-2 -164 -11 -234.5t-50 -115.5q-33 -37 -73 -49t-85 -12q-53 0 -81.5 11t-55.5 32q-8 -66 -16.5 -98.5t-28.5 -104.5z" />
<glyph unicode="K" horiz-adv-x="1280" d="M119 -6q102 12 155 12t158 -12h6q-25 57 -36 105t-15 137q-4 72 -6 126t-2 103l160 182q45 -51 80.5 -93t57 -68.5t39 -50t66.5 -91.5q2 -2 27 -37q4 -6 6 -8q41 -57 61.5 -87t41 -60.5t44 -69.5t54.5 -92q88 16 170 16q61 0 180 -16q-55 49 -91 88t-108 123 q-29 35 -64.5 78t-61 74.5t-167.5 211.5l-30 39l-162 213l186 209q109 121 190 204t130 127t78.5 63.5t56.5 33.5q-119 -10 -211 -10t-201 10q-2 -35 -10 -63.5t-33 -69.5q-29 -49 -73.5 -108.5t-141.5 -174.5l-272 -321v268q4 127 7 186.5t8 107.5t14.5 89t27.5 88 q-102 -12 -157 -12q-49 0 -131 10q-16 2 -29 2q20 -45 28.5 -85t14.5 -138q6 -63 7 -139t1 -226v-417v-27q-6 -254 -22 -330q-8 -39 -27 -90q-2 -6 -4 -10z" />
<glyph unicode="L" horiz-adv-x="1024" d="M109 -6q59 4 104 6t76 2q76 2 264 2q176 0 250 -2q27 0 71 -2t101 -6q8 80 14 125t23 127q-27 -25 -51.5 -41.5t-62.5 -29.5t-97.5 -21.5t-147.5 -8.5q-80 0 -134 6.5t-120 18.5h-4q-6 94 -8 128t-4 100.5t-3 144.5t-1 174q0 213 6 354t15.5 216t18.5 107.5t21 59.5l2 4 q-102 -12 -161 -12q-37 0 -88.5 4t-69.5 8q18 -47 26.5 -87t14.5 -118q4 -74 6 -152.5t2 -168.5v-373q0 -131 -4 -223q-2 -72 -6 -125t-10 -88q-6 -41 -15.5 -65.5t-27.5 -63.5z" />
<glyph unicode="M" horiz-adv-x="1792" d="M82 -8q66 12 131 12q49 0 147 -12q-18 63 -24 111.5t-6 129.5q0 20 2 46v61q2 119 4 266q4 164 5 243t1 175q0 80 -3 138.5t-11 115.5q20 -63 39.5 -124.5t34 -102.5t31 -84t44.5 -117l309 -850h109l367 889q41 98 92 221q27 61 42 99t23 67q-8 -72 -11 -179.5t-3 -234.5 v-383q0 -233 -14.5 -339.5t-42.5 -147.5q96 14 165 14q66 0 162 -14q0 2 -2 6q-14 27 -22.5 51.5t-14.5 71.5q-10 76 -14 188.5t-4 321.5v194q2 205 2 312q0 70 3 118t9 78.5t14.5 56t24.5 68.5q-119 -14 -205 -14q-51 0 -82.5 3t-74.5 11q-18 -80 -35 -128t-57 -150 l-177 -416q-4 -12 -34 -82q-51 -117 -84 -202t-48 -152q-23 92 -46 164.5t-66 175.5l-152 417q-18 55 -32.5 96.5t-27.5 85.5t-24.5 88t-23.5 103l-17 -2q-125 -10 -180 -10q-66 0 -194 12h-7q14 -14 24.5 -30.5t22 -56.5t17.5 -113.5t6 -190.5l-4 -211q-4 -78 -4 -94 q-20 -479 -37 -584q-8 -59 -17.5 -96t-25.5 -80z" />
<glyph unicode="N" horiz-adv-x="1492" d="M78 1458q23 -27 34 -42t20 -41.5t15.5 -68.5t12.5 -114q6 -86 10 -215t4 -272q0 -160 -5 -303.5t-15 -229.5q-8 -70 -17.5 -107.5t-23.5 -74.5h6q92 16 139 16q45 0 139 -16q-31 82 -39 176t-8 233v265q0 225 -7 352t-21 241q12 -33 40.5 -80t96.5 -153q29 -47 84 -135 l348 -561q39 -59 70.5 -109.5t47 -77t36 -62.5t49.5 -87q61 12 116 12q43 0 121 -12h6q-22 141 -22 378v21q0 406 14 764q6 123 17.5 184.5t29.5 114.5q-94 -8 -135 -8q-104 0 -154 8q12 -25 21.5 -50.5t18 -76.5t13.5 -136t5 -214v-264q0 -147 1 -263t7 -190 q-10 35 -29.5 70t-70.5 114q-66 104 -103 164l-329 539l-5 10q-61 111 -74.5 136.5t-30.5 60.5t-26.5 54t-21.5 50q-51 -6 -104.5 -9t-100.5 -3q-78 0 -180 12z" />
<glyph unicode="O" horiz-adv-x="1536" d="M82 721q0 -55 5 -113.5t22.5 -135.5t58.5 -160t108 -150q102 -104 246 -150q111 -35 238 -35q145 0 277 45.5t235 159.5q59 66 96 143.5t54.5 153.5t22.5 136.5t5 117.5q0 158 -38 292t-126 235q-92 104 -228 155t-292 51t-284 -51t-216 -145q-61 -66 -100 -144.5 t-56.5 -156.5t-22.5 -136.5t-5 -111.5zM326 717q0 82 9 159.5t34.5 154.5t75 142.5t122.5 106.5q91 47 197 47q45 0 92 -9t95 -31.5t94.5 -64.5t80.5 -106q45 -84 62.5 -188.5t17.5 -204.5q0 -115 -19.5 -216t-64.5 -181q-51 -88 -127 -144q-99 -67 -225 -67h-4 q-113 0 -201 50t-141 130q-43 66 -70.5 168t-27.5 254z" />
<glyph unicode="P" horiz-adv-x="1150" d="M113 -6q111 8 168 8q55 0 161 -8l-4 4q-10 12 -18 32.5t-16.5 72t-14.5 148.5t-6 247v67l55 -2q72 -2 111 -2q135 0 244.5 28.5t189.5 102.5q70 66 102.5 158t32.5 197q0 135 -45 217t-119.5 121.5t-158.5 51t-193 11.5q-20 0 -121 -2q-94 -2 -108 -2q-66 0 -116 3 t-110 9l-30 2q10 -18 17 -42.5t16.5 -80t15.5 -143.5t6 -215v-455q0 -156 -6 -257t-16.5 -156.5t-18.5 -78t-16 -34.5zM383 707v225q2 113 4 188.5t6 149.5q2 16 2 33q39 4 71 6t73 2q57 0 109 -6.5t107.5 -33t93.5 -88t38 -161.5q0 -78 -25.5 -143.5t-81.5 -108.5 q-53 -43 -118.5 -56.5t-124.5 -13.5q-25 0 -84 5q-55 2 -70 2z" />
<glyph unicode="Q" horiz-adv-x="1536" d="M84 723q0 -53 4 -112.5t21.5 -135.5t54.5 -155.5t98 -145.5q72 -78 196 -137.5t302 -59.5q57 0 106 6.5t121 20.5l254 -254q90 12 139 12q82 0 224 -24q-43 20 -97.5 61t-104.5 87t-93 89t-70 72l-49 55q57 41 103 91.5t85 138.5q37 88 56.5 185t19.5 214q0 76 -8 156 t-43 180t-112 191.5t-201 146.5q-143 63 -312 63q-156 0 -288 -51t-216 -137q-33 -33 -64.5 -77t-60 -111.5t-47 -159.5t-18.5 -209zM330 727q0 117 20.5 227.5t83.5 200.5q57 86 150 133q82 39 182 39q111 0 211 -51t162 -170q35 -70 54 -176.5t19 -208.5q0 -92 -18 -200.5 t-66 -190.5q-57 -106 -151 -160.5t-211 -54.5q-59 0 -121.5 18.5t-121 60.5t-104.5 115.5t-69 179.5q-20 96 -20 238z" />
<glyph unicode="R" d="M113 -8q111 8 163 8q55 0 166 -8l-2 4q-14 29 -23 52.5t-16 64.5q-8 49 -11 111.5t-7 176.5v211l178 -4q23 -25 42.5 -49t42 -58t56 -88.5t76.5 -127.5q102 -178 152 -293l37 2q51 4 80.5 6t62.5 2q59 0 141 -10q-33 29 -59.5 58.5t-54 66.5t-59 87t-70.5 109l-209 330 q41 10 94 40t102 79t81 120.5t32 159.5q0 137 -46 222.5t-119 124t-149.5 49t-170.5 10.5q-61 0 -154 -2q-72 -2 -96 -2q-113 0 -156 3t-98 11q23 -51 37 -152.5t14 -289.5v-369q-2 -242 -5 -358.5t-11 -182.5q-6 -47 -15.5 -68.5t-23.5 -41.5zM381 754v239q0 102 2 159.5 t10 150.5l158 8q147 0 234 -63.5t87 -205.5q0 -53 -17 -109t-75 -108q-59 -51 -128.5 -64t-159.5 -13q-29 0 -53.5 2t-57.5 4z" />
<glyph unicode="S" horiz-adv-x="1024" d="M33 41q68 -25 108.5 -35t118.5 -18q68 -6 133 -6q158 0 264.5 39.5t167.5 99.5q61 57 93 135t32 166q0 78 -26.5 136t-72.5 100t-98.5 71t-138.5 68l-2 2l-98 45q-100 49 -154.5 99t-54.5 138q0 92 75 162t212 70q119 0 188.5 -40t120.5 -97q4 88 9 130t26 117 q-18 2 -35.5 5.5t-66.5 11.5q-20 4 -35 6q-53 10 -102.5 17t-90.5 7q-238 0 -384 -118.5t-146 -311.5q0 -72 21.5 -128t55 -95t68.5 -62.5t88 -54.5l170 -86h2q115 -55 174.5 -105t59.5 -138q0 -98 -80 -167t-234 -69q-72 0 -124 12.5t-86.5 33t-57 42t-49.5 53.5l-2 5 q-12 -102 -20.5 -141.5t-28.5 -98.5z" />
<glyph unicode="T" horiz-adv-x="1193" d="M2 1208q53 39 103.5 52.5t175.5 15.5h192q4 -45 7 -92t5 -124t3 -184.5t1 -242.5q0 -201 -6 -327t-15 -191.5t-17.5 -88t-18.5 -34.5l-2 -2h6q109 12 164 12q80 0 156 -12q-14 27 -22.5 50t-14.5 75q-12 82 -16.5 217t-4.5 325q0 215 3.5 353.5t9.5 265.5h172 q74 -2 121 -5t76.5 -9.5t53 -18.5t58.5 -35q-10 66 -10 119q0 57 10 129q-115 -8 -247 -11t-367 -3q-254 0 -392.5 3t-183.5 11q0 -4 6 -43q8 -61 8 -92q0 -45 -14 -113z" />
<glyph unicode="U" horiz-adv-x="1409" d="M88 1458q14 -25 22.5 -46t14.5 -59t9 -107.5t5 -186.5v-512v-2q2 -90 8.5 -152.5t24.5 -126t57 -118t105 -93.5q63 -39 161.5 -57t192.5 -18q119 0 218.5 19t172.5 73q59 43 96 95t54.5 107.5t24 108.5t10.5 133v2v539q2 94 5 156.5t8 102.5t13 71.5t21 68.5 q-90 -12 -135 -12q-61 0 -134 12q14 -31 20.5 -54.5t8.5 -60.5q2 -25 4 -108.5t2 -173.5v-434q0 -115 -7 -187.5t-39 -138.5t-102.5 -104.5t-191.5 -38.5q-301 0 -362 221q-12 43 -15.5 95t-3.5 153v434q0 94 3 164.5t16 132.5q8 43 17 63.5t24 38.5q-111 -12 -168 -12 q-53 0 -160 12z" />
<glyph unicode="V" horiz-adv-x="1366" d="M4 1460q18 -27 29.5 -48t29.5 -56q27 -57 58 -132t88 -229l231 -637q20 -51 42 -115.5t40 -123.5q14 -49 19.5 -68.5t9.5 -48.5l2 -8q94 8 139 8q49 0 139 -8q12 59 23.5 106t26 93.5t32 99.5t48.5 141q141 406 262 701q43 109 71.5 171t61.5 124l12 22q-86 -8 -129 -8 q-41 0 -82 6q-29 2 -82 10v-8q2 -12 2 -25q0 -49 -24.5 -159.5t-89.5 -313.5l-244 -743q-49 133 -64.5 174t-33 91t-48 140.5t-79.5 235.5q-27 80 -62 180q-25 74 -44 130.5t-32 99.5q-26 89 -26 143q0 22 4 43q2 8 2 12q-111 -12 -166 -12t-166 12z" />
<glyph unicode="W" horiz-adv-x="2048" d="M4 1458q29 -33 44 -65.5t48 -128.5q35 -106 76 -260t75 -291.5t63.5 -263t43.5 -199.5q18 -92 24.5 -141.5t8.5 -106.5v-10q111 12 168 12q49 0 147 -10l17 -2q0 18 16.5 92t32.5 135l182 701q16 63 23.5 91.5t13.5 55.5t12.5 62.5t14.5 89.5q8 -47 16 -85t15.5 -68 t15.5 -61.5t20 -80.5l136 -512q70 -246 92 -422q106 12 161 12q53 0 158 -12h6q12 119 33 218t68 284l2 6q18 68 51 194q33 123 39 146q4 12 4 16q23 80 38 136.5t37.5 132t46 144t44.5 115.5q8 16 17 30.5t22 33.5q0 2 6 10q-94 -12 -144 -12q-45 0 -116 8q-25 4 -31 4 q0 -2 2 -8q2 -18 2 -37q0 -41 -11 -117.5t-40 -199.5l-217 -922q-6 43 -12.5 79t-15.5 75t-25.5 99t-51.5 183l-120 436q-39 143 -61.5 238.5t-31.5 173.5q-90 -12 -137 -12t-133 12q-23 -133 -43 -223q-6 -33 -18.5 -82t-26.5 -109l-147 -548q-4 -16 -27 -97 q-45 -162 -51 -229l-191 846q-35 154 -49 244t-14 135q0 35 10 59q2 4 2 6l-39 -4q-92 -10 -135 -10q-70 0 -166 14z" />
<glyph unicode="X" horiz-adv-x="1366" d="M-6 -10l43 2q96 8 149 8q88 0 154 -10q18 68 56 138.5t108 170.5l174 252l96 -143q63 -96 108.5 -167t71 -117t34.5 -66.5t22 -49.5q2 -6 6 -16q16 0 51 4q92 6 135 6q72 0 164 -10q-51 53 -83 88t-77 90t-104.5 136t-149.5 212l-149 217l211 297q57 80 102 142.5 t82 108.5t62.5 76t72.5 83q2 4 10 12q-96 -10 -159 -10q-41 0 -119 6q-27 4 -43 4v-6q-2 -20 -8 -42t-26.5 -64t-68 -120.5t-124.5 -195.5l-97 -143l-71 108q-82 123 -131.5 206t-75 132t-33.5 73.5t-8 37.5q0 4 2 10v4q-16 0 -49 -2q-106 -8 -158 -8q-76 0 -172 10l4 -2 q33 -29 56.5 -54.5t64.5 -80.5q51 -68 111 -150q57 -80 90 -123l245 -344l-198 -278q-92 -125 -178 -227.5t-203 -204.5z" />
<glyph unicode="Y" horiz-adv-x="1280" d="M0 1458q33 -39 83 -116.5t130 -227.5l166 -311q4 -6 10 -19q39 -72 62.5 -117.5t68.5 -142.5l2 -32q4 -78 5 -134.5t1 -152.5q0 -82 -8 -126t-26 -87q14 0 38 4q74 6 113 6t115 -6q10 -2 39 -4q-16 31 -23.5 48t-11.5 46t-6 74t-2 119q0 121 6 239l266 508 q55 100 84 151.5t54.5 95.5t49 83t64.5 102q-82 -14 -145 -14q-66 0 -134 10q-20 4 -26 4q0 -2 2 -6q4 -14 4 -29q0 -33 -19.5 -98t-70.5 -176q-35 -76 -66.5 -141.5t-54 -110.5t-53.5 -103.5t-47 -88.5l-215 440q-57 121 -80 185.5t-23 96.5q0 12 4 25q2 4 2 6h-6 q-113 -12 -168 -12q-61 0 -184 12z" />
<glyph unicode="Z" horiz-adv-x="1150" d="M0 -6q68 0 205 4q166 4 257 5t191 1q125 0 218.5 -3t207.5 -7q6 39 10.5 63.5t10.5 51t17 61.5t28 86q-43 -39 -75 -58.5t-77 -30.5t-117.5 -15.5t-189.5 -4.5q-74 0 -146.5 3.5t-93.5 7.5q-41 8 -40 39q0 18 10 43q8 20 40.5 80.5t79 143.5t101.5 176t106 179 q-12 -18 -16 -26l15 25q16 26 55 92.5t70.5 121.5t45.5 76q39 61 92.5 142t137.5 208q-74 -4 -122 -6t-106 -4q-92 -2 -301 -2q-82 0 -155.5 1t-155.5 3t-143.5 4t-85.5 4v-74v-10q-2 -47 -4 -78.5t-11 -83.5q23 25 46.5 40.5t72.5 25.5q49 12 108.5 16t170.5 4h309 q-2 -2 -37 -71q-78 -143 -113 -207q-41 -72 -143 -244q-74 -123 -113 -190q-25 -43 -65 -113q-86 -152 -131 -225q-41 -68 -127 -201z" />
<glyph unicode="[" horiz-adv-x="512" d="M129 -330q55 2 95 3t87 3q49 0 85 -1t81 -5v97h-139v1757h135v90h-41q-111 -4 -164 -4q-92 0 -139 4q14 -158 19.5 -290t7.5 -327v-665q-2 -86 -2 -207q-2 -168 -2 -207q-2 -90 -6.5 -134t-16.5 -114z" />
<glyph unicode="\" horiz-adv-x="854" d="M12 1458q35 -53 51.5 -80.5t37 -65.5t42 -84t47.5 -106l347 -790q39 -92 59 -142.5t29.5 -74t13.5 -38t8 -30.5q2 -14 4 -37q2 -16 2 -18l31 2q41 4 61 4q23 0 64 -4l31 -2q-49 66 -91 146.5t-87 178.5l-7 13l-346 792q-33 72 -52 122t-30.5 87t-17.5 62.5t-14 60.5v4 q-61 -8 -93 -8q-29 0 -90 8z" />
<glyph unicode="]" horiz-adv-x="512" d="M31 -233v-97q45 4 82 5t84 1q47 -2 87 -3t95 -3q-12 70 -16.5 114t-6.5 134q0 39 -2 207q0 121 -2 207v665q2 195 7.5 327t19.5 290q-47 -4 -139 -4q-53 0 -164 4h-41v-90h135v-1757h-139z" />
<glyph unicode="^" horiz-adv-x="1492" d="M291 690h196l263 531l254 -531h198l-368 756h-158z" />
<glyph unicode="_" horiz-adv-x="1024" d="M-20 -154v-102h1064v102h-1064z" />
<glyph unicode="`" horiz-adv-x="598" d="M84 1538q53 -78 116.5 -149.5t127.5 -126.5q8 0 47 2h45h47q37 -2 45 -2q-43 51 -77 95t-53.5 73.5t-31.5 53t-26 56.5h-7q-76 -12 -112 -12q-31 0 -88 6q-23 4 -33 4z" />
<glyph unicode="a" horiz-adv-x="1150" d="M82 334q0 -158 93 -254t243 -96q117 0 186.5 42t112.5 93l2 2q33 37 48 65.5t28 63.5v2v-152q0 -25 2 -30q2 -57 4 -80q86 12 131 12t131 -12q-45 61 -57.5 112.5t-12.5 169.5v516q-4 117 -26.5 184.5t-104.5 117.5q-57 35 -121.5 47t-128.5 12q-143 0 -256.5 -33 t-224.5 -84l-6 -2q33 -61 44 -91t24 -89q59 78 166.5 127t209.5 49q66 0 108 -21.5t65.5 -58.5t32.5 -83t9 -101v-53q-55 2 -139 2q-55 0 -108.5 -3t-114 -14.5t-118.5 -36t-105 -63.5q-68 -57 -92.5 -124t-24.5 -136zM303 334q0 57 18.5 100t45 72t56.5 45t54 24 q33 10 78 15.5t86 5.5q72 0 143 -10v-2q-6 -133 -23.5 -207t-80.5 -146q-37 -41 -83 -64.5t-110 -23.5q-92 0 -138 57.5t-46 133.5z" />
<glyph unicode="b" horiz-adv-x="1193" d="M63 1450q2 -2 9 -6q18 -10 30.5 -26.5t24.5 -55.5t20.5 -115t8.5 -194v-607q-2 -147 -7.5 -227t-21.5 -178q90 -25 177 -41t190 -16q168 0 287.5 59t192.5 157.5t105.5 218.5t32.5 243q0 70 -12.5 145.5t-38.5 134.5q-25 57 -73 107.5t-128 76.5q-70 25 -147 25 q-84 0 -147.5 -26.5t-104.5 -66.5t-63.5 -76t-43.5 -79v-2v250q2 88 4 141.5t4.5 91t6.5 70.5t12 82v4q-53 -27 -86 -40t-65.5 -22.5t-68.5 -15.5t-98 -12zM356 131v418v4q4 125 22.5 211t78.5 145q74 70 176 70q76 0 130 -34t87 -90t48 -124.5t15 -144.5q0 -68 -14 -160 t-49 -154q-31 -57 -76 -92t-92 -50t-83 -18t-69 -3q-53 0 -92 6t-82 16z" />
<glyph unicode="c" horiz-adv-x="937" d="M80 565q0 -152 46 -263.5t128 -182t191.5 -104t238.5 -33.5q51 0 91 5t108 19q8 57 15 87t28 89q-43 -33 -88 -52t-127 -19q-129 0 -213 52t-126 130t-57.5 154.5t-15.5 140.5q0 61 14.5 132t52 138.5t108.5 111.5t179 44q92 0 147.5 -29t94.5 -67q12 59 21.5 90.5 t33.5 95.5l-4 2q-80 23 -141.5 34t-142.5 11q-80 0 -161 -17.5t-156 -58.5t-134 -109.5t-94 -164.5q-37 -99 -37 -236z" />
<glyph unicode="d" horiz-adv-x="1193" d="M78 520q0 -252 110.5 -393t315.5 -141q133 0 210 55t122 166q0 -76 2 -139l4 -78q74 8 110 8q37 0 115 -8q-12 31 -19.5 57.5t-9.5 72.5t-3 115.5t-1 235.5v567q0 84 2 154t5 122t10.5 105.5t17.5 116.5q-70 -35 -132.5 -53.5t-182.5 -36.5q31 -16 50 -54t23 -137l7 -135 q-104 29 -193 29q-47 0 -112.5 -10.5t-149.5 -47t-156.5 -113.5t-111.5 -202q-33 -104 -33 -256zM272 571q0 76 15.5 153t52.5 143.5t104.5 108.5t165.5 42q61 0 108.5 -11.5t110.5 -35.5l5 -2v-488q0 -41 -6.5 -89t-31 -103.5t-79.5 -94t-146 -38.5q-80 0 -138 35.5t-93 96 t-51.5 133.5t-16.5 150z" />
<glyph unicode="e" horiz-adv-x="1110" d="M78 573q0 -276 158.5 -432.5t439.5 -156.5q92 0 160.5 11t130.5 30q6 66 13 103.5t30 104.5l-2 -2q-51 -53 -111.5 -82.5t-183.5 -29.5q-111 0 -200 38t-146 138q-35 61 -47.5 118.5t-20.5 135.5v6h739q4 43 5 70.5t1 50.5q0 96 -25.5 185t-74.5 149q-59 72 -151.5 106.5 t-196.5 34.5q-127 0 -223.5 -42t-155.5 -105q-74 -80 -106.5 -191t-32.5 -240zM297 676q6 94 27.5 166.5t83.5 128.5q33 29 74.5 46t97.5 17q131 0 196 -100q35 -51 44 -111.5t9 -146.5h-532z" />
<glyph unicode="f" horiz-adv-x="641" d="M20 891q63 6 183 10v-420v-65q-2 -106 -3 -168t-5 -121q0 -6 -2 -14q-2 -31 -5.5 -55.5t-13.5 -65.5q10 0 33 2q72 8 104 8q57 0 125 -10q-10 37 -16 66.5t-10 68.5q-4 45 -6.5 103.5t-4.5 193.5v57v426q109 -2 215 -12q0 10 -2 33t-2 30q0 16 2 50q2 27 2 32 q-72 -4 -215 -8v121q0 68 10.5 117t47.5 80q44 34 97 34h3q53 0 84 -22q8 59 15.5 88t27.5 88q-113 -10 -178.5 -23.5t-132.5 -52.5q-59 -35 -95 -80t-52.5 -93t-20.5 -95t-4 -104v-58q-90 0 -181 6q4 -45 5 -73q0 -25 -5 -74z" />
<glyph unicode="g" horiz-adv-x="1150" d="M61 -246q0 -86 70 -152.5t184 -93.5q78 -18 185 -18q127 0 241.5 26.5t203.5 81t140.5 135.5t51.5 183q0 92 -36 150.5t-94.5 87t-117 40t-141.5 19.5l-205 16q-145 12 -199.5 27.5t-54.5 62.5q0 31 33 58q14 12 53 34.5t45 22.5q39 -8 69 -10q51 -8 101 -8q66 0 130 15 t114 42q57 33 93 78t51 89t19 79t4 67q0 68 -13 107t-36 74q35 -2 78 -5.5t80 -7.5q25 -2 47 -4q-8 25 -8 60q0 29 6 75q0 4 2 15q-68 -10 -128 -15.5t-157 -5.5l-22 11q-16 8 -25 12q-117 49 -278 49q-104 0 -188.5 -27.5t-139.5 -76.5q-61 -57 -81.5 -121t-20.5 -133 q0 -49 9 -100.5t40 -98.5q33 -53 73 -81t91 -48l-82 -39l-4 -2q-80 -43 -116 -79t-36 -107q0 -53 23.5 -89t60.5 -56.5t74 -30t78 -15.5l-9 -4q-76 -41 -116.5 -67.5t-73.5 -65.5q-41 -49 -54.5 -85t-13.5 -71zM246 -199q0 53 27.5 94.5t76.5 88.5l2 4l47 43q131 0 215 -4 q72 -2 128.5 -8.5t86.5 -16.5q51 -16 90 -52t39 -100q0 -51 -27.5 -98t-82.5 -80q-51 -33 -130 -48t-153 -15q-207 0 -280 94q-39 45 -39 98zM334 786q0 74 19.5 126.5t53 84t73.5 45t83 13.5q59 0 105 -23q61 -33 87.5 -97.5t26.5 -139.5q0 -57 -12 -103 q-20 -76 -75.5 -122t-137.5 -46q-90 0 -156.5 65.5t-66.5 196.5z" />
<glyph unicode="h" d="M66 1448q41 -27 55 -61.5t22 -129.5q6 -92 8.5 -175t4.5 -216v-452q0 -98 -2 -167t-6.5 -112t-10.5 -71.5t-16 -71.5q76 10 137 10t139 -10q-23 68 -30 126t-7 175v252q2 125 20.5 216t80.5 154q33 35 86 58.5t127 23.5q53 0 97 -16t71 -53q25 -35 32 -90.5t7 -194.5 q0 -133 -3.5 -280.5t-7.5 -208.5q-4 -55 -11 -89t-17 -73h6q80 8 121 8q43 0 137 -8h6q-18 57 -24.5 114.5t-5.5 202.5v451q0 90 -2.5 126t-8.5 66q-16 70 -55 112t-87 60.5t-86 22.5t-73 4q-145 0 -243.5 -57.5t-172.5 -184.5v129q0 109 1 195t7 156q2 47 6.5 75.5 t12.5 73.5q-53 -25 -89 -39t-67.5 -22.5t-68.5 -15.5t-90 -13z" />
<glyph unicode="i" horiz-adv-x="512" d="M88 1112l2 -2q20 -20 29.5 -36.5t17.5 -49.5q12 -49 16.5 -131t6.5 -221v-2v-344q0 -88 -1 -137.5t-3 -78t-7.5 -51t-15.5 -61.5l-2 -4q86 8 133 8q43 0 127 -8h6q-12 43 -18 70.5t-10 62.5t-7.5 77t-5.5 124v483q2 154 6.5 221.5t18.5 136.5q-53 -18 -84 -28.5 t-61.5 -16.5t-63.5 -8t-84 -4zM119 1382q0 -53 38 -90t89 -37t88 38t37 89q0 49 -37 87t-88 38q-53 0 -90 -36.5t-37 -88.5z" />
<glyph unicode="j" horiz-adv-x="512" d="M-125 -494q59 2 110.5 8.5t105.5 21.5t103.5 45t86.5 79q47 63 60 131t15 164v2v770q0 94 2 155.5t4.5 107.5t6.5 84t10 93q-47 -16 -79 -26.5t-61.5 -16.5t-61.5 -9t-83 -5l2 -2q20 -27 32.5 -58.5t18.5 -99.5q4 -45 5.5 -93t1.5 -130v-694q-4 -143 -14.5 -212 t-45.5 -108q-16 -16 -40.5 -29.5t-65.5 -13.5q-29 0 -46.5 6.5t-37.5 18.5l-2 2q-6 -74 -10.5 -104.5t-16.5 -86.5zM119 1382q0 -53 38 -90t89 -37t88 38t37 89q0 49 -37 87t-88 38q-53 0 -90 -36.5t-37 -88.5z" />
<glyph unicode="k" horiz-adv-x="1150" d="M72 1448q27 -18 41 -37.5t22 -62.5q12 -59 16.5 -149.5t6.5 -283.5v-360q0 -123 -1 -211t-5 -149q-2 -68 -9.5 -113t-19.5 -90q90 12 135 12q47 0 133 -12h6q-25 66 -33 125t-8 182l164 207l113 -158q55 -80 93 -136t58.5 -93t31.5 -63.5t24 -65.5q96 14 161 14 q45 0 136 -10q18 -4 28 -4q-104 123 -182 221t-133 177t-93 135.5t-95 148.5l-5 6q96 121 163 200.5t114 127t77.5 73t82.5 62.5l2 2l-21 -2q-111 -10 -168 -11q-55 0 -170 13q4 -25 4 -33q0 -23 -15 -55.5t-52 -91.5q-8 -14 -32 -48t-52 -75l-19 -27l-215 -287v514 q0 100 2 174t4.5 127.5t7.5 99.5t13 97q-55 -25 -87 -37t-65.5 -22.5t-67.5 -16.5t-91 -14z" />
<glyph unicode="l" horiz-adv-x="512" d="M68 1450q29 -20 43 -39.5t24 -58.5q12 -49 15.5 -112.5t7.5 -268.5v-45v-494v-65q-2 -96 -4 -167t-9 -108q-4 -35 -9 -55.5t-13 -44.5q76 10 135 10q37 0 102 -6q23 -4 37 -4q-10 25 -15 45t-11 55q-8 57 -11.5 140t-3.5 202v666q2 147 7.5 244.5t21.5 193.5 q-57 -27 -90 -40t-64.5 -21.5t-68.5 -14.5t-94 -12z" />
<glyph unicode="m" horiz-adv-x="1835" d="M70 1110q27 -27 42 -51.5t25 -75.5q10 -47 14.5 -136t6.5 -192v-372q-2 -123 -7.5 -175.5t-21.5 -115.5l31 2q70 8 100 8q33 0 96 -6q8 -2 33 -4q-18 70 -24.5 130t-8.5 157v278q0 86 10.5 158.5t49.5 142.5q33 61 91 96t130 35q66 0 103.5 -22.5t54 -62.5t20.5 -88 t4 -130v-407q0 -98 -5 -164t-28 -125q82 8 129 8q41 0 132 -8h10q-18 51 -27.5 109.5t-11.5 183.5v370q0 88 8 141.5t39 96.5q35 49 89 73.5t120 24.5q74 0 116 -23.5t61 -66.5t24.5 -96t5.5 -137v-383q-2 -94 -9.5 -157t-27.5 -134h6q80 8 121 8t115 -6l30 -2 q-23 68 -29 122t-8 171v393q0 111 -2 168t-11 102t-28.5 79t-56.5 63q-41 33 -95 47t-116 14q-252 0 -362 -219q-16 106 -95 162.5t-188 56.5q-80 0 -142.5 -24.5t-104.5 -62.5t-67.5 -76t-52.5 -83v-2v86q0 33 2 98q2 78 2 80q-49 -25 -141 -41t-151 -16z" />
<glyph unicode="n" d="M68 1108q33 -29 49 -60.5t26 -117.5q12 -123 13 -314v-317q0 -113 -7.5 -187.5t-19.5 -121.5q82 12 129 12q43 0 129 -12q-23 66 -28 133t-5 205v129q0 190 14.5 286.5t75.5 161.5q49 53 110.5 70.5t119.5 17.5q72 0 114.5 -22.5t61 -59.5t23 -76.5t4.5 -99.5v-319 q0 -197 -5 -258q-2 -43 -9 -84t-17 -84q14 0 37 4q66 6 102 6q33 0 102 -8q20 -2 31 -2q-20 47 -27.5 112.5t-9.5 167.5v4v447q0 154 -11 216t-48 112q-29 37 -63.5 58t-68.5 30.5t-62.5 11.5t-59.5 2q-156 0 -249 -57.5t-161 -194.5v105q0 117 2 163q-82 -31 -160.5 -45 t-131.5 -14z" />
<glyph unicode="o" d="M78 559q0 -51 4 -98t17.5 -104.5t43 -115t76.5 -106.5t102.5 -80.5t111.5 -47t102.5 -20.5t89.5 -5q250 0 392 154.5t142 441.5q0 41 -3 85t-16.5 103t-44 121.5t-79.5 113.5q-66 70 -168.5 111t-229.5 41q-123 0 -224 -40t-169 -109q-51 -51 -81.5 -114t-44 -124 t-17.5 -109.5t-4 -97.5zM291 565q0 86 12 163t47 143.5t103.5 108.5t177.5 42t174 -51t94 -126t36 -142.5t7 -137.5q0 -80 -9 -152.5t-41 -142t-98.5 -114.5t-170.5 -45q-106 0 -174 45t-102 115.5t-45 144t-11 149.5z" />
<glyph unicode="p" horiz-adv-x="1193" d="M68 1112l2 -2q16 -14 30.5 -37.5t27.5 -80t21.5 -167t8.5 -276.5v-572v-30q-2 -129 -6.5 -223.5t-14.5 -149.5q-4 -23 -14 -57q-4 -20 -6 -25q94 8 141 8q39 0 123 -6l20 -2q-16 49 -22 74.5t-10 68.5q-6 63 -7.5 121t-3.5 187v59l15 -2q94 -16 157 -16q135 0 239.5 46 t180.5 134q55 61 88 128.5t48.5 131t20.5 116t5 101.5q0 145 -36 246.5t-95 163.5q-39 39 -99.5 70.5t-150.5 31.5q-59 0 -110.5 -15.5t-88 -37t-59 -40t-35.5 -32.5q-51 -57 -82 -139v142t4 136q-86 -31 -158.5 -43t-133.5 -12zM352 174v156q0 84 3 151.5t9.5 136t19.5 128 t36 100.5q31 59 88 97t133 38q88 0 143.5 -46t83 -112.5t35.5 -132t8 -123.5q0 -100 -23.5 -188t-70.5 -143q-41 -45 -104.5 -77t-149.5 -32q-68 0 -114 12.5t-97 34.5z" />
<glyph unicode="q" horiz-adv-x="1193" d="M78 547q0 -141 28.5 -242.5t75.5 -169.5q63 -88 143.5 -118.5t161.5 -30.5q59 0 105.5 15t93.5 52q57 45 90 99.5t66 130.5q0 -23 -2 -47q-4 -90 -5 -140.5t-1 -132.5v-119q0 -145 -5.5 -213.5t-31.5 -140.5q90 8 135 8q41 0 115 -6l30 -2q-25 68 -34 131.5t-9 192.5v954 q2 131 8.5 208t26.5 175q-61 -25 -93 -36t-95 -28q-68 33 -127.5 48.5t-153.5 15.5q-45 0 -88 -5t-94 -21.5t-103.5 -50.5t-97.5 -87q-49 -57 -77.5 -120.5t-42 -122t-16.5 -104.5t-3 -93zM268 610q0 78 19.5 149.5t59.5 128t105.5 89.5t153.5 33q84 0 130 -12.5t95 -36.5 q6 -72 8.5 -120t2.5 -116q0 -115 -6.5 -200t-31 -165.5t-81.5 -132t-154 -51.5q-96 0 -158.5 46t-92 116t-40 139.5t-10.5 132.5z" />
<glyph unicode="r" horiz-adv-x="724" d="M78 1108l2 -4q23 -25 36 -49.5t23 -67.5q10 -47 13.5 -113.5t3.5 -203.5v-387q-2 -92 -8.5 -165t-20.5 -128l29 4q70 10 104 10q35 0 107 -12l20 -2q-18 72 -23.5 125t-7.5 172v215q0 100 13.5 184t60.5 152q39 55 93.5 83.5t107.5 28.5q20 0 47 -6l8 -2q6 74 17.5 118 t25.5 83q2 4 2 6q-86 -4 -151.5 -35t-107.5 -75t-65.5 -84t-46.5 -93q-2 0 -2 -2v135v6q2 49 3 88t4 76q-49 -18 -80 -27.5t-60.5 -15.5t-62.5 -9t-84 -5z" />
<glyph unicode="s" horiz-adv-x="894" d="M61 31q70 -18 148 -31.5t166 -13.5q131 0 217 27.5t147 88.5q47 51 66.5 110.5t19.5 119.5q0 53 -14 102t-51 88q-35 37 -84 61.5t-135 57.5q-35 12 -64 25q-82 33 -133 75.5t-51 118.5q0 78 64.5 119t152.5 41q70 0 127 -23q41 -16 63.5 -36.5t42.5 -47.5 q16 66 27.5 97.5t38.5 89.5q-47 20 -110.5 35.5t-155.5 15.5q-86 0 -163 -15.5t-141.5 -53.5t-103.5 -102.5t-39 -158.5q0 -72 21.5 -124t56.5 -85.5t71 -53t81 -38.5l123 -45q86 -31 134 -66.5t48 -111.5q0 -39 -18.5 -74t-47.5 -55q-55 -37 -155 -37q-123 0 -187.5 35 t-111.5 86l-2 -10q-10 -68 -19.5 -107t-28.5 -104z" />
<glyph unicode="t" horiz-adv-x="641" d="M16 891q109 6 162 6l-8 -649q0 -47 7 -88t36 -80q31 -41 87 -65.5t163 -24.5q20 0 48 2t77 6q2 55 5 83t15 85q-53 -20 -98 -21q-68 0 -100 37q-23 25 -29 68t-6 135q0 342 2 512q12 0 69 -2q80 -2 138 -4q-6 31 -6 61q0 14 4 54q0 12 2 32q-76 -4 -158 -6q-31 -2 -49 -2 v123q2 137 5 190.5t15 106.5q-80 -33 -122 -44t-121 -22q18 -37 22 -71.5t6 -149.5v-133q-49 0 -85 1t-81 5q4 -49 4 -73q0 -23 -4 -72z" />
<glyph unicode="u" horiz-adv-x="1193" d="M86 1110l2 -2q20 -25 30.5 -44.5t18.5 -59.5q12 -70 17 -230v-467v-8q2 -63 10 -105t37 -85q31 -47 70.5 -72t90.5 -37q55 -14 117 -14q86 0 148.5 25.5t102.5 63.5t63.5 79t42.5 84l2 -246h6q86 12 131 12q63 0 125 -12l-4 4q-18 25 -30.5 48.5t-18.5 68.5 q-8 53 -12.5 143t-4.5 156v485q0 104 5 155.5t20 116.5q-55 -27 -144.5 -43t-146.5 -16q20 -18 30.5 -37.5t16.5 -62.5q10 -53 16 -213l2 -37v-174q-2 -127 -14 -194.5t-57 -133.5q-35 -47 -82 -76.5t-121 -29.5q-70 0 -112 23.5t-60 58t-23.5 67.5t-7.5 78v4v508v6 q0 55 1 102.5t3 74t6.5 46t12.5 49.5q-41 -27 -130 -43t-159 -16z" />
<glyph unicode="v" horiz-adv-x="1110" d="M2 1141q53 -96 94 -189.5t97 -240.5q160 -416 245 -719q82 12 125 12t125 -12q0 33 9.5 66.5t35.5 113.5q23 68 35 104q98 299 178 497t141 335q14 29 17 35q-20 -2 -31 -4q-61 -6 -92 -6q-33 0 -96 6q-8 2 -33 4q0 -2 2 -8q2 -14 2 -27q0 -31 -11 -85t-38 -138l-82 -264 q-43 -135 -76 -238q-33 -104 -43 -138t-20 -77q-23 78 -48.5 154.5t-66.5 193.5l-117 356q-29 90 -40 145.5t-11 88.5q0 10 2 27q2 6 2 8q-20 -2 -57 -4q-72 -8 -105 -9q-49 0 -143 13z" />
<glyph unicode="w" horiz-adv-x="1622" d="M-2 1143q23 -33 38 -64.5t29.5 -70.5t27.5 -82t42 -150l92 -348q20 -82 34.5 -139.5t24 -107.5t14.5 -74.5t17 -102.5q2 -8 2 -12q82 16 127 16q41 0 127 -16q14 96 25.5 148.5t30.5 117.5q43 162 73.5 279.5t48 182t25.5 91.5l25 94q4 -25 21.5 -99.5t25.5 -115.5 l82 -340q33 -133 47 -207.5t27 -150.5q86 16 133 16q43 0 127 -16h6q10 51 12 61q18 82 30.5 139.5t30.5 120.5l156 547q14 53 28.5 92t27 67t27.5 54.5t40 69.5q-78 -10 -139 -10q-55 0 -123 10l2 -10q6 -27 6 -50q0 -53 -20 -141l-115 -487q-2 -10 -8 -33 q-33 -125 -40 -152.5t-9 -43t-7 -46.5l-45 180q-45 178 -73 299q-39 156 -58.5 236t-29 121t-12.5 67.5t-3 59.5q-68 -10 -121 -10q-31 0 -94 6q-33 4 -37 4q-2 -33 -6 -67t-16 -87t-37 -147t-62 -230l-36 -137l-11 -41q-25 -92 -38 -145t-19 -101l-137 613 q-18 84 -29.5 151.5t-11.5 122.5q0 35 6 68q-86 -14 -145 -15q-43 0 -125 11z" />
<glyph unicode="x" horiz-adv-x="1110" d="M0 -8q68 12 135 12q49 0 148 -12q8 41 23.5 70.5t60.5 95.5l178 256l139 -213q55 -90 72.5 -128t25.5 -83l17 2q98 14 145 14q57 0 168 -16q-39 35 -59.5 57.5t-44.5 52.5q-57 70 -125 170l-215 308l219 290q37 49 71.5 93.5t56 72t46 54t49.5 55.5q-55 -8 -125 -8 q-47 0 -141 8q-16 -61 -37 -99t-68 -108l-161 -221l-162 258l-6 12q-39 66 -50.5 89.5t-11.5 45.5q0 6 4 19v4h-6q-109 -12 -164 -13q-53 0 -162 13h-6q39 -41 64.5 -68.5t50.5 -58.5t44.5 -58.5t78.5 -111.5l8 -12l193 -285l-246 -324q-6 -8 -76 -94q-33 -41 -35 -45 q-43 -53 -96 -94z" />
<glyph unicode="y" horiz-adv-x="1110" d="M-2 1143q23 -33 71 -130.5t103 -250.5q20 -57 46 -132t67 -195t53 -159q20 -63 32.5 -107t41.5 -146q8 -25 8 -29q35 4 53.5 5t65.5 1l-33 -78v-2q-18 -39 -36.5 -73.5t-48.5 -68.5t-71 -55.5t-94 -21.5q-55 0 -94 39q-8 -74 -18.5 -117t-37.5 -106q23 -2 25 -2 q33 -2 55 -2q47 0 100.5 9t94.5 23q61 23 108.5 65t80 95t56 108.5t54.5 139.5l278 823q29 84 51.5 143.5t39 98.5t30 64.5t33.5 58.5q-90 -8 -137 -8t-141 8q2 -6 2 -8q10 -29 10 -62q0 -43 -15.5 -118.5t-52.5 -196.5q0 -2 -51 -170q-68 -213 -87 -281.5t-32.5 -113 t-15.5 -60.5l-189 567q-47 145 -67.5 231.5t-20.5 147.5q0 20 2 33.5t7 32.5q-115 -12 -174 -13q-78 0 -152 13z" />
<glyph unicode="z" horiz-adv-x="937" d="M-18 -10q90 8 202.5 10t274.5 2q102 0 182 -2t215 -10q10 63 21.5 101t42.5 120q-66 -49 -130.5 -63.5t-183.5 -14.5q-139 0 -177 1t-50 3q-37 8 -37 39q0 16 12 37l271 453q20 33 63 102.5t92 147t86 136t60 91.5l-35 -2q-156 -6 -227.5 -8.5t-182.5 -2.5 q-109 0 -204 3.5t-218 9.5q0 -74 -4 -121t-14 -113q29 33 54.5 50.5t61.5 26.5t84 11t134 2h225q-39 -72 -114.5 -202.5t-166 -279t-179.5 -288t-158 -239.5z" />
<glyph unicode="{" horiz-adv-x="598" d="M45 598q111 -6 141.5 -76.5t30.5 -245.5v-174v-8q2 -137 13.5 -203.5t58.5 -119.5q53 -61 125.5 -78t187.5 -19v103q-84 6 -129 27.5t-63 95.5q-8 29 -10.5 65.5t-2.5 120.5v82v14q-2 172 -7 236.5t-25 111.5q-27 55 -64 78t-80 35h-2v8q45 10 83 33t63 80 q20 47 25 109.5t7 226.5v14v90q0 109 7.5 164t35.5 90q29 33 65 42t97 13v103q-115 -2 -187.5 -18.5t-125.5 -77.5q-47 -53 -58.5 -120t-13.5 -204v-8v-180q0 -164 -30.5 -232.5t-139.5 -77.5z" />
<glyph unicode="|" horiz-adv-x="468" d="M154 -512h163v2048h-163v-2048z" />
<glyph unicode="}" horiz-adv-x="598" d="M-4 -223v-103q115 2 187.5 18.5t125.5 78.5q47 53 58.5 119.5t13.5 203.5v8v174q0 174 30.5 245t141.5 77l-2 100q-109 8 -139.5 77t-30.5 233v180v8q-2 137 -13.5 203.5t-58.5 120.5q-53 61 -125.5 77.5t-187.5 18.5v-103q61 -4 98 -13t64 -42q29 -35 36 -90t7 -164v-90 v-14q2 -160 7 -224.5t25 -111.5q25 -57 63 -79.5t83 -33.5v-8h-2q-41 -10 -79 -33.5t-65 -79.5q-20 -47 -25 -109.5t-7 -238.5v-14v-82q0 -84 -2 -121t-11 -65q-18 -74 -63 -95.5t-129 -27.5z" />
<glyph unicode="~" horiz-adv-x="1492" d="M254 592l82 -146q57 70 75.5 88.5t45.5 32.5q37 16 73 17q37 0 77 -13.5t87 -35.5l58 -29q76 -37 118.5 -51.5t87.5 -14.5q86 0 158 49.5t123 112.5l-78 148q-39 -49 -89 -88t-107 -39q-31 0 -63 10t-81 33l-67 30l-15 6q-72 33 -116.5 47.5t-96.5 14.5q-53 0 -98 -18.5 t-79 -46t-55.5 -54.5t-39.5 -53z" />
<glyph unicode="&#xa1;" horiz-adv-x="555" d="M117 1337q0 -53 34.5 -92t86.5 -39q51 0 85.5 39t34.5 92q0 51 -35.5 90t-84.5 39t-85 -37.5t-36 -91.5zM127 -29l2 2q43 20 80 31.5t100 11.5h37q31 -2 37 -2q-8 51 -13 83t-9.5 74t-7.5 90t-7 136q-4 104 -5 140t-3 141v41l-4 387q-45 -6 -113 -6q-49 0 -76 6 q4 -141 4.5 -186.5t0.5 -116.5q0 -31 -1.5 -138.5t-4.5 -225t-7 -252t-10 -216.5z" />
<glyph unicode="&#xa2;" horiz-adv-x="980" d="M76 565q0 -104 23.5 -196.5t77.5 -169t144.5 -130t217.5 -75.5q-2 -63 -5.5 -92t-13.5 -68q39 4 60.5 6t35.5 2q31 0 80 -8q-8 47 -11 73.5t-5 76.5q49 0 86 4t104 16l9 2q6 51 14 84t29 94q-43 -35 -93.5 -53t-152.5 -18q-2 139 -2 514q0 211 2 342v45q82 -6 129 -32 t84 -60l2 -2q10 57 20.5 88.5t32.5 95.5v2h-2q-76 20 -128 30.5t-130 14.5q0 33 3 63.5t18 83.5q-25 -4 -43.5 -6t-49.5 -2q-49 0 -88 8q12 -55 14.5 -83.5t2.5 -71.5q-221 -37 -343 -184.5t-122 -393.5zM295 590q0 100 29.5 188t83.5 144q33 35 61.5 50t62.5 27l9 2 q4 -115 5 -199.5t1 -207.5t-1 -239.5t-5 -213.5q-80 33 -130.5 93.5t-75 128t-32.5 125t-8 102.5z" />
<glyph unicode="&#xa3;" horiz-adv-x="1067" d="M72 -8q143 6 236 9t218 3q121 0 215.5 -3t264.5 -9q0 86 6 146.5t16 115.5q-45 -45 -90 -57q-33 -8 -103.5 -11.5t-152.5 -3.5q-51 0 -174 2t-152 4q53 16 88 53.5t52.5 82.5t22.5 87t5 81q0 53 -6 101t-20 134q98 0 139 -2q31 0 77 -4t87 -8q-8 53 -8 80t8 84 q-72 -12 -122 -17.5t-118 -5.5q-16 0 -37 2h-49q-12 59 -19 111.5t-7 107.5q0 49 11 89t50 77q45 45 101.5 60.5t115.5 15.5q102 0 154.5 -33t91.5 -84q14 47 20 65.5t14.5 41t18.5 45t27 59.5q-94 33 -153.5 45t-149.5 12q-49 0 -95.5 -4t-103.5 -17t-115.5 -44t-107.5 -82 q-57 -61 -81 -128t-24 -138q0 -70 29 -197q-49 2 -74.5 5t-79.5 11q0 -8 2 -26q4 -45 4 -64q0 -35 -6 -71q61 6 94 8t89 4q20 -106 27 -173t7 -122q0 -59 -12 -102t-49 -82t-73 -49.5t-105 -12.5h-4l2 -34q4 -47 4 -70q0 -20 -4 -60z" />
<glyph unicode="&#xa4;" horiz-adv-x="1366" d="M86 221l123 -123l156 156q61 -45 133.5 -74.5t185.5 -29.5q106 0 178 28.5t135 71.5l2 2l154 -158l125 125l-156 156l2 4q45 63 74 135t29 182q0 111 -29 182.5t-74 135.5l154 153l-123 123l-156 -153q-61 45 -132.5 74.5t-182.5 29.5t-185.5 -30.5t-133.5 -73.5 l-154 153l-123 -123l154 -153q-43 -61 -74 -134t-31 -186q0 -111 31 -183.5t74 -133.5zM301 694q0 86 30.5 158t84 123t123 78.5t143.5 27.5q76 0 144.5 -27.5t121.5 -78.5t84 -122t31 -155q0 -82 -28.5 -153.5t-81 -124.5t-121 -82t-146.5 -29t-148.5 29t-124 81t-83 122.5 t-29.5 152.5z" />
<glyph unicode="&#xa5;" horiz-adv-x="1280" d="M0 1458q25 -29 43 -54.5t51 -78.5q10 -16 19.5 -31.5t24 -41t75.5 -140.5l176 -328q-98 0 -131 2q-39 2 -88 11q6 -37 6 -74q0 -41 -6 -84q37 8 84 10t207 2q8 -20 24 -51q18 -43 35 -78l2 -20h-119q-82 0 -138 3t-95 13q6 -43 6 -80q0 -33 -4 -69q-2 -10 -2 -15h4 q33 6 84 11q53 4 145 4h123q0 -27 2 -88v-76q0 -80 -8 -123t-24 -86l-2 -4q57 6 94 8t67 2q47 0 119 -8l25 -2q-27 39 -34 82t-9 168v127h112q121 -2 168 -5.5t72 -9.5q-4 78 -4 103q0 29 4 61h-4q-27 -6 -43.5 -8t-46.5 -4q-27 -2 -58.5 -3t-89.5 -1h-106l2 16l69 133 q121 0 176.5 -2t100.5 -10q0 4 -2 14q-4 37 -4 72q0 33 6 72q-25 -6 -62.5 -8.5t-144.5 -4.5l127 242q51 92 83 149.5t54.5 96.5t50 83t64.5 103q-82 -14 -145 -14q-27 0 -80 4q-27 2 -80 10q0 -2 2 -10q4 -14 4 -27q0 -35 -24.5 -112.5t-92.5 -218.5q-25 -53 -47 -99.5 t-48 -97.5t-54.5 -104.5t-44.5 -83.5l-217 440q-57 115 -79 178t-22 96q0 12 4 27q2 8 2 12q-104 -14 -174 -14q-76 0 -184 14z" />
<glyph unicode="&#xa6;" horiz-adv-x="468" d="M154 -358h163v716h-163v-716zM154 666h163v716h-163v-716z" />
<glyph unicode="&#xa7;" horiz-adv-x="980" d="M70 567q0 -76 24.5 -130t70.5 -92t103.5 -66.5t163.5 -73.5l4 -2q102 -41 157.5 -82t55.5 -113q0 -68 -62.5 -120t-185.5 -52q-66 0 -113.5 12.5t-81.5 33t-52.5 41t-38.5 44.5v-35q2 -16 2 -24q0 -39 -5.5 -74t-17.5 -102l23 -4q80 -16 134 -24.5t118 -8.5 q217 0 339.5 95t122.5 253q0 66 -22.5 114t-56 78.5t-63.5 46t-66 29.5q82 14 139 39t102 88q51 72 51 176q0 72 -24.5 122t-66.5 85t-89 57.5t-129 53.5q-145 55 -210.5 104t-65.5 127q0 74 61.5 125t165.5 51q102 0 156.5 -34.5t87.5 -81.5q10 74 20 111.5t35 103.5 q-145 26 -256 26q-219 0 -334 -92q-53 -41 -86 -106.5t-33 -143.5q0 -63 19.5 -111t49.5 -79t60.5 -49.5t69.5 -38.5h-2q-72 -10 -130 -34t-101 -87t-43 -156zM260 592q0 88 70 132t164 44q102 0 172.5 -53t70.5 -133t-66.5 -131.5t-164.5 -51.5q-96 0 -171 50.5t-75 142.5z " />
<glyph unicode="&#xa8;" horiz-adv-x="598" d="M-39 1397q0 -55 40 -95t95 -40t95 39.5t40 95.5q0 55 -39.5 95t-95.5 40q-55 0 -95 -40t-40 -95zM369 1397q0 -55 40 -95t95 -40t95 39.5t40 95.5q0 55 -40 95t-95 40t-95 -40t-40 -95z" />
<glyph unicode="&#xa9;" horiz-adv-x="1705" d="M125 723q0 -158 58.5 -293t160.5 -232.5t234.5 -150.5t273.5 -53q154 0 287 56t233.5 156.5t155.5 234.5t55 284q0 147 -54 279.5t-153.5 233.5t-233.5 157.5t-290 56.5q-145 0 -277.5 -54.5t-233.5 -153.5t-158.5 -233t-57.5 -288zM190 723q0 135 50.5 256t142.5 213 t214 143t259 51q139 0 261 -51t212 -143t139.5 -212t49.5 -255t-50.5 -257t-140.5 -214t-213 -143.5t-262 -51.5q-135 0 -256 51.5t-212 141.5t-142.5 212t-51.5 259zM383 723q0 -102 36 -191.5t101.5 -154t154.5 -100t191 -35.5q94 0 166 25.5t127 66.5t96 94l-114 100 l-2 -2q-49 -53 -109.5 -92t-159.5 -39q-137 0 -232 93.5t-95 238.5t94 238.5t231 93.5q98 0 160 -40t113 -99l114 108q-23 29 -52 56.5t-76.5 57t-113 50t-145.5 20.5q-104 0 -193 -36.5t-154.5 -103t-101.5 -157t-36 -192.5z" />
<glyph unicode="&#xaa;" horiz-adv-x="724" d="M47 940q0 -88 56.5 -156.5t158.5 -68.5q76 0 132.5 35.5t90.5 93.5q0 -25 3.5 -59.5t5.5 -65.5l10 2q51 6 74 6q35 0 96 -10q0 -2 4 -2q-35 45 -43 80.5t-10 134.5l4 256q0 78 -7.5 121t-35.5 75q-35 39 -88.5 55.5t-114.5 16.5q-74 0 -150.5 -18.5t-156.5 -61.5 q29 -55 43 -125q66 59 119 85t116 26q76 0 102.5 -40t26.5 -99q0 -8 -2 -23v-16q-4 0 -24 2h-35q-53 0 -108.5 -5t-117 -28t-105.5 -74t-44 -137zM201 946q0 45 17.5 75t46 45t62 21.5t72.5 6.5q37 0 80 -7q0 -102 -45 -179t-127 -77q-51 0 -78.5 31t-27.5 84z" />
<glyph unicode="&#xab;" horiz-adv-x="724" d="M90 625q47 -27 78 -47.5t57.5 -42t50 -46t62.5 -67.5q4 45 5 74.5t1 93.5l-133 129l151 149q4 47 5.5 73t1.5 81q-45 -41 -76 -68.5t-56.5 -47t-54 -39t-84.5 -56.5q2 -20 2 -63q0 -45 -10 -123zM352 625q47 -27 78 -47.5t57.5 -42t50 -46t62.5 -67.5q4 45 5 74.5t1 93.5 l-133 129l152 149q4 47 5 73t1 81q-45 -41 -76 -68.5t-56.5 -47t-54 -39t-84.5 -56.5q2 -20 2 -63q0 -45 -10 -123z" />
<glyph unicode="&#xac;" horiz-adv-x="1366" d="M0 518h1202v-516h164v678h-1366v-162z" />
<glyph unicode="&#xad;" horiz-adv-x="598" d="M55 618q133 10 242 11q106 0 244 -11q-6 53 -6 101q0 41 6 98q-137 -10 -248 -10q-109 0 -238 10q6 -57 6 -100q0 -49 -6 -99z" />
<glyph unicode="&#xae;" horiz-adv-x="1705" d="M125 723q0 -158 58.5 -292t162 -232.5t234.5 -151.5t272 -53q154 0 287 56t233.5 156.5t155.5 234.5t55 284q0 147 -54 279.5t-153.5 233.5t-233.5 157.5t-290 56.5q-145 0 -277.5 -54.5t-233.5 -153.5t-158.5 -233t-57.5 -288zM190 723q0 135 50.5 256t142.5 213 t214 143t259 51q139 0 261 -51t212 -143t139.5 -213t49.5 -254q0 -135 -50.5 -257t-141.5 -214t-213 -143.5t-259 -51.5q-135 0 -256 51.5t-213 141.5t-143.5 212t-51.5 259zM545 268h164v414q143 0 194 -22.5t70 -120.5q0 -2 8 -58q12 -78 14 -84q10 -53 18.5 -81.5 t18.5 -47.5h187q-29 59 -41.5 108.5t-28.5 166.5q-14 88 -43 127t-88 65q90 25 139 79t49 138q0 70 -38 129.5t-109 83.5q-39 14 -87 18.5t-128 4.5h-299v-920zM711 813v248h104q84 0 111.5 -2t50.5 -10q35 -14 50 -46t15 -63q0 -63 -43 -94q-27 -20 -65.5 -26.5t-87.5 -6.5 h-135z" />
<glyph unicode="&#xaf;" horiz-adv-x="598" d="M-4 1481q8 -53 8 -78q0 -16 -4 -49l-2 -25q178 10 317 10q68 0 133.5 -2t153.5 -8q0 10 -2 27q-4 33 -4 51q0 16 4 49l2 25q-82 -4 -151.5 -7.5t-137.5 -3.5q-139 1 -317 11z" />
<glyph unicode="&#xb0;" horiz-adv-x="724" d="M31 1217q0 -68 25.5 -128.5t71.5 -105.5t106.5 -70.5t127.5 -25.5q68 0 128.5 25.5t105.5 71.5t70.5 105.5t25.5 127.5t-25.5 128t-70.5 105t-105.5 70.5t-128.5 25.5t-128 -25.5t-106 -70.5t-71.5 -105.5t-25.5 -127.5zM201 1221q0 68 46.5 114.5t114.5 46.5t115 -47 t47 -114q0 -68 -47 -115t-115 -47t-114.5 47t-46.5 115z" />
<glyph unicode="&#xb1;" horiz-adv-x="1366" d="M84 0h1198v162h-1198v-162zM84 772h520v-498h164v498h514v162h-514v496h-164v-496h-520v-162z" />
<glyph unicode="&#xb2;" horiz-adv-x="811" d="M76 539h8q45 4 107.5 7t183.5 3q104 0 164.5 -2t162.5 -8q-4 39 -6 62.5t-2 41.5q0 53 8 113q-18 -25 -30.5 -36t-33 -18.5t-54 -9.5t-95.5 -2h-245q10 8 35 27q37 27 63 47l4 4q23 16 54.5 42t70.5 61.5t79 80.5t64 86q23 39 38.5 81t15.5 91q0 61 -27 112.5t-72 82.5 q-49 37 -110.5 47t-116.5 10q-90 0 -147.5 -13t-102.5 -32q8 -25 8 -61q0 -27 -8 -92q53 35 100.5 51t129.5 16q84 0 139 -38t55 -119q0 -25 -5 -48.5t-25.5 -60.5t-67.5 -91t-127 -128q-94 -86 -215 -160q8 -35 8 -74q0 -29 -8 -73z" />
<glyph unicode="&#xb3;" horiz-adv-x="811" d="M94 567q61 -20 123 -27.5t115 -7.5q70 0 134 14.5t116.5 46.5t84 86t31.5 130q0 55 -28.5 103.5t-83.5 74.5q-31 16 -59.5 22.5t-59.5 8.5h-4h2q35 10 63.5 20.5t59 34t50 62.5t19.5 96q0 111 -82 170q-47 37 -109 48t-134 11q-66 0 -107 -6t-86 -18h-2q0 -45 -3 -75 t-15 -85q45 31 88 48t102 17q80 0 135.5 -32.5t55.5 -100.5q0 -43 -22.5 -73.5t-58.5 -48t-75 -24.5t-76 -7q-43 0 -92 6v-8q-4 -45 -6 -62.5t-12 -52.5q47 12 73.5 15t67.5 3q100 0 160 -28q78 -39 78 -125t-60.5 -124t-154.5 -38q-84 0 -130.5 22.5t-78.5 55.5 q0 -51 -3.5 -78t-15.5 -74z" />
<glyph unicode="&#xb4;" horiz-adv-x="598" d="M84 1260h10q61 4 94 4h39q25 -2 43 -2q47 47 77 78.5t53.5 57t46 54.5t67.5 88q-86 -12 -129 -12q-39 0 -121 12q-23 -53 -39 -86t-33.5 -59.5t-40 -55t-67.5 -79.5z" />
<glyph unicode="&#xb5;" horiz-adv-x="1193" d="M86 1110q47 -41 57.5 -142.5t10.5 -340.5v-566q0 -233 -7.5 -362t-33.5 -207q18 2 63 5t72 3t61.5 -2t55.5 -6q-4 35 -7.5 89t-5.5 134q-2 86 -2 232v135q29 -51 66 -75.5t121 -24.5q82 0 132 31.5t85 76.5q33 41 52 79t30 69l2 -246h6q86 12 131 12q63 0 125 -12 q-20 23 -33.5 47t-19.5 72q-8 53 -12.5 144t-4.5 157v485q0 109 5 159t20 113q-68 -29 -148 -44t-143 -15l4 -4q12 -10 21.5 -25.5t18.5 -53.5t15 -107.5t6 -180.5v-153q-2 -125 -14 -193.5t-57 -134.5q-33 -47 -81 -76.5t-122 -29.5q-70 0 -112 23.5t-60 58t-23.5 67.5 t-7.5 78v4v508v6q0 55 1 102.5t3 74t6.5 46t12.5 49.5q-49 -27 -132 -43t-157 -16z" />
<glyph unicode="&#xb6;" horiz-adv-x="1366" d="M178 1036q0 -94 36 -175t105 -134q45 -37 87.5 -51t93.5 -23h2v-993h116v1675h297v-1675h119v1675h70v111h-471h-2q-96 -2 -174 -20.5t-150 -84.5q-63 -55 -96 -136t-33 -169z" />
<glyph unicode="&#xb7;" horiz-adv-x="468" d="M113 709q0 -55 36.5 -92t83.5 -37q49 0 86 36.5t37 92.5q0 57 -36.5 94t-86.5 37q-47 0 -83.5 -37t-36.5 -94z" />
<glyph unicode="&#xb8;" horiz-adv-x="598" d="M123 -449q61 -8 88 -8q106 0 185 64.5t79 148.5q0 106 -100 129q-23 6 -45 6l-13 -2h-16l47 160h-98l-76 -239h4q43 14 76 14q41 0 68.5 -19.5t27.5 -60.5q0 -55 -32.5 -82t-75.5 -27q-29 0 -45.5 8.5t-34.5 26.5q-10 -41 -16.5 -60.5t-22.5 -58.5z" />
<glyph unicode="&#xb9;" horiz-adv-x="811" d="M143 1257q47 8 100.5 21.5t100.5 34.5q4 -47 5 -85t1 -145v-325v-8q-2 -111 -7 -145t-28 -73h2q31 6 52.5 8.5t62.5 2.5q35 0 53.5 -2t40.5 -9q-20 43 -26 84t-8 142v516q0 88 3 136t5 67l-11 -7q-39 -23 -75.5 -38t-104.5 -35q-29 -8 -72.5 -19.5t-93.5 -21.5 q2 -14 2 -39q0 -14 -2 -35v-25z" />
<glyph unicode="&#xba;" horiz-adv-x="811" d="M63 1077q0 -164 88.5 -262t251.5 -98q158 0 251.5 97t93.5 280q0 168 -91 264t-249 96q-168 0 -256.5 -102.5t-88.5 -274.5zM211 1079q0 55 8 103.5t29.5 88.5t61 62.5t96.5 22.5q104 0 149 -74t45 -186q0 -139 -47 -210t-147 -71q-55 0 -94.5 21.5t-61 58.5t-30.5 84 t-9 100z" />
<glyph unicode="&#xbb;" horiz-adv-x="724" d="M94 1022q0 -43 1 -68.5t5 -64.5q2 -8 2 -21l152 -149l-135 -129q0 -61 1 -89t5 -79q41 45 64.5 69.5t48 44t57.5 41t80 48.5q-10 78 -10 123q0 43 2 63q-57 37 -86 56.5t-53.5 38t-56.5 47t-77 69.5zM356 1022q0 -43 1 -68.5t5 -64.5q2 -8 3 -21l151 -149l-135 -129 q0 -61 1 -89t5 -79q41 45 64.5 69.5t48 44t57.5 41t80 48.5q-10 78 -10 123q0 43 2 63q-57 37 -86 56.5t-53.5 38t-56.5 47t-77 69.5z" />
<glyph unicode="&#xbc;" horiz-adv-x="1878" d="M143 1257q47 8 100.5 21.5t100.5 34.5q4 -47 5 -85t1 -145v-325v-8q-2 -111 -7 -145t-28 -73h2q31 6 52.5 8.5t62.5 2.5q35 0 53.5 -2t40.5 -9q-20 43 -26 84t-8 142v516q0 88 3 136t5 67l-11 -7q-39 -23 -75.5 -38t-104.5 -35q-29 -8 -72.5 -19.5t-93.5 -21.5 q2 -14 2 -39q0 -14 -2 -35v-25zM442 -12q14 2 23 4q43 6 63 6q10 0 37 -4t41 -6q14 39 24.5 66.5t19.5 50t24.5 56.5t42.5 93l471 971q23 47 46 91t75 136l4 8l-19 -2q-37 -8 -57 -8q-18 0 -59 8l-17 2q-31 -72 -39 -91t-15 -35.5t-52 -112.5l-473 -971q-4 -8 -15 -27 q-33 -63 -64.5 -123.5t-60.5 -111.5zM1130 197h402v-76q0 -51 -6 -76t-19 -47v-2q37 10 95 10q39 0 57 -1t51 -9q-16 49 -21.5 86t-5.5 119h17q12 2 24 2q27 0 48.5 -2t29.5 -6q-6 37 -6 77q0 37 6 68q-29 -8 -54.5 -11t-70.5 -3v338q0 88 2 145t11 115q-61 -16 -121 -17 q-49 0 -92 8q-45 -68 -95.5 -152.5t-100.5 -175.5t-87 -160t-64 -120q2 -8 3 -14q4 -23 4 -43q0 -29 -7 -53zM1274 328l256 477v-477h-256z" />
<glyph unicode="&#xbd;" horiz-adv-x="1878" d="M143 1257q47 8 100.5 21.5t100.5 34.5q4 -47 5 -85t1 -145v-325v-8q-2 -111 -7 -145t-28 -73h2q31 6 52.5 8.5t62.5 2.5q35 0 53.5 -2t40.5 -9q-20 43 -26 84t-8 142v516q0 88 3 136t5 67l-11 -7q-39 -23 -75.5 -38t-104.5 -35q-29 -8 -72.5 -19.5t-93.5 -21.5 q2 -14 2 -39q0 -14 -2 -35v-25zM424 -12q14 2 22 4q43 6 64 6q10 0 37 -4t41 -6q14 39 24.5 66.5t19.5 50t24.5 56.5t41.5 93l471 971q23 47 46.5 91t74.5 136l4 8l-18 -2q-37 -8 -57 -8q-18 0 -60 8l-16 2q-31 -72 -39 -91t-15.5 -35.5t-52.5 -112.5l-473 -971 q-4 -8 -14 -27q-33 -63 -64.5 -123.5t-60.5 -111.5zM1143 -6h8q45 4 107.5 7t183.5 3q104 0 164.5 -2t162.5 -8q-4 39 -6 62.5t-2 41.5q0 53 8 113q-18 -25 -30.5 -36t-32.5 -18t-54 -9.5t-96 -2.5h-245q10 8 35 27q37 27 63 47l4 4q23 16 54.5 42t70.5 61.5t79 81t64 86.5 q23 39 38.5 80.5t15.5 91.5q0 61 -27 112t-72 82q-49 37 -110.5 47.5t-116.5 10.5q-90 0 -147.5 -13.5t-102.5 -32.5q8 -25 8 -61q0 -27 -8 -92q53 35 100.5 51t129.5 16q84 0 139 -37.5t55 -119.5q0 -25 -5 -48.5t-25.5 -60.5t-67.5 -91t-127 -128q-94 -86 -215 -160 q8 -35 8 -73q0 -29 -8 -74z" />
<glyph unicode="&#xbe;" horiz-adv-x="1878" d="M94 567q61 -20 123 -27.5t115 -7.5q70 0 134 14.5t116.5 46.5t84 86t31.5 130q0 55 -28.5 103.5t-83.5 74.5q-31 16 -59.5 22.5t-59.5 8.5h-4h2q35 10 63.5 20.5t59 34t50 62.5t19.5 96q0 111 -82 170q-47 37 -109 48t-134 11q-66 0 -107 -6t-86 -18h-2q0 -45 -3 -75 t-15 -85q45 31 88 48t102 17q80 0 135.5 -32.5t55.5 -100.5q0 -43 -22.5 -73.5t-58.5 -48t-75 -24.5t-76 -7q-43 0 -92 6v-8q-4 -45 -6 -62.5t-12 -52.5q47 12 73.5 15t67.5 3q100 0 160 -28q78 -39 78 -125t-60.5 -124t-154.5 -38q-84 0 -130.5 22.5t-78.5 55.5 q0 -51 -3.5 -78t-15.5 -74zM504 -12q14 2 22 4q43 6 64 6q10 0 37 -4t41 -6q14 39 24 66.5t19.5 50t25 56.5t41.5 93l471 971q23 47 46.5 91t74.5 136l4 8l-18 -2q-37 -8 -58 -8q-18 0 -59 8l-16 2q-31 -72 -39 -91t-15.5 -35.5t-52.5 -112.5l-473 -971q-4 -8 -14 -27 q-33 -63 -65 -123.5t-60 -111.5zM1130 197h402v-76q0 -51 -6 -76t-19 -47v-2q37 10 95 10q39 0 57 -1t51 -9q-16 49 -21.5 86t-5.5 119h17q12 2 24 2q27 0 48.5 -2t29.5 -6q-6 37 -6 77q0 37 6 68q-29 -8 -54.5 -11t-70.5 -3v338q0 88 2 145t11 115q-61 -16 -121 -17 q-49 0 -92 8q-45 -68 -95.5 -152.5t-100.5 -175.5t-87 -160t-64 -120q2 -8 3 -14q4 -23 4 -43q0 -29 -7 -53zM1274 328l256 477v-477h-256z" />
<glyph unicode="&#xbf;" horiz-adv-x="980" d="M74 426q0 -94 21.5 -174t70.5 -139q37 -45 86 -73t97 -41t87 -16t76 -3q76 0 151.5 12t147.5 33q-35 104 -39 219q-41 -47 -98.5 -76t-147.5 -29q-41 0 -87 15.5t-83 52.5t-54 90t-17 139q0 59 12 116.5t51 109.5q39 51 90 70.5t137 19.5q49 0 78 -6.5t68 -24.5 q-8 90 -8 188q0 68 3 110t7 87q-74 -8 -109 -8q-59 0 -102 8v-19q4 -78 4 -112q0 -63 -2 -96q-45 2 -63 2q-174 0 -275.5 -120t-101.5 -335zM485 1327q0 -53 37 -93t88 -40t87 39t36 94t-36 94t-87 39t-88 -40t-37 -93z" />
<glyph unicode="&#xc0;" horiz-adv-x="1366" d="M0 -10q94 12 143 12t144 -12q-2 20 -2 39q0 20 8 53q4 20 17.5 68.5t23.5 89.5l4 14l51 174h6q188 12 279 12q133 0 264 -12l61 -201q20 -70 30.5 -113.5t10.5 -70.5q0 -14 -4 -39l-2 -12q94 14 162 14q72 0 168 -14q-29 31 -50.5 66.5t-53.5 129.5q-14 41 -50 142 q-33 98 -49 139l-184 555q-25 74 -41 126t-29.5 101t-25 94.5t-23.5 108.5q-106 -12 -166 -12q-57 0 -172 12q-4 -33 -9 -57.5t-15.5 -61.5t-26.5 -87t-41 -122l-229 -680q-41 -117 -63.5 -179t-42 -107t-41 -83t-52.5 -87zM381 1833q41 -53 65.5 -85t53 -64.5t59.5 -64.5 t66 -65q6 0 41 2h39q31 0 96 -4h6q-37 41 -62.5 75t-45 64.5t-35 63.5t-35.5 78q-82 -12 -125 -12q-41 0 -123 12zM440 598l242 735q12 -53 18 -82q20 -88 35 -141t43 -152l2 -8l109 -352q-147 -8 -223 -8q-78 0 -226 8z" />
<glyph unicode="&#xc1;" horiz-adv-x="1366" d="M0 -10q94 12 143 12t144 -12q-2 20 -2 39q0 20 8 53q4 20 17.5 68.5t23.5 89.5l4 14l51 174h6q188 12 279 12q133 0 264 -12l61 -201q20 -70 30.5 -113.5t10.5 -70.5q0 -14 -4 -39l-2 -12q94 14 162 14q72 0 168 -14q-29 31 -50.5 66.5t-53.5 129.5q-14 41 -50 142 q-33 98 -49 139l-184 555q-25 74 -41 126t-29.5 101t-25 94.5t-23.5 108.5q-106 -12 -166 -12q-57 0 -172 12q-4 -33 -9 -57.5t-15.5 -61.5t-26.5 -87t-41 -122l-229 -680q-41 -117 -63.5 -179t-42 -107t-41 -83t-52.5 -87zM440 598l242 735q12 -53 18 -82q20 -88 35 -141 t43 -152l2 -8l109 -352q-147 -8 -223 -8q-78 0 -226 8zM582 1552q70 4 104 4h41q33 -2 39 -2q39 37 68.5 68t55 60.5t52.5 63.5t68 87q-82 -12 -123 -12q-43 0 -125 12q-18 -43 -34.5 -78t-36 -64.5t-46.5 -63.5t-63 -75z" />
<glyph unicode="&#xc2;" horiz-adv-x="1366" d="M0 -10q94 12 143 12t144 -12q-2 20 -2 39q0 20 8 53q4 20 17.5 68.5t23.5 89.5l4 14l51 174h6q188 12 279 12q133 0 264 -12l61 -201q20 -70 30.5 -113.5t10.5 -70.5q0 -14 -4 -39l-2 -12q94 14 162 14q72 0 168 -14q-29 31 -50.5 66.5t-53.5 129.5q-14 41 -50 142 q-33 98 -49 139l-184 555q-25 74 -41 126t-29.5 101t-25 94.5t-23.5 108.5q-106 -12 -166 -12q-57 0 -172 12q-4 -33 -9 -57.5t-15.5 -61.5t-26.5 -87t-41 -122l-229 -680q-41 -117 -63.5 -179t-42 -107t-41 -83t-52.5 -87zM371 1548q57 4 86 4t86 -4l6 6q47 39 72.5 66 t72.5 84q41 -47 69 -74.5t89 -83.5q10 0 31 2q37 4 59 4q20 0 62 -4q31 -2 30 -2l-26.5 26.5t-34.5 36t-41 43t-35 38.5q-55 63 -100 143q-70 -8 -105 -8q-45 0 -92 6q-55 -82 -104.5 -142.5t-124.5 -140.5zM440 598l242 735q12 -53 18 -82q20 -88 35 -141t43 -152l2 -8 l109 -352q-147 -8 -223 -8q-78 0 -226 8z" />
<glyph unicode="&#xc3;" horiz-adv-x="1366" d="M0 -10q94 12 143 12t144 -12q-2 20 -2 39q0 20 8 53q4 20 17.5 68.5t23.5 89.5l4 14l51 174h6q188 12 279 12q133 0 264 -12l61 -201q20 -70 30.5 -113.5t10.5 -70.5q0 -14 -4 -39l-2 -12q94 14 162 14q72 0 168 -14q-29 31 -50.5 66.5t-53.5 129.5q-14 41 -50 142 q-33 98 -49 139l-184 555q-25 74 -41 126t-29.5 101t-25 94.5t-23.5 108.5q-106 -12 -166 -12q-57 0 -172 12q-4 -33 -9 -57.5t-15.5 -61.5t-26.5 -87t-41 -122l-229 -680q-41 -117 -63.5 -179t-42 -107t-41 -83t-52.5 -87zM387 1548q20 37 55 67t107 30q43 0 80 -8.5 t92 -28.5l6 -2q63 -20 105 -31.5t77 -11.5q63 0 90 41q8 16 11.5 31.5t5.5 37.5v160q-10 -25 -23 -37q-16 -23 -53 -42t-94 -19q-63 0 -160 34q-61 23 -112.5 37.5t-84.5 14.5q-35 0 -55 -13.5t-30.5 -32t-13.5 -36t-3 -29.5v-162zM440 598l242 735q12 -53 18 -82 q20 -88 35 -141t43 -152l2 -8l109 -352q-147 -8 -223 -8q-78 0 -226 8z" />
<glyph unicode="&#xc4;" horiz-adv-x="1366" d="M0 -10q94 12 143 12t144 -12q-2 20 -2 39q0 20 8 53q4 20 17.5 68.5t23.5 89.5l4 14l51 174h6q188 12 279 12q133 0 264 -12l61 -201q20 -70 30.5 -113.5t10.5 -70.5q0 -14 -4 -39l-2 -12q94 14 162 14q72 0 168 -14q-29 31 -50.5 66.5t-53.5 129.5q-14 41 -50 142 q-33 98 -49 139l-184 555q-25 74 -41 126t-29.5 101t-25 94.5t-23.5 108.5q-106 -12 -166 -12q-57 0 -172 12q-4 -33 -9 -57.5t-15.5 -61.5t-26.5 -87t-41 -122l-229 -680q-41 -117 -63.5 -179t-42 -107t-41 -83t-52.5 -87zM348 1692q0 -55 40 -95.5t95 -40.5t95 40t40 96 q0 55 -39.5 95t-95.5 40q-55 0 -95 -40t-40 -95zM440 598l242 735q12 -53 18 -82q20 -88 35 -141t43 -152l2 -8l109 -352q-147 -8 -223 -8q-78 0 -226 8zM756 1692q0 -55 40 -95.5t95 -40.5t95 40t40 96q0 55 -40 95t-95 40t-95 -40t-40 -95z" />
<glyph unicode="&#xc5;" horiz-adv-x="1366" d="M0 -10q94 12 143 12t144 -12q-2 20 -2 39q0 20 8 53q4 20 17.5 68.5t23.5 89.5l4 14l51 174h6q188 12 279 12q133 0 264 -12l61 -201q20 -70 30.5 -113.5t10.5 -70.5q0 -14 -4 -39l-2 -12q94 14 162 14q72 0 168 -14q-29 31 -50.5 66.5t-53.5 129.5q-14 41 -50 142 q-33 98 -49 139l-184 555q-25 74 -41 126t-29.5 101t-25 94.5t-23.5 108.5q-106 -12 -166 -12q-57 0 -172 12q-4 -33 -9 -57.5t-15.5 -61.5t-26.5 -87t-41 -122l-229 -680q-41 -117 -63.5 -179t-42 -107t-41 -83t-52.5 -87zM440 598l242 735q12 -53 18 -82q20 -88 35 -141 t43 -152l2 -8l109 -352q-147 -8 -223 -8q-78 0 -226 8zM522 1692q0 -70 48 -119t118 -49t119 49t49 119t-49 118t-119 48t-118 -48.5t-48 -117.5zM596 1692q0 37 26.5 64.5t65.5 27.5t66.5 -26.5t27.5 -65.5t-27.5 -67t-66.5 -28t-65.5 28t-26.5 67z" />
<glyph unicode="&#xc6;" horiz-adv-x="1878" d="M-10 -8q98 12 147 12q47 0 144 -10l10 -2q0 45 12 93t62 144q37 76 72.5 145.5t41.5 80.5l53 100q111 6 220 6q106 0 217 -6v-115v-18q-4 -121 -6 -175t-8.5 -96t-16.5 -78t-31 -83q76 10 121 13t139 3h256q47 0 95.5 -1t83 -3t71.5 -5t103 -7q4 70 14 115t45 139 q-59 -47 -145 -75t-195 -28q-51 0 -109.5 1t-87.5 3q-76 6 -96 41t-22 111v395h51q47 2 76 2q76 0 147.5 -3t118.5 -9q53 -6 80.5 -15.5t60.5 -29.5l4 -4q-12 66 -12 131q0 45 12 131v6q-27 -20 -42 -29.5t-42.5 -16.5t-76 -11t-123.5 -4q-102 0 -254 12v272q0 59 1 104.5 t5 78.5q160 8 241 8q152 0 213.5 -21.5t114.5 -72.5q-6 53 -6 104q0 27 4 82q2 31 2 51q-84 -2 -125 -4q-258 -6 -389 -6q-104 0 -210.5 3t-229.5 7v-4q2 -8 2 -14q0 -23 -17.5 -71t-66.5 -136l-342 -615q-104 -178 -156.5 -269t-73 -125t-40 -64.5t-46.5 -69.5 q-23 -31 -36 -50.5t-35 -47.5zM618 719l173 321q35 66 58 108t38.5 68.5t25 43t21.5 36.5l24 37v-6q6 -49 8.5 -112.5t2.5 -194.5v-301q-51 -4 -152 -4q-51 0 -170 4h-29z" />
<glyph unicode="&#xc7;" d="M84 729q0 -287 133 -474t379 -247q33 -8 86 -14l31 -4l-58 -180q47 14 80 14q41 0 68.5 -19.5t27.5 -60.5q0 -55 -32.5 -82t-73.5 -27q-31 0 -47 8.5t-35 26.5q-6 -33 -13 -53t-18 -47l-6 -19h2q47 -8 86 -8q106 0 184 64.5t78 148.5q0 106 -100 129q-23 6 -45 6l-12 -2 h-17l27 95q121 0 196.5 8t151.5 22l10 2q10 68 19.5 106t30.5 107q-57 -47 -133 -79.5t-210 -32.5q-113 0 -214 38t-173 115q-76 82 -117.5 207t-41.5 264q0 123 32.5 239t94.5 191q59 74 160.5 120t215.5 46q61 0 118 -12t95 -35q31 -16 50.5 -35.5t44.5 -50.5q6 -8 10 -12 q12 74 23.5 108.5t44.5 104.5q-82 31 -157 46t-210 15q-63 0 -127 -5t-143.5 -23.5t-162.5 -60.5t-149 -111q-96 -100 -140 -238.5t-44 -298.5z" />
<glyph unicode="&#xc8;" horiz-adv-x="1067" d="M115 -10q76 8 154.5 10t254.5 2q117 0 200 -2t177 -8q49 -2 66 -2q6 43 10 71.5t10 51.5q10 43 41 129q-53 -41 -103.5 -63.5t-152.5 -33.5q-63 -8 -137 -8q-96 0 -142.5 5t-70 22.5t-30.5 51.5t-9 103v369q29 0 100 2h74q115 0 207 -8q51 -6 77.5 -15.5t67.5 -35.5 q-6 35 -9 62.5t-3 64.5q0 43 3 72.5t9 70.5l-2 -2q-27 -20 -42 -30.5t-44 -16.5q-35 -8 -85 -11t-99 -3q-76 0 -131 3t-123 7v223q0 111 6 234q63 4 109.5 5t99.5 1q90 0 146.5 -4t90 -14.5t56 -27t51.5 -48.5q-6 55 -6 102q0 29 4 86q2 33 2 53q-133 -6 -256 -9t-223 -3 q-139 0 -212 3t-122 9h-4q16 -51 24.5 -89t13.5 -83t6 -98t3 -166v-16v-517q0 -119 -4 -213t-18 -170q-6 -33 -13.5 -58t-21.5 -58zM231 1833q41 -53 66 -85t53.5 -64.5t59 -64.5t65.5 -65q6 0 41 2h39q31 0 96 -4h6q-37 41 -62.5 75t-45 64.5t-35 63.5t-35.5 78 q-82 -12 -125 -12q-41 0 -123 12z" />
<glyph unicode="&#xc9;" horiz-adv-x="1067" d="M115 -10q76 8 154.5 10t254.5 2q117 0 200 -2t177 -8q49 -2 66 -2q6 43 10 71.5t10 51.5q10 43 41 129q-53 -41 -103.5 -63.5t-152.5 -33.5q-63 -8 -137 -8q-96 0 -142.5 5t-70 22.5t-30.5 51.5t-9 103v369q29 0 100 2h74q115 0 207 -8q51 -6 77.5 -15.5t67.5 -35.5 q-6 35 -9 62.5t-3 64.5q0 43 3 72.5t9 70.5l-2 -2q-27 -20 -42 -30.5t-44 -16.5q-35 -8 -85 -11t-99 -3q-76 0 -131 3t-123 7v223q0 111 6 234q63 4 109.5 5t99.5 1q90 0 146.5 -4t90 -14.5t56 -27t51.5 -48.5q-6 55 -6 102q0 29 4 86q2 33 2 53q-133 -6 -256 -9t-223 -3 q-139 0 -212 3t-122 9h-4q16 -51 24.5 -89t13.5 -83t6 -98t3 -166v-16v-517q0 -119 -4 -213t-18 -170q-6 -33 -13.5 -58t-21.5 -58zM432 1552q70 4 105 4h41q33 -2 38 -2q39 37 69 68t55.5 60.5t52 63.5t67.5 87q-82 -12 -123 -12q-43 0 -125 12q-18 -43 -34.5 -78 t-36 -64.5t-46 -63.5t-63.5 -75z" />
<glyph unicode="&#xca;" horiz-adv-x="1067" d="M115 -10q76 8 154.5 10t254.5 2q117 0 200 -2t177 -8q49 -2 66 -2q6 43 10 71.5t10 51.5q10 43 41 129q-53 -41 -103.5 -63.5t-152.5 -33.5q-63 -8 -137 -8q-96 0 -142.5 5t-70 22.5t-30.5 51.5t-9 103v369q29 0 100 2h74q115 0 207 -8q51 -6 77.5 -15.5t67.5 -35.5 q-6 35 -9 62.5t-3 64.5q0 43 3 72.5t9 70.5l-2 -2q-27 -20 -42 -30.5t-44 -16.5q-35 -8 -85 -11t-99 -3q-76 0 -131 3t-123 7v223q0 111 6 234q63 4 109.5 5t99.5 1q90 0 146.5 -4t90 -14.5t56 -27t51.5 -48.5q-6 55 -6 102q0 29 4 86q2 33 2 53q-133 -6 -256 -9t-223 -3 q-139 0 -212 3t-122 9h-4q16 -51 24.5 -89t13.5 -83t6 -98t3 -166v-16v-517q0 -119 -4 -213t-18 -170q-6 -33 -13.5 -58t-21.5 -58zM199 1548q57 4 86 4t86 -4l6 6q47 39 72.5 66t72.5 84q41 -47 68.5 -74.5t89.5 -83.5q10 0 31 2q37 4 59 4q20 0 61 -4l31 -2l-26.5 26.5 t-35 36t-41 43t-34.5 38.5q-55 63 -100 143q-70 -8 -105 -8q-45 0 -92 6q-55 -82 -104.5 -142.5t-124.5 -140.5z" />
<glyph unicode="&#xcb;" horiz-adv-x="1067" d="M115 -10q76 8 154.5 10t254.5 2q117 0 200 -2t177 -8q49 -2 66 -2q6 43 10 71.5t10 51.5q10 43 41 129q-53 -41 -103.5 -63.5t-152.5 -33.5q-63 -8 -137 -8q-96 0 -142.5 5t-70 22.5t-30.5 51.5t-9 103v369q29 0 100 2h74q115 0 207 -8q51 -6 77.5 -15.5t67.5 -35.5 q-6 35 -9 62.5t-3 64.5q0 43 3 72.5t9 70.5l-2 -2q-27 -20 -42 -30.5t-44 -16.5q-35 -8 -85 -11t-99 -3q-76 0 -131 3t-123 7v223q0 111 6 234q63 4 109.5 5t99.5 1q90 0 146.5 -4t90 -14.5t56 -27t51.5 -48.5q-6 55 -6 102q0 29 4 86q2 33 2 53q-133 -6 -256 -9t-223 -3 q-139 0 -212 3t-122 9h-4q16 -51 24.5 -89t13.5 -83t6 -98t3 -166v-16v-517q0 -119 -4 -213t-18 -170q-6 -33 -13.5 -58t-21.5 -58zM190 1692q0 -55 40.5 -95.5t95.5 -40.5t95 40t40 96q0 55 -40 95t-95 40t-95.5 -40t-40.5 -95zM598 1692q0 -55 40 -95.5t95 -40.5t95 40 t40 96q0 55 -40 95t-95 40t-95 -40t-40 -95z" />
<glyph unicode="&#xcc;" horiz-adv-x="555" d="M-25 1833q41 -53 66 -85t53.5 -64.5t59 -64.5t65.5 -65q6 0 41 2h39q31 0 96 -4h6q-37 41 -62.5 75t-45 64.5t-35 63.5t-35.5 78q-82 -12 -125 -12q-41 0 -123 12zM117 -8q94 14 159 14q68 0 160 -14q-27 57 -36 101t-13 153q-4 137 -6 256t-2 254v153q2 166 5 245t8 132 t15.5 90t30.5 82q-106 -12 -159 -12t-160 12q14 -33 22.5 -60.5t14.5 -84.5q4 -25 6 -47.5t4 -68.5t3 -106.5t5 -183.5v-153q0 -156 -2 -270.5t-8 -237.5q-6 -113 -16.5 -161t-30.5 -93z" />
<glyph unicode="&#xcd;" horiz-adv-x="555" d="M117 -8q94 14 159 14q68 0 160 -14q-27 57 -36 101t-13 153q-4 137 -6 256t-2 254v153q2 166 5 245t8 132t15.5 90t30.5 82q-106 -12 -159 -12t-160 12q14 -33 22.5 -60.5t14.5 -84.5q4 -25 6 -47.5t4 -68.5t3 -106.5t5 -183.5v-153q0 -156 -2 -270.5t-8 -237.5 q-6 -113 -16.5 -161t-30.5 -93zM176 1552q70 4 105 4h41q33 -2 38 -2q39 37 69 68t55.5 60.5t52 63.5t67.5 87q-82 -12 -123 -12q-43 0 -125 12q-18 -43 -34.5 -78t-36 -64.5t-46 -63.5t-63.5 -75z" />
<glyph unicode="&#xce;" horiz-adv-x="555" d="M-57 1548q57 4 86 4t86 -4l6 6q47 39 72.5 66t72.5 84q41 -47 68.5 -74.5t89.5 -83.5q10 0 31 2q37 4 59 4q20 0 61 -4l31 -2l-26.5 26.5t-35 36t-41 43t-34.5 38.5q-55 63 -100 143q-70 -8 -105 -8q-45 0 -92 6q-55 -82 -104.5 -142.5t-124.5 -140.5zM117 -8 q94 14 159 14q68 0 160 -14q-27 57 -36 101t-13 153q-4 137 -6 256t-2 254v153q2 166 5 245t8 132t15.5 90t30.5 82q-106 -12 -159 -12t-160 12q14 -33 22.5 -60.5t14.5 -84.5q4 -25 6 -47.5t4 -68.5t3 -106.5t5 -183.5v-153q0 -156 -2 -270.5t-8 -237.5q-6 -113 -16.5 -161 t-30.5 -93z" />
<glyph unicode="&#xcf;" horiz-adv-x="555" d="M-66 1692q0 -55 40.5 -95.5t95.5 -40.5t95 40t40 96q0 55 -40 95t-95 40t-95.5 -40t-40.5 -95zM117 -8q94 14 159 14q68 0 160 -14q-27 57 -36 101t-13 153q-4 137 -6 256t-2 254v153q2 166 5 245t8 132t15.5 90t30.5 82q-106 -12 -159 -12t-160 12q14 -33 22.5 -60.5 t14.5 -84.5q4 -25 6 -47.5t4 -68.5t3 -106.5t5 -183.5v-153q0 -156 -2 -270.5t-8 -237.5q-6 -113 -16.5 -161t-30.5 -93zM342 1692q0 -55 40 -95.5t95 -40.5t95 40t40 96q0 55 -40 95t-95 40t-95 -40t-40 -95z" />
<glyph unicode="&#xd0;" horiz-adv-x="1492" d="M2 684h2q33 8 64.5 12t103.5 4v-213q-2 -143 -8 -237t-13.5 -142.5t-16.5 -70t-19 -35.5l-4 -8q14 0 51 2q72 6 129 6q37 0 117 -4q113 -4 184 -4q82 0 157.5 6t155.5 25.5t158 58.5t139 100q104 104 153.5 251t49.5 315q0 88 -14.5 189t-47.5 185q-43 109 -115.5 176.5 t-159.5 101.5t-171 44t-178 10q-76 0 -205 -10q-109 -8 -174 -8q-53 0 -125 7t-96 11q18 -57 25.5 -91t13.5 -88t9 -148.5t5 -243.5v-66q-25 0 -47.5 2t-54.5 6q-20 2 -68 9v-5q6 -41 6 -67q0 -33 -6 -80zM381 295v405h129q106 0 147 -1t111 -9v4q-8 39 -8 68t8 76 q-49 -12 -103.5 -17.5t-185.5 -7.5h-98q0 311 10 483q29 4 31 4q57 6 112.5 11.5t108.5 5.5q100 0 187.5 -24.5t154.5 -78.5q55 -45 92 -101t55.5 -119.5t24.5 -125t6 -125.5q0 -66 -6 -133t-28.5 -142t-68.5 -143.5t-120 -113.5q-39 -25 -89 -40t-97 -23.5t-89 -11.5 t-73 -3q-76 0 -120 11.5t-63.5 32t-23.5 46t-4 72.5z" />
<glyph unicode="&#xd1;" horiz-adv-x="1492" d="M78 1458q23 -27 34 -42t20 -41.5t15.5 -68.5t12.5 -114q6 -86 10 -215t4 -272q0 -160 -5 -303.5t-15 -229.5q-8 -70 -17.5 -107.5t-23.5 -74.5h6q92 16 139 16q45 0 139 -16q-31 82 -39 176t-8 233v265q0 225 -7 352t-21 241q12 -33 40.5 -80t96.5 -153q29 -47 84 -135 l348 -561q39 -59 70.5 -109.5t47 -77t36 -62.5t49.5 -87q61 12 116 12q43 0 121 -12h6q-23 147 -22 399q0 406 14 764q6 123 17.5 184.5t29.5 114.5q-94 -8 -135 -8q-104 0 -154 8q12 -25 21.5 -50.5t18 -76.5t13.5 -136t5 -214v-264q0 -147 1 -263t7 -190q-10 35 -29.5 70 t-70.5 114q-66 104 -103 164l-329 539l-5 10q-61 111 -74.5 136.5t-30.5 60.5t-26.5 54t-21.5 50q-51 -6 -104.5 -9t-100.5 -3q-78 0 -180 12zM430 1548q20 37 55 67t107 30q43 0 80 -8.5t92 -28.5l6 -2q63 -20 105.5 -31.5t76.5 -11.5q63 0 90 41q8 16 11.5 31.5t5.5 37.5 v160q-10 -25 -23 -37q-16 -23 -53 -42t-94 -19q-63 0 -160 34q-61 23 -112.5 37.5t-84.5 14.5q-35 0 -55 -13.5t-30.5 -32t-13.5 -36t-3 -29.5v-162z" />
<glyph unicode="&#xd2;" horiz-adv-x="1536" d="M82 721q0 -55 5 -113.5t22.5 -135.5t58.5 -160t108 -150q102 -104 246 -150q111 -35 238 -35q145 0 277 45.5t235 159.5q59 66 96 143.5t54.5 153.5t22.5 136.5t5 117.5q0 158 -38 292t-126 235q-92 104 -228 155t-292 51t-284 -51t-216 -145q-61 -66 -100 -144.5 t-56.5 -156.5t-22.5 -136.5t-5 -111.5zM326 717q0 82 9 159.5t34.5 154.5t75 142.5t122.5 106.5q91 47 197 47q45 0 92 -9t95 -31.5t94.5 -64.5t80.5 -106q45 -84 62.5 -188.5t17.5 -204.5q0 -115 -19.5 -216t-64.5 -181q-51 -88 -127 -144q-100 -68 -229 -67 q-113 0 -201 50t-141 130q-43 66 -70.5 168t-27.5 254zM467 1833q41 -53 65.5 -85t53 -64.5t59.5 -64.5t66 -65q6 0 41 2h39q31 0 96 -4h6q-37 41 -62.5 75t-45 64.5t-35 63.5t-35.5 78q-82 -12 -125 -12q-41 0 -123 12z" />
<glyph unicode="&#xd3;" horiz-adv-x="1536" d="M82 721q0 -55 5 -113.5t22.5 -135.5t58.5 -160t108 -150q102 -104 246 -150q111 -35 238 -35q145 0 277 45.5t235 159.5q59 66 96 143.5t54.5 153.5t22.5 136.5t5 117.5q0 158 -38 292t-126 235q-92 104 -228 155t-292 51t-284 -51t-216 -145q-61 -66 -100 -144.5 t-56.5 -156.5t-22.5 -136.5t-5 -111.5zM326 717q0 82 9 159.5t34.5 154.5t75 142.5t122.5 106.5q91 47 197 47q45 0 92 -9t95 -31.5t94.5 -64.5t80.5 -106q45 -84 62.5 -188.5t17.5 -204.5q0 -115 -19.5 -216t-64.5 -181q-51 -88 -127 -144q-100 -68 -229 -67 q-113 0 -201 50t-141 130q-43 66 -70.5 168t-27.5 254zM668 1552q70 4 104 4h41q33 -2 39 -2q39 37 68.5 68t55 60.5t52.5 63.5t68 87q-82 -12 -123 -12q-43 0 -125 12q-18 -43 -34.5 -78t-36 -64.5t-46 -63.5t-63.5 -75z" />
<glyph unicode="&#xd4;" horiz-adv-x="1536" d="M82 721q0 -55 5 -113.5t22.5 -135.5t58.5 -160t108 -150q102 -104 246 -150q111 -35 238 -35q145 0 277 45.5t235 159.5q59 66 96 143.5t54.5 153.5t22.5 136.5t5 117.5q0 158 -38 292t-126 235q-92 104 -228 155t-292 51t-284 -51t-216 -145q-61 -66 -100 -144.5 t-56.5 -156.5t-22.5 -136.5t-5 -111.5zM326 717q0 82 9 159.5t34.5 154.5t75 142.5t122.5 106.5q91 47 197 47q45 0 92 -9t95 -31.5t94.5 -64.5t80.5 -106q45 -84 62.5 -188.5t17.5 -204.5q0 -115 -19.5 -216t-64.5 -181q-51 -88 -127 -144q-100 -68 -229 -67 q-113 0 -201 50t-141 130q-43 66 -70.5 168t-27.5 254zM434 1548q57 4 86 4t86 -4l6 6q47 39 73 66t73 84q41 -47 68.5 -74.5t88.5 -83.5q10 0 31 2q37 4 60 4q20 0 61 -4l31 -2l-26.5 26.5t-35 36t-41 43t-34.5 38.5q-56 63 -101 143q-70 -8 -104 -8q-45 0 -92 6 q-55 -82 -104.5 -142.5t-125.5 -140.5z" />
<glyph unicode="&#xd5;" horiz-adv-x="1536" d="M82 721q0 -55 5 -113.5t22.5 -135.5t58.5 -160t108 -150q102 -104 246 -150q111 -35 238 -35q145 0 277 45.5t235 159.5q59 66 96 143.5t54.5 153.5t22.5 136.5t5 117.5q0 158 -38 292t-126 235q-92 104 -228 155t-292 51t-284 -51t-216 -145q-61 -66 -100 -144.5 t-56.5 -156.5t-22.5 -136.5t-5 -111.5zM326 717q0 82 9 159.5t34.5 154.5t75 142.5t122.5 106.5q91 47 197 47q45 0 92 -9t95 -31.5t94.5 -64.5t80.5 -106q45 -84 62.5 -188.5t17.5 -204.5q0 -115 -19.5 -216t-64.5 -181q-51 -88 -127 -144q-100 -68 -229 -67 q-113 0 -201 50t-141 130q-43 66 -70.5 168t-27.5 254zM451 1548q20 37 55 67t106 30q43 0 80 -8.5t92 -28.5l7 -2q63 -20 105 -31.5t77 -11.5q63 0 90 41q8 16 11 31.5t5 37.5v160q-10 -25 -22 -37q-16 -23 -53 -42t-95 -19q-63 0 -159 34q-61 23 -112.5 37.5t-84.5 14.5 q-35 0 -55.5 -13.5t-30.5 -32t-13 -36t-3 -29.5v-162z" />
<glyph unicode="&#xd6;" horiz-adv-x="1536" d="M82 721q0 -55 5 -113.5t22.5 -135.5t58.5 -160t108 -150q102 -104 246 -150q111 -35 238 -35q145 0 277 45.5t235 159.5q59 66 96 143.5t54.5 153.5t22.5 136.5t5 117.5q0 158 -38 292t-126 235q-92 104 -228 155t-292 51t-284 -51t-216 -145q-61 -66 -100 -144.5 t-56.5 -156.5t-22.5 -136.5t-5 -111.5zM326 717q0 82 9 159.5t34.5 154.5t75 142.5t122.5 106.5q91 47 197 47q45 0 92 -9t95 -31.5t94.5 -64.5t80.5 -106q45 -84 62.5 -188.5t17.5 -204.5q0 -115 -19.5 -216t-64.5 -181q-51 -88 -127 -144q-100 -68 -229 -67 q-113 0 -201 50t-141 130q-43 66 -70.5 168t-27.5 254zM428 1692q0 -55 40 -95.5t95 -40.5t95 40t40 96q0 55 -40 95t-95 40t-95 -40t-40 -95zM836 1692q0 -55 40 -95.5t95 -40.5t95 40t40 96q0 55 -40 95t-95 40t-95 -40t-40 -95z" />
<glyph unicode="&#xd7;" horiz-adv-x="1366" d="M158 188l112 -114l414 409l410 -409l114 114l-409 410l409 412l-114 114l-410 -411l-414 411l-112 -114l411 -412z" />
<glyph unicode="&#xd8;" horiz-adv-x="1536" d="M84 694q0 -133 26.5 -234.5t63.5 -167t69.5 -99t59.5 -56.5q-33 -55 -51.5 -80.5t-63.5 -74.5q51 -25 76 -38.5t64 -43.5q18 39 32.5 64.5t36.5 64.5q10 16 19 30h2q47 -20 76.5 -31.5t74.5 -23.5q53 -10 104.5 -17t108.5 -7q137 0 257 44t212 137t145.5 241.5 t53.5 349.5q0 86 -11.5 167.5t-43.5 165.5q-39 102 -85 154.5t-102 91.5l-2 2q16 27 32.5 50.5t28 38t28 35t42.5 50.5q-47 23 -69.5 37.5t-65.5 50.5q-4 -6 -6 -10q-33 -66 -49.5 -94.5t-54.5 -89.5q-51 27 -126 47t-198 20q-96 0 -199.5 -24.5t-187.5 -75.5 q-63 -39 -108.5 -89t-75 -101.5t-48 -98.5t-30.5 -96q-35 -123 -35 -289zM317 684q0 43 3.5 98.5t12.5 114.5t26.5 117.5t41.5 105.5q68 125 181 178q47 23 96 32t100 9q84 0 136.5 -18t93.5 -45q-123 -207 -173.5 -292t-113 -186.5t-128 -208t-187.5 -296.5 q-25 43 -39.5 75.5t-26.5 88.5q-23 106 -23 227zM498 195q104 176 174.5 293.5t126 206.5t129 207t178.5 282q20 -29 37.5 -58.5t34 -81t28 -129t11.5 -182.5q0 -119 -25 -238.5t-80 -203.5q-55 -86 -144 -136.5t-206 -50.5q-70 0 -150 27q-39 14 -63.5 28.5t-50.5 35.5z " />
<glyph unicode="&#xd9;" horiz-adv-x="1409" d="M88 1458q14 -25 22.5 -46t14.5 -59t9 -107.5t5 -186.5v-512v-2q2 -90 8.5 -152.5t24.5 -126t57 -118t105 -93.5q63 -39 161.5 -57t192.5 -18q119 0 218.5 19t172.5 73q59 43 96 95t54.5 107.5t24 108.5t10.5 133v2v539q2 94 5 156.5t8 102.5t13 71.5t21 68.5 q-90 -12 -135 -12q-61 0 -134 12q14 -31 20.5 -54.5t8.5 -60.5q2 -25 4 -108.5t2 -173.5v-434q0 -115 -7 -187.5t-39 -138.5t-102.5 -104.5t-191.5 -38.5q-301 0 -362 221q-12 43 -15.5 95t-3.5 153v434q0 94 3 164.5t16 132.5q8 43 17 63.5t24 38.5q-111 -12 -168 -12 q-53 0 -160 12zM403 1833q41 -53 66 -85t53.5 -64.5t59 -64.5t65.5 -65q6 0 41 2h39q31 0 96 -4h6q-37 41 -62.5 75t-45 64.5t-35 63.5t-35.5 78q-82 -12 -125 -12q-41 0 -123 12z" />
<glyph unicode="&#xda;" horiz-adv-x="1409" d="M88 1458q14 -25 22.5 -46t14.5 -59t9 -107.5t5 -186.5v-512v-2q2 -90 8.5 -152.5t24.5 -126t57 -118t105 -93.5q63 -39 161.5 -57t192.5 -18q119 0 218.5 19t172.5 73q59 43 96 95t54.5 107.5t24 108.5t10.5 133v2v539q2 94 5 156.5t8 102.5t13 71.5t21 68.5 q-90 -12 -135 -12q-61 0 -134 12q14 -31 20.5 -54.5t8.5 -60.5q2 -25 4 -108.5t2 -173.5v-434q0 -115 -7 -187.5t-39 -138.5t-102.5 -104.5t-191.5 -38.5q-301 0 -362 221q-12 43 -15.5 95t-3.5 153v434q0 94 3 164.5t16 132.5q8 43 17 63.5t24 38.5q-111 -12 -168 -12 q-53 0 -160 12zM604 1552q70 4 105 4h41q33 -2 38 -2q39 37 69 68t55.5 60.5t52 63.5t67.5 87q-82 -12 -123 -12q-43 0 -125 12q-18 -43 -34.5 -78t-36 -64.5t-46 -63.5t-63.5 -75z" />
<glyph unicode="&#xdb;" horiz-adv-x="1409" d="M88 1458q14 -25 22.5 -46t14.5 -59t9 -107.5t5 -186.5v-512v-2q2 -90 8.5 -152.5t24.5 -126t57 -118t105 -93.5q63 -39 161.5 -57t192.5 -18q119 0 218.5 19t172.5 73q59 43 96 95t54.5 107.5t24 108.5t10.5 133v2v539q2 94 5 156.5t8 102.5t13 71.5t21 68.5 q-90 -12 -135 -12q-61 0 -134 12q14 -31 20.5 -54.5t8.5 -60.5q2 -25 4 -108.5t2 -173.5v-434q0 -115 -7 -187.5t-39 -138.5t-102.5 -104.5t-191.5 -38.5q-301 0 -362 221q-12 43 -15.5 95t-3.5 153v434q0 94 3 164.5t16 132.5q8 43 17 63.5t24 38.5q-111 -12 -168 -12 q-53 0 -160 12zM371 1548q57 4 86 4t86 -4l6 6q47 39 72.5 66t72.5 84q41 -47 69 -74.5t89 -83.5q10 0 31 2q37 4 59 4q20 0 62 -4q31 -2 30 -2l-26.5 26.5t-34.5 36t-41 43t-35 38.5q-55 63 -100 143q-70 -8 -105 -8q-45 0 -92 6q-55 -82 -104.5 -142.5t-124.5 -140.5z" />
<glyph unicode="&#xdc;" horiz-adv-x="1409" d="M88 1458q14 -25 22.5 -46t14.5 -59t9 -107.5t5 -186.5v-512v-2q2 -90 8.5 -152.5t24.5 -126t57 -118t105 -93.5q63 -39 161.5 -57t192.5 -18q119 0 218.5 19t172.5 73q59 43 96 95t54.5 107.5t24 108.5t10.5 133v2v539q2 94 5 156.5t8 102.5t13 71.5t21 68.5 q-90 -12 -135 -12q-61 0 -134 12q14 -31 20.5 -54.5t8.5 -60.5q2 -25 4 -108.5t2 -173.5v-434q0 -115 -7 -187.5t-39 -138.5t-102.5 -104.5t-191.5 -38.5q-301 0 -362 221q-12 43 -15.5 95t-3.5 153v434q0 94 3 164.5t16 132.5q8 43 17 63.5t24 38.5q-111 -12 -168 -12 q-53 0 -160 12zM389 1692q0 -55 40 -95.5t95 -40.5t95 40t40 96q0 55 -39.5 95t-95.5 40q-55 0 -95 -40t-40 -95zM797 1692q0 -55 40 -95.5t95 -40.5t95 40t40 96q0 55 -40 95t-95 40t-95 -40t-40 -95z" />
<glyph unicode="&#xdd;" horiz-adv-x="1280" d="M0 1458q33 -39 83 -116.5t130 -227.5l166 -311q4 -6 10 -19q39 -72 62.5 -117.5t68.5 -142.5l2 -32q4 -78 5 -134.5t1 -152.5q0 -82 -8 -126t-26 -87q14 0 38 4q74 6 113 6t115 -6q10 -2 39 -4q-16 31 -23.5 48t-11.5 46t-6 74t-2 119q0 121 6 239l266 508 q55 100 84 151.5t54.5 95.5t49 83t64.5 102q-82 -14 -145 -14q-66 0 -134 10q-20 4 -26 4q0 -2 2 -6q4 -14 4 -29q0 -33 -19.5 -98t-70.5 -176q-35 -76 -66.5 -141.5t-54 -110.5t-53.5 -103.5t-47 -88.5l-215 440q-57 121 -80 185.5t-23 96.5q0 12 4 25q2 4 2 6h-6 q-113 -12 -168 -12q-61 0 -184 12zM539 1552q70 4 104 4h41q33 -2 39 -2q39 37 68.5 68t55 60.5t52.5 63.5t68 87q-82 -12 -123 -12q-43 0 -125 12q-18 -43 -34.5 -78t-36 -64.5t-46.5 -63.5t-63 -75z" />
<glyph unicode="&#xde;" horiz-adv-x="1150" d="M113 -8q29 2 41 4q84 6 127 6q74 0 161 -10q-14 20 -23 40.5t-16 59.5q-6 39 -10 93.5t-6 119.5q45 -2 86 -3t76 -1q47 0 93 3t106.5 15.5t123 40t111.5 72.5q70 66 102.5 158t32.5 196q0 121 -37 201t-102.5 124t-151.5 61.5t-194 17.5q-80 0 -209 -8q-27 -2 -39 -2 q0 100 16.5 167.5t36.5 110.5q-106 -12 -159 -12q-51 0 -156 12h-6q16 -39 25.5 -73.5t14.5 -85t8 -122t5 -219.5q2 -23 2 -45v-391v-10q-2 -150 -6 -253t-19 -169q-8 -39 -15 -59.5t-19 -38.5zM377 799q0 25 2 65v58l2 77v41q55 6 86 8.5t65 2.5q61 0 113.5 -6.5t109 -33 t94.5 -88t38 -161.5q0 -78 -26.5 -143.5t-80.5 -108.5q-55 -45 -122.5 -57.5t-141.5 -12.5q-35 0 -67.5 2t-67.5 4q0 41 -2 132q-2 137 -2 221z" />
<glyph unicode="&#xdf;" horiz-adv-x="1193" d="M119 -12l31 4q80 10 122 10q23 0 68 -4q20 -2 66 -6q-31 55 -41.5 113.5t-10.5 207.5v596q0 117 2 203v33v2q2 37 9.5 72.5t32 74.5t72.5 65.5t126 26.5q51 0 101.5 -14t84.5 -69q20 -31 30.5 -74t10.5 -82q0 -49 -15 -94t-42 -76q-45 -49 -110.5 -62.5t-157.5 -13.5v-6 q4 -49 4 -70q0 -27 -4 -75q123 0 190.5 -11.5t122.5 -56.5q47 -39 68.5 -98.5t21.5 -130.5q0 -47 -9 -99.5t-33.5 -102.5t-75 -83t-126.5 -33q-57 0 -89.5 17.5t-61.5 44.5h-2q-6 -63 -14.5 -100.5t-28.5 -96.5q29 -4 39 -6q57 -6 78.5 -8t50.5 -2q131 0 234.5 46t158.5 122 q41 57 62.5 137t21.5 164q0 111 -29.5 183.5t-79 111t-104.5 56t-123 25.5q-14 2 -33 5q-20 2 -35 4l56 6q131 23 204.5 106.5t73.5 220.5q0 98 -35.5 165t-97 105t-136.5 53t-163 15q-94 0 -183 -21.5t-147 -66.5q-74 -59 -98 -145t-24 -234v-67q2 -4 3 -81t3 -128v-367 q0 -174 -4 -264v-4q-2 -59 -9.5 -85t-25.5 -58z" />
<glyph unicode="&#xe0;" horiz-adv-x="1150" d="M82 334q0 -158 93 -254t243 -96q117 0 186.5 42t112.5 93l2 2q33 37 48 65.5t28 63.5v2v-152q0 -25 2 -30q2 -57 4 -80q86 12 131 12t131 -12q-45 61 -57.5 112.5t-12.5 169.5v516q-4 117 -26.5 184.5t-104.5 117.5q-57 35 -121.5 47t-128.5 12q-143 0 -256.5 -33 t-224.5 -84l-6 -2q33 -61 44 -91t24 -89q59 78 166.5 127t209.5 49q66 0 108 -21.5t65.5 -58.5t32.5 -83t9 -101v-53q-55 2 -139 2q-55 0 -108.5 -3t-114 -14.5t-118.5 -36t-105 -63.5q-68 -57 -92.5 -124t-24.5 -136zM270 1538q53 -78 117 -149.5t127 -126.5q8 0 47 2h45 h47q37 -2 45 -2q-43 51 -76.5 95t-53 73.5t-32 53t-26.5 56.5h-6q-76 -12 -113 -12q-31 0 -88 6q-23 4 -33 4zM303 334q0 57 18.5 100t45 72t56.5 45t54 24q33 10 78 15.5t86 5.5q72 0 143 -10v-2q-6 -133 -23.5 -207t-80.5 -146q-37 -41 -83 -64.5t-110 -23.5 q-92 0 -138 57.5t-46 133.5z" />
<glyph unicode="&#xe1;" horiz-adv-x="1150" d="M82 334q0 -158 93 -254t243 -96q117 0 186.5 42t112.5 93l2 2q33 37 48 65.5t28 63.5v2v-152q0 -25 2 -30q2 -57 4 -80q86 12 131 12t131 -12q-45 61 -57.5 112.5t-12.5 169.5v516q-4 117 -26.5 184.5t-104.5 117.5q-57 35 -121.5 47t-128.5 12q-143 0 -256.5 -33 t-224.5 -84l-6 -2q33 -61 44 -91t24 -89q59 78 166.5 127t209.5 49q66 0 108 -21.5t65.5 -58.5t32.5 -83t9 -101v-53q-55 2 -139 2q-55 0 -108.5 -3t-114 -14.5t-118.5 -36t-105 -63.5q-68 -57 -92.5 -124t-24.5 -136zM303 334q0 57 18.5 100t45 72t56.5 45t54 24 q33 10 78 15.5t86 5.5q72 0 143 -10v-2q-6 -133 -23.5 -207t-80.5 -146q-37 -41 -83 -64.5t-110 -23.5q-92 0 -138 57.5t-46 133.5zM469 1260h10q61 4 94 4h39q25 -2 43 -2q47 47 77 78.5t53.5 57t46 54.5t67.5 88q-86 -12 -129 -12q-39 0 -121 12q-23 -53 -39 -86 t-33.5 -59.5t-40 -55t-67.5 -79.5z" />
<glyph unicode="&#xe2;" horiz-adv-x="1150" d="M82 334q0 -158 93 -254t243 -96q117 0 186.5 42t112.5 93l2 2q33 37 48 65.5t28 63.5v2v-152q0 -25 2 -30q2 -57 4 -80q86 12 131 12t131 -12q-45 61 -57.5 112.5t-12.5 169.5v516q-4 117 -26.5 184.5t-104.5 117.5q-57 35 -121.5 47t-128.5 12q-143 0 -256.5 -33 t-224.5 -84l-6 -2q33 -61 44 -91t24 -89q59 78 166.5 127t209.5 49q66 0 108 -21.5t65.5 -58.5t32.5 -83t9 -101v-53q-55 2 -139 2q-55 0 -108.5 -3t-114 -14.5t-118.5 -36t-105 -63.5q-68 -57 -92.5 -124t-24.5 -136zM252 1255q53 4 82 5q45 0 90 -7q35 31 79 77t72 79 q41 -47 80 -84t80 -65q10 0 29 2q35 4 55 4t60 -4l28 -2q-51 49 -86 84.5t-57.5 62.5t-40.5 55.5t-45 73.5q-12 0 -35 -2q-43 -4 -68 -4q-47 0 -96 6q-41 -59 -63.5 -90t-46 -59.5t-49 -57.5t-68.5 -74zM303 334q0 57 18.5 100t45 72t56.5 45t54 24q33 10 78 15.5t86 5.5 q72 0 143 -10v-2q-6 -133 -23.5 -207t-80.5 -146q-37 -41 -83 -64.5t-110 -23.5q-92 0 -138 57.5t-46 133.5z" />
<glyph unicode="&#xe3;" horiz-adv-x="1150" d="M82 334q0 -158 93 -254t243 -96q117 0 186.5 42t112.5 93l2 2q33 37 48 65.5t28 63.5v2v-152q0 -25 2 -30q2 -57 4 -80q86 12 131 12t131 -12q-45 61 -57.5 112.5t-12.5 169.5v516q-4 117 -26.5 184.5t-104.5 117.5q-57 35 -121.5 47t-128.5 12q-143 0 -256.5 -33 t-224.5 -84l-6 -2q33 -61 44 -91t24 -89q59 78 166.5 127t209.5 49q66 0 108 -21.5t65.5 -58.5t32.5 -83t9 -101v-53q-55 2 -139 2q-55 0 -108.5 -3t-114 -14.5t-118.5 -36t-105 -63.5q-68 -57 -92.5 -124t-24.5 -136zM266 1260q20 37 55 66.5t107 29.5q43 0 80 -8.5 t92 -28.5l6 -2q63 -20 105.5 -31.5t76.5 -11.5q63 0 91 41q8 16 11 31.5t5 37.5v160q-10 -25 -23 -37q-16 -23 -53 -42t-94 -19q-63 0 -160 35q-61 23 -112.5 37t-83.5 14q-35 0 -55.5 -13.5t-31 -32t-13.5 -35.5t-3 -30v-161zM303 334q0 57 18.5 100t45 72t56.5 45t54 24 q33 10 78 15.5t86 5.5q72 0 143 -10v-2q-6 -133 -23.5 -207t-80.5 -146q-37 -41 -83 -64.5t-110 -23.5q-92 0 -138 57.5t-46 133.5z" />
<glyph unicode="&#xe4;" horiz-adv-x="1150" d="M82 334q0 -158 93 -254t243 -96q117 0 186.5 42t112.5 93l2 2q33 37 48 65.5t28 63.5v2v-152q0 -25 2 -30q2 -57 4 -80q86 12 131 12t131 -12q-45 61 -57.5 112.5t-12.5 169.5v516q-4 117 -26.5 184.5t-104.5 117.5q-57 35 -121.5 47t-128.5 12q-143 0 -256.5 -33 t-224.5 -84l-6 -2q33 -61 44 -91t24 -89q59 78 166.5 127t209.5 49q66 0 108 -21.5t65.5 -58.5t32.5 -83t9 -101v-53q-55 2 -139 2q-55 0 -108.5 -3t-114 -14.5t-118.5 -36t-105 -63.5q-68 -57 -92.5 -124t-24.5 -136zM215 1397q0 -55 40 -95t95 -40t95 39.5t40 95.5 q0 55 -39.5 95t-95.5 40q-55 0 -95 -40t-40 -95zM303 334q0 57 18.5 100t45 72t56.5 45t54 24q33 10 78 15.5t86 5.5q72 0 143 -10v-2q-6 -133 -23.5 -207t-80.5 -146q-37 -41 -83 -64.5t-110 -23.5q-92 0 -138 57.5t-46 133.5zM623 1397q0 -55 40 -95t95 -40t95 39.5 t40 95.5q0 55 -40 95t-95 40t-95 -40t-40 -95z" />
<glyph unicode="&#xe5;" horiz-adv-x="1150" d="M82 334q0 -158 93 -254t243 -96q117 0 186.5 42t112.5 93l2 2q33 37 48 65.5t28 63.5v2v-152q0 -25 2 -30q2 -57 4 -80q86 12 131 12t131 -12q-45 61 -57.5 112.5t-12.5 169.5v516q-4 117 -26.5 184.5t-104.5 117.5q-57 35 -121.5 47t-128.5 12q-143 0 -256.5 -33 t-224.5 -84l-6 -2q33 -61 44 -91t24 -89q59 78 166.5 127t209.5 49q66 0 108 -21.5t65.5 -58.5t32.5 -83t9 -101v-53q-55 2 -139 2q-55 0 -108.5 -3t-114 -14.5t-118.5 -36t-105 -63.5q-68 -57 -92.5 -124t-24.5 -136zM303 334q0 57 18.5 100t45 72t56.5 45t54 24 q33 10 78 15.5t86 5.5q72 0 143 -10v-2q-6 -133 -23.5 -207t-80.5 -146q-37 -41 -83 -64.5t-110 -23.5q-92 0 -138 57.5t-46 133.5zM387 1399q0 -70 48 -119t118 -49t119 49t49 119t-49 118t-119 48t-118 -48.5t-48 -117.5zM461 1399q0 37 26.5 64.5t65.5 27.5t66.5 -26.5 t27.5 -65.5t-27.5 -66.5t-66.5 -27.5t-65.5 27.5t-26.5 66.5z" />
<glyph unicode="&#xe6;" horiz-adv-x="1792" d="M80 334q0 -150 90 -250t250 -100q82 0 150.5 28.5t120.5 72.5t87 88t66 93q33 -63 84 -120.5t153 -102.5q131 -59 301 -59q74 0 133.5 10t131.5 31q6 68 13 103.5t30 104.5q-51 -53 -108.5 -83.5t-166.5 -30.5q-119 0 -195.5 38t-117.5 85q-57 63 -76.5 140t-30.5 204 h727q0 23 2 51v45q0 248 -137 367q-51 45 -126 72.5t-173 27.5q-133 0 -211 -37t-139 -90q-55 57 -122.5 92t-197.5 35q-258 0 -495 -121q31 -57 43 -87t24 -93q57 74 163 125t198 51q72 0 118 -20.5t70.5 -57.5t33.5 -82t9 -102v-64h-139h-4q-66 0 -120 -3t-112.5 -13 t-114.5 -32.5t-99 -59.5q-39 -31 -63 -69t-34 -73.5t-13 -63.5t-3 -50zM301 338q0 82 44 141.5t124 85.5q63 18 215 23h98q0 -121 -27.5 -207t-71.5 -138.5t-94 -76t-100 -23.5q-90 0 -139 56.5t-49 138.5zM997 698q6 82 26.5 146.5t78.5 120.5q74 68 172 67q80 0 129 -37 t71.5 -92t28.5 -102t8 -101v-2h-514z" />
<glyph unicode="&#xe7;" horiz-adv-x="937" d="M80 565q0 -244 118.5 -388t338.5 -181l16 -4l-57 -182h4q43 14 75 14q41 0 69 -19.5t28 -60.5q0 -55 -33 -82t-76 -27q-29 0 -45 8.5t-35 26.5q-10 -41 -16 -61.5t-23 -57.5q18 -4 40 -6t48 -2q106 0 185.5 64.5t79.5 148.5q0 106 -101 129q-23 6 -45 6l-12 -2h-16l26 95 q80 0 129 5t105 17q8 63 15 92t28 84q-43 -33 -88 -52t-127 -19q-129 0 -213 52t-126 130t-57.5 154.5t-15.5 140.5q0 63 14.5 134t52 137.5t108.5 110.5t177 44q94 0 148.5 -28t95.5 -68q14 66 22.5 96t30.5 90q-74 23 -139.5 35t-149.5 12q-80 0 -160.5 -17.5 t-154.5 -58.5t-133 -108.5t-94 -165.5q-16 -45 -26.5 -102.5t-10.5 -133.5z" />
<glyph unicode="&#xe8;" horiz-adv-x="1110" d="M78 573q0 -276 158.5 -432.5t439.5 -156.5q92 0 160.5 11t130.5 30q6 66 13 103.5t30 104.5l-2 -2q-51 -53 -111.5 -82.5t-183.5 -29.5q-111 0 -200 38t-146 138q-35 61 -47.5 118.5t-20.5 135.5v6h739q4 43 5 70.5t1 50.5q0 96 -25.5 185t-74.5 149q-59 72 -151.5 106.5 t-196.5 34.5q-127 0 -223.5 -42t-155.5 -105q-74 -80 -106.5 -191t-32.5 -240zM250 1538q53 -78 116.5 -149.5t127.5 -126.5q8 0 47 2h45h47q37 -2 45 -2q-43 51 -77 95t-53.5 73.5t-32 53t-26.5 56.5h-6q-76 -12 -112 -12q-31 0 -88 6q-23 4 -33 4zM297 676 q6 94 27.5 166.5t83.5 128.5q33 29 74.5 46t97.5 17q131 0 196 -100q35 -51 44 -111.5t9 -146.5h-532z" />
<glyph unicode="&#xe9;" horiz-adv-x="1110" d="M78 573q0 -276 158.5 -432.5t439.5 -156.5q92 0 160.5 11t130.5 30q6 66 13 103.5t30 104.5l-2 -2q-51 -53 -111.5 -82.5t-183.5 -29.5q-111 0 -200 38t-146 138q-35 61 -47.5 118.5t-20.5 135.5v6h739q4 43 5 70.5t1 50.5q0 96 -25.5 185t-74.5 149q-59 72 -151.5 106.5 t-196.5 34.5q-127 0 -223.5 -42t-155.5 -105q-74 -80 -106.5 -191t-32.5 -240zM297 676q6 94 27.5 166.5t83.5 128.5q33 29 74.5 46t97.5 17q131 0 196 -100q35 -51 44 -111.5t9 -146.5h-532zM449 1260h10q61 4 94 4h39q25 -2 43 -2q47 47 76.5 78.5t53 57t46.5 54.5t68 88 q-86 -12 -129 -12q-39 0 -121 12q-23 -53 -39.5 -86t-33.5 -59.5t-39.5 -55t-67.5 -79.5z" />
<glyph unicode="&#xea;" horiz-adv-x="1110" d="M78 573q0 -276 158.5 -432.5t439.5 -156.5q92 0 160.5 11t130.5 30q6 66 13 103.5t30 104.5l-2 -2q-51 -53 -111.5 -82.5t-183.5 -29.5q-111 0 -200 38t-146 138q-35 61 -47.5 118.5t-20.5 135.5v6h739q4 43 5 70.5t1 50.5q0 96 -25.5 185t-74.5 149q-59 72 -151.5 106.5 t-196.5 34.5q-127 0 -223.5 -42t-155.5 -105q-74 -80 -106.5 -191t-32.5 -240zM231 1255q53 4 82 5q45 0 90 -7q35 31 79 77t73 79q41 -47 80 -84t80 -65q10 0 28 2q35 4 56 4q20 0 59 -4l29 -2q-51 49 -86 84.5t-57.5 62.5t-41 55.5t-45.5 73.5q-12 0 -34 -2q-43 -4 -68 -4 q-47 0 -96 6q-41 -59 -63.5 -90t-46 -59.5t-49.5 -57.5t-69 -74zM297 676q6 94 27.5 166.5t83.5 128.5q33 29 74.5 46t97.5 17q131 0 196 -100q35 -51 44 -111.5t9 -146.5h-532z" />
<glyph unicode="&#xeb;" horiz-adv-x="1110" d="M78 573q0 -276 158.5 -432.5t439.5 -156.5q92 0 160.5 11t130.5 30q6 66 13 103.5t30 104.5l-2 -2q-51 -53 -111.5 -82.5t-183.5 -29.5q-111 0 -200 38t-146 138q-35 61 -47.5 118.5t-20.5 135.5v6h739q4 43 5 70.5t1 50.5q0 96 -25.5 185t-74.5 149q-59 72 -151.5 106.5 t-196.5 34.5q-127 0 -223.5 -42t-155.5 -105q-74 -80 -106.5 -191t-32.5 -240zM213 1397q0 -55 40 -95t95 -40t95 39.5t40 95.5q0 55 -40 95t-95 40t-95 -40t-40 -95zM297 676q6 94 27.5 166.5t83.5 128.5q33 29 74.5 46t97.5 17q131 0 196 -100q35 -51 44 -111.5t9 -146.5 h-532zM621 1397q0 -55 40 -95t95 -40t95 39.5t40 95.5q0 55 -40 95t-95 40t-95 -40t-40 -95z" />
<glyph unicode="&#xec;" horiz-adv-x="512" d="M-49 1538q53 -78 116.5 -149.5t127.5 -126.5q8 0 47 2h45h47q37 -2 45 -2q-43 51 -77 95t-53.5 73.5t-32 53t-26.5 56.5h-6q-76 -12 -112 -12q-31 0 -88 6q-23 4 -33 4zM88 1112l2 -2q20 -20 29.5 -36.5t17.5 -49.5q12 -49 16.5 -131t6.5 -221v-2v-344q0 -88 -1 -137.5 t-3 -78t-7.5 -51t-15.5 -61.5l-2 -4q86 8 133 8q43 0 127 -8h6q-12 43 -18 70.5t-10 62.5t-7.5 77t-5.5 124v483q2 154 6.5 221.5t18.5 136.5q-53 -18 -84 -28.5t-61.5 -16.5t-63.5 -8t-84 -4z" />
<glyph unicode="&#xed;" horiz-adv-x="512" d="M88 1112l2 -2q20 -20 29.5 -36.5t17.5 -49.5q12 -49 16.5 -131t6.5 -221v-2v-344q0 -88 -1 -137.5t-3 -78t-7.5 -51t-15.5 -61.5l-2 -4q86 8 133 8q43 0 127 -8h6q-12 43 -18 70.5t-10 62.5t-7.5 77t-5.5 124v483q2 154 6.5 221.5t18.5 136.5q-53 -18 -84 -28.5 t-61.5 -16.5t-63.5 -8t-84 -4zM150 1260h10q61 4 94 4h39q25 -2 43 -2q47 47 76.5 78.5t53 57t46.5 54.5t68 88q-86 -12 -129 -12q-39 0 -121 12q-23 -53 -39.5 -86t-33.5 -59.5t-39.5 -55t-67.5 -79.5z" />
<glyph unicode="&#xee;" horiz-adv-x="512" d="M-68 1255q53 4 82 5q43 0 90 -7q35 31 79 77t73 79q41 -47 80 -84t80 -65q10 0 28 2q35 4 56 4q20 0 59 -4l29 -2q-51 49 -86 84.5t-57.5 62.5t-41 55.5t-45.5 73.5q-12 0 -34 -2q-43 -4 -68 -4q-47 0 -96 6q-41 -59 -63.5 -90t-46 -59.5t-49.5 -57.5t-69 -74zM88 1112 l2 -2q20 -20 29.5 -36.5t17.5 -49.5q12 -49 16.5 -131t6.5 -221v-2v-344q0 -88 -1 -137.5t-3 -78t-7.5 -51t-15.5 -61.5l-2 -4q86 8 133 8q43 0 127 -8h6q-12 43 -18 70.5t-10 62.5t-7.5 77t-5.5 124v483q2 154 6.5 221.5t18.5 136.5q-53 -18 -84 -28.5t-61.5 -16.5 t-63.5 -8t-84 -4z" />
<glyph unicode="&#xef;" horiz-adv-x="512" d="M-86 1397q0 -55 40 -95t95 -40t95 39.5t40 95.5q0 55 -40 95t-95 40t-95 -40t-40 -95zM88 1112l2 -2q20 -20 29.5 -36.5t17.5 -49.5q12 -49 16.5 -131t6.5 -221v-2v-344q0 -88 -1 -137.5t-3 -78t-7.5 -51t-15.5 -61.5l-2 -4q86 8 133 8q43 0 127 -8h6q-12 43 -18 70.5 t-10 62.5t-7.5 77t-5.5 124v483q2 154 6.5 221.5t18.5 136.5q-53 -18 -84 -28.5t-61.5 -16.5t-63.5 -8t-84 -4zM322 1397q0 -55 40 -95t95 -40t95 39.5t40 95.5q0 55 -40 95t-95 40t-95 -40t-40 -95z" />
<glyph unicode="&#xf0;" d="M80 559q0 -49 4 -97t17.5 -105.5t43 -115t76.5 -106.5t102.5 -80.5t109.5 -47t102.5 -20.5t91.5 -5t86 4t94 19t105.5 47t99.5 81q51 55 81.5 124t45 136.5t18.5 119.5t4 101q0 203 -52 386.5t-161 330.5q31 8 49 12q43 12 51.5 14.5t28.5 4.5q-35 68 -49 119 q-27 -10 -52.5 -18.5t-113.5 -32.5q-43 45 -59.5 63t-38.5 47l-2 2q-45 -31 -114.5 -56.5t-131.5 -37.5q8 -6 12 -6q51 -31 66.5 -41t42.5 -31l-188 -49q-12 -2 -23 -6q-51 -12 -65.5 -14.5t-34.5 -4.5q12 -18 18 -34.5t25 -61.5l8 -22q16 6 72 22q25 6 47 14l249 66 q51 -51 81 -103.5t48 -109.5l-4 2q-25 23 -54.5 40t-80.5 30q-57 14 -125 14q-111 0 -212 -40t-171 -109q-51 -51 -81.5 -114t-44 -124t-17.5 -109.5t-4 -97.5zM293 565q0 31 2 70t10 90t24.5 99t43.5 83q39 49 104.5 82t151.5 33q96 0 159.5 -40t96.5 -104.5t46 -138 t13 -153.5q0 -12 -2 -33v-27q-2 -66 -11 -128t-40 -129.5t-96.5 -112.5t-169.5 -45q-106 0 -174 45t-102 115.5t-45 144t-11 149.5z" />
<glyph unicode="&#xf1;" d="M68 1108q33 -29 49 -60.5t26 -117.5q12 -123 13 -314v-317q0 -113 -7.5 -187.5t-19.5 -121.5q82 12 129 12q43 0 129 -12q-23 66 -28 133t-5 205v129q0 190 14.5 286.5t75.5 161.5q49 53 110.5 70.5t119.5 17.5q72 0 114.5 -22.5t61 -59.5t23 -76.5t4.5 -99.5v-319 q0 -197 -5 -258q-2 -43 -9 -84t-17 -84q14 0 37 4q66 6 102 6q33 0 102 -8q20 -2 31 -2q-20 47 -27.5 112.5t-9.5 167.5v4v447q0 154 -11 216t-48 112q-29 37 -63.5 58t-68.5 30.5t-62.5 11.5t-59.5 2q-156 0 -249 -57.5t-161 -194.5v105q0 117 2 163q-82 -31 -160.5 -45 t-131.5 -14zM309 1260q20 37 55 66.5t107 29.5q43 0 80 -8.5t92 -28.5l6 -2q63 -20 105.5 -31.5t76.5 -11.5q63 0 91 41q8 16 11 31.5t5 37.5v160q-10 -25 -23 -37q-16 -23 -53 -42t-94 -19q-63 0 -160 35q-61 23 -112.5 37t-83.5 14q-35 0 -55.5 -13.5t-31 -32t-13.5 -35.5 t-3 -30v-161z" />
<glyph unicode="&#xf2;" d="M78 559q0 -51 4 -98t17.5 -104.5t43 -115t76.5 -106.5t102.5 -80.5t111.5 -47t102.5 -20.5t89.5 -5q250 0 392 154.5t142 441.5q0 41 -3 85t-16.5 103t-44 121.5t-79.5 113.5q-66 70 -168.5 111t-229.5 41q-123 0 -224 -40t-169 -109q-51 -51 -81.5 -114t-44 -124 t-17.5 -109.5t-4 -97.5zM291 565q0 86 12 163t47 143.5t103.5 108.5t177.5 42t174 -51t94 -126t36 -142.5t7 -137.5q0 -80 -9 -152.5t-41 -142t-98.5 -114.5t-170.5 -45q-106 0 -174 45t-102 115.5t-45 144t-11 149.5zM313 1538q53 -78 117 -149.5t127 -126.5q8 0 47 2h45 h47q37 -2 45 -2q-43 51 -76.5 95t-53 73.5t-32 53t-26.5 56.5h-6q-76 -12 -113 -12q-31 0 -88 6q-23 4 -33 4z" />
<glyph unicode="&#xf3;" d="M78 559q0 -51 4 -98t17.5 -104.5t43 -115t76.5 -106.5t102.5 -80.5t111.5 -47t102.5 -20.5t89.5 -5q250 0 392 154.5t142 441.5q0 41 -3 85t-16.5 103t-44 121.5t-79.5 113.5q-66 70 -168.5 111t-229.5 41q-123 0 -224 -40t-169 -109q-51 -51 -81.5 -114t-44 -124 t-17.5 -109.5t-4 -97.5zM291 565q0 86 12 163t47 143.5t103.5 108.5t177.5 42t174 -51t94 -126t36 -142.5t7 -137.5q0 -80 -9 -152.5t-41 -142t-98.5 -114.5t-170.5 -45q-106 0 -174 45t-102 115.5t-45 144t-11 149.5zM512 1260h10q61 4 94 4h39q25 -2 43 -2q47 47 77 78.5 t53.5 57t46 54.5t67.5 88q-86 -12 -129 -12q-39 0 -121 12q-23 -53 -39 -86t-33.5 -59.5t-40 -55t-67.5 -79.5z" />
<glyph unicode="&#xf4;" d="M78 559q0 -51 4 -98t17.5 -104.5t43 -115t76.5 -106.5t102.5 -80.5t111.5 -47t102.5 -20.5t89.5 -5q250 0 392 154.5t142 441.5q0 41 -3 85t-16.5 103t-44 121.5t-79.5 113.5q-66 70 -168.5 111t-229.5 41q-123 0 -224 -40t-169 -109q-51 -51 -81.5 -114t-44 -124 t-17.5 -109.5t-4 -97.5zM291 565q0 86 12 163t47 143.5t103.5 108.5t177.5 42t174 -51t94 -126t36 -142.5t7 -137.5q0 -80 -9 -152.5t-41 -142t-98.5 -114.5t-170.5 -45q-106 0 -174 45t-102 115.5t-45 144t-11 149.5zM295 1255q53 4 82 5q45 0 90 -7q35 31 79 77t72 79 q41 -47 80 -84t80 -65q10 0 29 2q35 4 55 4t60 -4l28 -2q-51 49 -86 84.5t-57.5 62.5t-40.5 55.5t-45 73.5q-12 0 -35 -2q-43 -4 -68 -4q-47 0 -96 6q-41 -59 -63.5 -90t-46 -59.5t-49 -57.5t-68.5 -74z" />
<glyph unicode="&#xf5;" d="M78 559q0 -51 4 -98t17.5 -104.5t43 -115t76.5 -106.5t102.5 -80.5t111.5 -47t102.5 -20.5t89.5 -5q250 0 392 154.5t142 441.5q0 41 -3 85t-16.5 103t-44 121.5t-79.5 113.5q-66 70 -168.5 111t-229.5 41q-123 0 -224 -40t-169 -109q-51 -51 -81.5 -114t-44 -124 t-17.5 -109.5t-4 -97.5zM291 565q0 86 12 163t47 143.5t103.5 108.5t177.5 42t174 -51t94 -126t36 -142.5t7 -137.5q0 -80 -9 -152.5t-41 -142t-98.5 -114.5t-170.5 -45q-106 0 -174 45t-102 115.5t-45 144t-11 149.5zM309 1260q20 37 55 66.5t107 29.5q43 0 80 -8.5 t92 -28.5l6 -2q63 -20 105.5 -31.5t76.5 -11.5q63 0 91 41q8 16 11 31.5t5 37.5v160q-10 -25 -23 -37q-16 -23 -53 -42t-94 -19q-63 0 -160 35q-61 23 -112.5 37t-83.5 14q-35 0 -55.5 -13.5t-31 -32t-13.5 -35.5t-3 -30v-161z" />
<glyph unicode="&#xf6;" d="M78 559q0 -51 4 -98t17.5 -104.5t43 -115t76.5 -106.5t102.5 -80.5t111.5 -47t102.5 -20.5t89.5 -5q250 0 392 154.5t142 441.5q0 41 -3 85t-16.5 103t-44 121.5t-79.5 113.5q-66 70 -168.5 111t-229.5 41q-123 0 -224 -40t-169 -109q-51 -51 -81.5 -114t-44 -124 t-17.5 -109.5t-4 -97.5zM281 1397q0 -55 40 -95t95 -40t95 39.5t40 95.5q0 55 -40 95t-95 40t-95 -40t-40 -95zM291 565q0 86 12 163t47 143.5t103.5 108.5t177.5 42t174 -51t94 -126t36 -142.5t7 -137.5q0 -80 -9 -152.5t-41 -142t-98.5 -114.5t-170.5 -45q-106 0 -174 45 t-102 115.5t-45 144t-11 149.5zM688 1397q0 -55 40 -95t95 -40t95 39.5t40 95.5q0 55 -39.5 95t-95.5 40q-55 0 -95 -40t-40 -95z" />
<glyph unicode="&#xf7;" horiz-adv-x="1366" d="M0 514h1364v162h-1364v-162zM569 297q0 -47 33 -80t82 -33q53 0 85 34t32 81t-33 81t-82 34q-51 0 -84 -35t-33 -82zM569 889q0 -47 33 -80t82 -33q53 0 85 34t32 81t-33 81t-82 34q-51 0 -84 -34t-33 -83z" />
<glyph unicode="&#xf8;" d="M80 551q0 -88 14.5 -156.5t36 -117t44 -79t54.5 -67.5q-33 -45 -53 -69.5t-61 -69.5q49 -25 69.5 -38t59.5 -48q18 55 31.5 80.5t48.5 72.5q61 -33 129.5 -54t177.5 -21q168 0 281.5 72.5t168.5 170.5q41 72 60.5 169.5t19.5 189.5q0 102 -18.5 178t-47 128t-57 83 t-61.5 57q35 51 52.5 73.5t62.5 70.5q-47 25 -69 39t-58 47q-23 -59 -37.5 -87t-48.5 -81q-109 55 -261 55q-111 0 -210 -36t-175 -109q-82 -82 -117.5 -199t-35.5 -254zM289 559q0 133 21.5 217t66.5 137q45 55 112.5 84t143.5 29q49 0 97 -12.5t77 -30.5l-475 -700 q-25 57 -34 130.5t-9 145.5zM401 180l484 719q35 -55 51 -119.5t16 -189.5q0 -190 -43 -302t-143 -157q-33 -16 -64.5 -21.5t-62.5 -5.5q-86 0 -137 20.5t-99 55.5h-2z" />
<glyph unicode="&#xf9;" horiz-adv-x="1193" d="M86 1110l2 -2q20 -25 30.5 -44.5t18.5 -59.5q12 -70 17 -230v-467v-8q2 -63 10 -105t37 -85q31 -47 70.5 -72t90.5 -37q55 -14 117 -14q86 0 148.5 25.5t102.5 63.5t63.5 79t42.5 84l2 -246h6q86 12 131 12q63 0 125 -12l-4 4q-18 25 -30.5 48.5t-18.5 68.5 q-8 53 -12.5 143t-4.5 156v485q0 104 5 155.5t20 116.5q-55 -27 -144.5 -43t-146.5 -16q20 -18 30.5 -37.5t16.5 -62.5q10 -53 16 -213l2 -37v-174q-2 -127 -14 -194.5t-57 -133.5q-35 -47 -82 -76.5t-121 -29.5q-70 0 -112 23.5t-60 58t-23.5 67.5t-7.5 78v4v508v6 q0 55 1 102.5t3 74t6.5 46t12.5 49.5q-41 -27 -130 -43t-159 -16zM295 1538q53 -78 116.5 -149.5t127.5 -126.5q8 0 47 2h45h47q37 -2 45 -2q-43 51 -77 95t-53.5 73.5t-31.5 53t-26 56.5h-7q-76 -12 -112 -12q-31 0 -88 6q-23 4 -33 4z" />
<glyph unicode="&#xfa;" horiz-adv-x="1193" d="M86 1110l2 -2q20 -25 30.5 -44.5t18.5 -59.5q12 -70 17 -230v-467v-8q2 -63 10 -105t37 -85q31 -47 70.5 -72t90.5 -37q55 -14 117 -14q86 0 148.5 25.5t102.5 63.5t63.5 79t42.5 84l2 -246h6q86 12 131 12q63 0 125 -12l-4 4q-18 25 -30.5 48.5t-18.5 68.5 q-8 53 -12.5 143t-4.5 156v485q0 104 5 155.5t20 116.5q-55 -27 -144.5 -43t-146.5 -16q20 -18 30.5 -37.5t16.5 -62.5q10 -53 16 -213l2 -37v-174q-2 -127 -14 -194.5t-57 -133.5q-35 -47 -82 -76.5t-121 -29.5q-70 0 -112 23.5t-60 58t-23.5 67.5t-7.5 78v4v508v6 q0 55 1 102.5t3 74t6.5 46t12.5 49.5q-41 -27 -130 -43t-159 -16zM494 1260h10q61 4 94 4h39q25 -2 43 -2q47 47 76.5 78.5t53.5 57t46.5 54.5t67.5 88q-86 -12 -129 -12q-39 0 -121 12q-23 -53 -39.5 -86t-33.5 -59.5t-39.5 -55t-67.5 -79.5z" />
<glyph unicode="&#xfb;" horiz-adv-x="1193" d="M86 1110l2 -2q20 -25 30.5 -44.5t18.5 -59.5q12 -70 17 -230v-467v-8q2 -63 10 -105t37 -85q31 -47 70.5 -72t90.5 -37q55 -14 117 -14q86 0 148.5 25.5t102.5 63.5t63.5 79t42.5 84l2 -246h6q86 12 131 12q63 0 125 -12l-4 4q-18 25 -30.5 48.5t-18.5 68.5 q-8 53 -12.5 143t-4.5 156v485q0 104 5 155.5t20 116.5q-55 -27 -144.5 -43t-146.5 -16q20 -18 30.5 -37.5t16.5 -62.5q10 -53 16 -213l2 -37v-174q-2 -127 -14 -194.5t-57 -133.5q-35 -47 -82 -76.5t-121 -29.5q-70 0 -112 23.5t-60 58t-23.5 67.5t-7.5 78v4v508v6 q0 55 1 102.5t3 74t6.5 46t12.5 49.5q-41 -27 -130 -43t-159 -16zM276 1255q53 4 82 5q45 0 91 -7q35 31 78.5 77t72.5 79q41 -47 80 -84t80 -65q10 0 28 2q35 4 56 4q20 0 59 -4l29 -2q-51 49 -86 84.5t-57.5 62.5t-41 55.5t-45.5 73.5q-12 0 -34 -2q-43 -4 -68 -4 q-47 0 -96 6q-41 -59 -63.5 -90t-46 -59.5t-49.5 -57.5t-69 -74z" />
<glyph unicode="&#xfc;" horiz-adv-x="1193" d="M86 1110l2 -2q20 -25 30.5 -44.5t18.5 -59.5q12 -70 17 -230v-467v-8q2 -63 10 -105t37 -85q31 -47 70.5 -72t90.5 -37q55 -14 117 -14q86 0 148.5 25.5t102.5 63.5t63.5 79t42.5 84l2 -246h6q86 12 131 12q63 0 125 -12l-4 4q-18 25 -30.5 48.5t-18.5 68.5 q-8 53 -12.5 143t-4.5 156v485q0 104 5 155.5t20 116.5q-55 -27 -144.5 -43t-146.5 -16q20 -18 30.5 -37.5t16.5 -62.5q10 -53 16 -213l2 -37v-174q-2 -127 -14 -194.5t-57 -133.5q-35 -47 -82 -76.5t-121 -29.5q-70 0 -112 23.5t-60 58t-23.5 67.5t-7.5 78v4v508v6 q0 55 1 102.5t3 74t6.5 46t12.5 49.5q-41 -27 -130 -43t-159 -16zM248 1397q0 -55 40 -95t95 -40t95 39.5t40 95.5q0 55 -40 95t-95 40t-95 -40t-40 -95zM655 1397q0 -55 40.5 -95t95.5 -40t95 39.5t40 95.5q0 55 -40 95t-95 40t-95.5 -40t-40.5 -95z" />
<glyph unicode="&#xfd;" horiz-adv-x="1110" d="M-2 1143q23 -33 71 -130.5t103 -250.5q20 -57 46 -132t67 -195t53 -159q20 -63 32.5 -107t41.5 -146q8 -25 8 -29q35 4 53.5 5t65.5 1l-33 -78v-2q-18 -39 -36.5 -73.5t-48.5 -68.5t-71 -55.5t-94 -21.5q-55 0 -94 39q-8 -74 -18.5 -117t-37.5 -106q23 -2 25 -2 q33 -2 55 -2q47 0 100.5 9t94.5 23q61 23 108.5 65t80 95t56 108.5t54.5 139.5l278 823q29 84 51.5 143.5t39 98.5t30 64.5t33.5 58.5q-90 -8 -137 -8t-141 8q2 -6 2 -8q10 -29 10 -62q0 -43 -15.5 -118.5t-52.5 -196.5q0 -2 -51 -170q-68 -213 -87 -281.5t-32.5 -113 t-15.5 -60.5l-189 567q-47 145 -67.5 231.5t-20.5 147.5q0 20 2 33.5t7 32.5q-115 -12 -174 -13q-78 0 -152 13zM449 1260h10q61 4 94 4h39q25 -2 43 -2q47 47 76.5 78.5t53 57t46.5 54.5t68 88q-86 -12 -129 -12q-39 0 -121 12q-23 -53 -39.5 -86t-33.5 -59.5t-39.5 -55 t-67.5 -79.5z" />
<glyph unicode="&#xfe;" horiz-adv-x="1193" d="M63 1450q29 -20 45.5 -43t26.5 -78q10 -51 14.5 -118.5t6.5 -157.5v-19v-1057q0 -137 -3 -224t-9.5 -136t-13.5 -76.5t-15 -48.5h6q94 8 137 8q41 0 125 -6q6 -2 16 -2q-16 53 -21 76.5t-9 66.5q-6 63 -7.5 121t-3.5 187v59h2q98 -18 168 -18q266 0 422 180 q53 59 86 126.5t49.5 133t21.5 118t5 99.5q0 145 -36 246.5t-95 163.5q-98 102 -250 102q-123 0 -227.5 -72.5t-149.5 -191.5v55v207q2 90 4 144.5t4.5 89t7.5 73.5t11 82q-72 -43 -169 -66.5t-149 -23.5zM352 174v156q0 84 3 151.5t9.5 136t19.5 128t36 100.5q31 59 88 97 t133 38q88 0 144.5 -46t83 -113.5t34.5 -132t8 -122.5q0 -102 -24.5 -190t-69.5 -141q-39 -45 -102.5 -77t-151.5 -32q-68 0 -114 12.5t-97 34.5z" />
<glyph unicode="&#xff;" horiz-adv-x="1110" d="M-2 1143q23 -33 71 -130.5t103 -250.5q20 -57 46 -132t67 -195t53 -159q20 -63 32.5 -107t41.5 -146q8 -25 8 -29q35 4 53.5 5t65.5 1l-33 -78v-2q-18 -39 -36.5 -73.5t-48.5 -68.5t-71 -55.5t-94 -21.5q-55 0 -94 39q-8 -74 -18.5 -117t-37.5 -106q23 -2 25 -2 q33 -2 55 -2q47 0 100.5 9t94.5 23q61 23 108.5 65t80 95t56 108.5t54.5 139.5l278 823q29 84 51.5 143.5t39 98.5t30 64.5t33.5 58.5q-90 -8 -137 -8t-141 8q2 -6 2 -8q10 -29 10 -62q0 -43 -15.5 -118.5t-52.5 -196.5q0 -2 -51 -170q-68 -213 -87 -281.5t-32.5 -113 t-15.5 -60.5l-189 567q-47 145 -67.5 231.5t-20.5 147.5q0 20 2 33.5t7 32.5q-115 -12 -174 -13q-78 0 -152 13zM213 1397q0 -55 40 -95t95 -40t95 39.5t40 95.5q0 55 -40 95t-95 40t-95 -40t-40 -95zM621 1397q0 -55 40 -95t95 -40t95 39.5t40 95.5q0 55 -40 95t-95 40 t-95 -40t-40 -95z" />
<glyph unicode="&#x152;" horiz-adv-x="1878" d="M84 717q0 -125 30.5 -252t108.5 -238.5t217.5 -181.5t343.5 -70q43 0 125 11l23 2q106 12 219 12h104q68 2 101 2q131 0 238.5 -3t189.5 -9q8 111 55 254q-45 -35 -83 -55.5t-84 -32t-109.5 -15.5t-161.5 -4q-88 0 -130 7.5t-61.5 31t-24.5 65.5t-5 138v313q180 0 261 -2 t132 -8q53 -6 80.5 -15.5t60.5 -29.5l4 -4q-12 66 -12 131q0 45 12 131v6q-33 -29 -68.5 -43t-127.5 -20h-41q-33 -2 -49 -2q-57 0 -140 2q-82 2 -112 2v284q0 59 1 104.5t5 78.5q160 8 241 8q152 0 213.5 -21.5t114.5 -72.5q-6 53 -6 104q0 27 4 82q2 31 2 51 q-72 -2 -106 -2q-131 -4 -238.5 -6t-226.5 -2q-150 0 -252 10l-31 2q-88 6 -135 6q-61 0 -131 -11t-142.5 -37.5t-141 -73t-122.5 -115.5q-78 -102 -111.5 -232t-33.5 -280zM328 717q0 66 6 137.5t31.5 156.5t83 161.5t151.5 117.5q80 37 180 37q47 0 82 -7t78 -22l14 -6 l2 -37q8 -131 12.5 -247.5t4.5 -309.5q0 -147 -2 -252.5t-5 -159t-5.5 -86t-6.5 -50.5v-3q-10 -4 -12 -4q-43 -16 -80 -24t-86 -8q-106 0 -198.5 48t-149.5 130t-78.5 196.5t-21.5 231.5z" />
<glyph unicode="&#x153;" horiz-adv-x="1961" d="M78 573q0 -47 4 -96t19.5 -114.5t52 -133t96.5 -120.5q61 -55 153.5 -90t206.5 -35q96 0 171 21.5t124 54t79 63.5t56 65l2 5q27 -37 50.5 -62t74.5 -55q84 -51 179.5 -72.5t187.5 -21.5q127 0 285 41q4 68 11 102.5t32 107.5l-4 -4q-53 -53 -111.5 -82.5t-171.5 -29.5 q-84 0 -159 22.5t-126 63.5q-43 37 -71.5 83t-44 95t-20.5 88t-9 86h745q2 35 2 37q2 53 2 86q0 143 -39.5 233t-107.5 144q-55 43 -132 69.5t-169 26.5q-88 0 -161 -22.5t-122 -54.5t-78.5 -60.5t-50.5 -52.5q-31 35 -61.5 62.5t-81.5 58t-121 50t-154 19.5q-37 0 -76.5 -4 t-88 -17.5t-101.5 -41t-102 -72.5q-55 -49 -89 -106.5t-51.5 -116t-23.5 -111.5t-6 -109zM291 569q0 59 12 146.5t47 150.5q47 86 116.5 120t151.5 34q109 0 173.5 -51t93 -125t36 -139.5t7.5 -126.5q0 -78 -8.5 -151t-39 -144.5t-97 -119.5t-173.5 -48q-96 0 -160.5 42 t-98.5 110.5t-47 144t-13 157.5zM1147 676q4 53 10 92t20.5 81t42 80t70.5 64q59 39 144 39q145 0 208 -123q23 -43 30 -99t9 -128v-6h-534z" />
<glyph unicode="&#x178;" horiz-adv-x="1280" d="M0 1458q33 -39 83 -116.5t130 -227.5l166 -311q4 -6 10 -19q39 -72 62.5 -117.5t68.5 -142.5l2 -32q4 -78 5 -134.5t1 -152.5q0 -82 -8 -126t-26 -87q14 0 38 4q74 6 113 6t115 -6q10 -2 39 -4q-16 31 -23.5 48t-11.5 46t-6 74t-2 119q0 121 6 239l266 508 q55 100 84 151.5t54.5 95.5t49 83t64.5 102q-82 -14 -145 -14q-66 0 -134 10q-20 4 -26 4q0 -2 2 -6q4 -14 4 -29q0 -33 -19.5 -98t-70.5 -176q-35 -76 -66.5 -141.5t-54 -110.5t-53.5 -103.5t-47 -88.5l-215 440q-57 121 -80 185.5t-23 96.5q0 12 4 25q2 4 2 6h-6 q-113 -12 -168 -12q-61 0 -184 12zM297 1692q0 -55 40 -95.5t95 -40.5t95 40t40 96q0 55 -40 95t-95 40t-95 -40t-40 -95zM705 1692q0 -55 40 -95.5t95 -40.5t95 40t40 96q0 55 -40 95t-95 40t-95 -40t-40 -95z" />
<glyph unicode="&#x2c6;" horiz-adv-x="598" d="M-29 1255q53 4 82 5q45 0 90 -7q35 31 79 77t73 79q41 -47 80 -84t80 -65q10 0 28 2q35 4 56 4q20 0 59 -4l29 -2q-51 49 -86 84.5t-57.5 62.5t-41 55.5t-45.5 73.5q-12 0 -35 -2q-43 -4 -67 -4q-47 0 -96 6q-41 -59 -63.5 -90t-46 -59.5t-49.5 -57.5t-69 -74z" />
<glyph unicode="&#x2dc;" horiz-adv-x="598" d="M-14 1260q20 37 55 66.5t106 29.5q43 0 80 -8.5t92 -28.5l7 -2q63 -20 105 -31.5t77 -11.5q63 0 90 41q8 16 11 31.5t5 37.5v160q-10 -25 -22 -37q-16 -23 -53 -42t-95 -19q-63 0 -159 35q-61 23 -112.5 37t-84.5 14q-35 0 -55.5 -13.5t-30.5 -32t-13 -35.5t-3 -30v-161z " />
<glyph unicode="&#x2000;" horiz-adv-x="929" />
<glyph unicode="&#x2001;" horiz-adv-x="1858" />
<glyph unicode="&#x2002;" horiz-adv-x="929" />
<glyph unicode="&#x2003;" horiz-adv-x="1858" />
<glyph unicode="&#x2004;" horiz-adv-x="619" />
<glyph unicode="&#x2005;" horiz-adv-x="464" />
<glyph unicode="&#x2006;" horiz-adv-x="309" />
<glyph unicode="&#x2007;" horiz-adv-x="309" />
<glyph unicode="&#x2008;" horiz-adv-x="232" />
<glyph unicode="&#x2009;" horiz-adv-x="371" />
<glyph unicode="&#x200a;" horiz-adv-x="103" />
<glyph unicode="&#x2010;" horiz-adv-x="598" d="M55 618q133 10 242 11q106 0 244 -11q-6 53 -6 101q0 41 6 98q-137 -10 -248 -10q-109 0 -238 10q6 -57 6 -100q0 -49 -6 -99z" />
<glyph unicode="&#x2011;" horiz-adv-x="598" d="M55 618q133 10 242 11q106 0 244 -11q-6 53 -6 101q0 41 6 98q-137 -10 -248 -10q-109 0 -238 10q6 -57 6 -100q0 -49 -6 -99z" />
<glyph unicode="&#x2012;" horiz-adv-x="598" d="M55 618q133 10 242 11q106 0 244 -11q-6 53 -6 101q0 41 6 98q-137 -10 -248 -10q-109 0 -238 10q6 -57 6 -100q0 -49 -6 -99z" />
<glyph unicode="&#x2013;" d="M55 616q16 2 69.5 3.5t141.5 3.5q180 4 316 4q211 0 348 -2q72 0 144.5 -2t107.5 -7q-6 53 -6 101q0 35 8 104q-74 -4 -235 -9t-339 -5q-180 0 -316.5 3t-238.5 11q8 -70 8 -104q0 -23 -4 -62q-4 -27 -4 -39z" />
<glyph unicode="&#x2014;" horiz-adv-x="1409" d="M57 616q78 8 244 13h813q86 -2 140.5 -4t101.5 -9q0 8 -2 19q-2 45 -2 84t2 80q2 10 2 20q-111 -12 -242 -12h-813q-133 0 -244 12l2 -47q2 -39 2 -53q0 -16 -2 -57q-2 -39 -2 -46z" />
<glyph unicode="&#x2018;" horiz-adv-x="468" d="M63 1071q72 18 109 23.5t113 5.5q8 106 35 182t86 180q-6 -2 -9 -2q-41 -6 -54 -8t-52 -4l-4 -6q-59 -78 -83 -112t-46.5 -70.5t-45 -81.5t-49.5 -107z" />
<glyph unicode="&#x2019;" horiz-adv-x="468" d="M51 1090h2q43 8 60.5 9t50.5 3q51 61 87 110.5t60.5 90t42.5 79t43 93.5q-68 -16 -105.5 -21.5t-113.5 -5.5q-12 -100 -38.5 -175t-88.5 -183z" />
<glyph unicode="&#x201a;" horiz-adv-x="468" d="M29 -211h20q16 2 21 2q29 0 55 -6q51 59 88 106.5t61.5 89.5t47 87.5t53.5 115.5q-72 -10 -117 -10t-65 2v-2q-12 -90 -45 -183t-119 -202z" />
<glyph unicode="&#x201c;" horiz-adv-x="681" d="M59 1063q68 10 117 10h33q27 -2 33 -2q8 61 23.5 118.5t51.5 131.5q35 68 82 131l4 6h-18q-16 -2 -20 -2q-18 0 -27 2q-8 0 -25 4h-4q-51 -59 -87 -105t-61.5 -89t-48 -89t-53.5 -116zM293 1063q68 10 117 10h32q27 -2 33 -2l2 8q8 57 22.5 113.5t51.5 128.5 q43 86 86 137h-19q-16 -2 -20 -2q-18 0 -27 2q-8 0 -24 4h-4q-51 -59 -87 -105t-61.5 -89t-48 -89t-53.5 -116z" />
<glyph unicode="&#x201d;" horiz-adv-x="681" d="M45 1059q25 4 41 4q12 0 35 -4q6 0 18 -2q51 57 88 105t61.5 89t47 87t53.5 118q-68 -10 -117 -10q-43 0 -65 2v-4q-14 -88 -46 -181.5t-116 -203.5zM279 1059q25 4 38 4q12 0 37 -4q18 -2 19 -2q53 59 88 105t60.5 89t48 89t53.5 116q-68 -10 -117 -10q-43 0 -66 2v-4 q-14 -88 -46 -181.5t-115 -203.5z" />
<glyph unicode="&#x201e;" horiz-adv-x="681" d="M18 -211h23q16 2 18 2q29 0 56 -6q51 59 88 106.5t61.5 89.5t47 87.5t53.5 115.5q-72 -10 -117 -10q-43 0 -66 2q-8 -61 -23.5 -118.5t-52.5 -131.5q-39 -80 -88 -137zM252 -211h20q16 2 21 2q29 0 55 -6q51 59 87 105.5t61.5 90.5t49 90.5t52.5 112.5q-72 -10 -117 -10 t-65 2q-8 -61 -23.5 -118.5t-52.5 -131.5q-39 -80 -88 -137z" />
<glyph unicode="&#x2022;" horiz-adv-x="681" d="M76 723q0 -109 75.5 -187.5t194.5 -78.5q117 0 189.5 77.5t72.5 188.5q0 115 -75.5 190.5t-186.5 75.5q-117 0 -193.5 -80t-76.5 -186z" />
<glyph unicode="&#x2026;" horiz-adv-x="2048" d="M219 119q0 -55 37 -92t84 -37q49 0 86 36.5t37 92.5q0 57 -37 94t-86 37q-47 0 -84 -38t-37 -93zM901 119q0 -55 37 -92t84 -37q49 0 86 36.5t37 92.5q0 57 -37 94t-86 37q-47 0 -84 -38t-37 -93zM1583 119q0 -55 37 -92t84 -37q49 0 86 36.5t37 92.5q0 57 -37 94t-86 37 q-47 0 -84 -38t-37 -93z" />
<glyph unicode="&#x202f;" horiz-adv-x="371" />
<glyph unicode="&#x2039;" horiz-adv-x="468" d="M94 625q47 -27 78 -47.5t57.5 -42t50 -46t62.5 -67.5q4 45 5 74.5t1 93.5l-133 129l152 149q4 47 5 73t1 81q-45 -41 -76 -68.5t-56.5 -47t-54 -39t-84.5 -56.5q2 -20 2 -63q0 -45 -10 -123z" />
<glyph unicode="&#x203a;" horiz-adv-x="468" d="M96 1022q0 -43 1 -68.5t5 -64.5q2 -8 2 -21l152 -149l-135 -129q0 -61 1 -89t5 -79q41 45 64.5 69.5t48 44t57.5 41t80 48.5q-10 78 -10 123q0 43 2 63q-57 37 -86 56.5t-53.5 38t-56.5 47t-77 69.5z" />
<glyph unicode="&#x205f;" horiz-adv-x="464" />
<glyph unicode="&#x2122;" horiz-adv-x="1406" d="M33 1346h219v-580h119v580h215v100h-553v-100zM643 766h115l-4 422q-2 27 -2 37q-4 76 -7 98q10 -37 25 -86q6 -20 8 -27l142 -444h104l139 444l8 29q10 33 16.5 56.5t8.5 29.5v-10q-6 -72 -6 -127l-4 -422h117v680h-162l-166 -537l-170 537h-162v-680z" />
<glyph unicode="&#x25fc;" horiz-adv-x="1146" d="M0 0v1147h1147v-1147h-1147z" />
</font>
</defs>
</svg>
